<ttFont>
    <TTGlyph name=".notdef" xMin="222" yMin="0" xMax="1481" yMax="1533">
      <contour>
        <pt x="291" y="0" on="1"/>
        <pt x="222" y="0" on="0"/>
        <pt x="222" y="78" on="1"/>
        <pt x="222" y="1454" on="1"/>
        <pt x="222" y="1533" on="0"/>
        <pt x="288" y="1533" on="1"/>
        <pt x="1405" y="1533" on="1"/>
        <pt x="1481" y="1533" on="0"/>
        <pt x="1481" y="1457" on="1"/>
        <pt x="1481" y="76" on="1"/>
        <pt x="1481" y="0" on="0"/>
        <pt x="1405" y="0" on="1"/>
      </contour>
      <contour>
        <pt x="500" y="366" on="1"/>
        <pt x="518" y="347" on="0"/>
        <pt x="559" y="347" on="0"/>
        <pt x="579" y="368" on="1"/>
        <pt x="855" y="645" on="1"/>
        <pt x="1136" y="366" on="1"/>
        <pt x="1156" y="346" on="0"/>
        <pt x="1194" y="346" on="0"/>
        <pt x="1209" y="361" on="1"/>
        <pt x="1261" y="413" on="1"/>
        <pt x="1278" y="430" on="0"/>
        <pt x="1278" y="468" on="0"/>
        <pt x="1261" y="483" on="1"/>
        <pt x="977" y="767" on="1"/>
        <pt x="1252" y="1043" on="1"/>
        <pt x="1289" y="1080" on="0"/>
        <pt x="1261" y="1108" on="1"/>
        <pt x="1194" y="1177" on="1"/>
        <pt x="1179" y="1192" on="0"/>
        <pt x="1143" y="1192" on="0"/>
        <pt x="1130" y="1177" on="1"/>
        <pt x="849" y="895" on="1"/>
        <pt x="562" y="1183" on="1"/>
        <pt x="548" y="1197" on="0"/>
        <pt x="514" y="1197" on="0"/>
        <pt x="501" y="1184" on="1"/>
        <pt x="440" y="1126" on="1"/>
        <pt x="425" y="1111" on="0"/>
        <pt x="425" y="1094" on="1"/>
        <pt x="425" y="1077" on="0"/>
        <pt x="440" y="1062" on="1"/>
        <pt x="727" y="773" on="1"/>
        <pt x="442" y="488" on="1"/>
        <pt x="428" y="476" on="0"/>
        <pt x="428" y="457" on="1"/>
        <pt x="428" y="438" on="0"/>
        <pt x="445" y="421" on="1"/>
      </contour>
    </TTGlyph>
    <TTGlyph name="A" xMin="68" yMin="0" xMax="1469" yMax="1533">
      <contour>
        <pt x="98" y="0" on="0"/>
        <pt x="68" y="37" on="0"/>
        <pt x="68" y="64" on="0"/>
        <pt x="71" y="72" on="1"/>
        <pt x="576" y="1430" on="1"/>
        <pt x="610" y="1519" on="0"/>
        <pt x="685" y="1530" on="1"/>
        <pt x="711" y="1533" on="0"/>
        <pt x="747" y="1533" on="1"/>
        <pt x="764" y="1533" on="1"/>
        <pt x="832" y="1533" on="0"/>
        <pt x="858" y="1516" on="1"/>
        <pt x="900" y="1490" on="0"/>
        <pt x="923" y="1433" on="1"/>
        <pt x="1466" y="71" on="1"/>
        <pt x="1469" y="63" on="0"/>
        <pt x="1469" y="34" on="0"/>
        <pt x="1445" y="0" on="0"/>
        <pt x="1417" y="0" on="1"/>
        <pt x="1277" y="0" on="1"/>
        <pt x="1231" y="0" on="0"/>
        <pt x="1213" y="43" on="1"/>
        <pt x="1089" y="368" on="1"/>
        <pt x="432" y="368" on="1"/>
        <pt x="317" y="43" on="1"/>
        <pt x="303" y="0" on="0"/>
        <pt x="256" y="0" on="1"/>
        <pt x="127" y="0" on="1"/>
      </contour>
      <contour>
        <pt x="1005" y="584" on="1"/>
        <pt x="766" y="1234" on="1"/>
        <pt x="763" y="1244" on="0"/>
        <pt x="745" y="1244" on="0"/>
        <pt x="742" y="1234" on="1"/>
        <pt x="510" y="584" on="1"/>
      </contour>
    </TTGlyph>
    <TTGlyph name="AE" xMin="66" yMin="0" xMax="1738" yMax="1533">
      <contour>
        <pt x="96" y="0" on="0"/>
        <pt x="66" y="37" on="0"/>
        <pt x="66" y="64" on="0"/>
        <pt x="69" y="72" on="1"/>
        <pt x="569" y="1430" on="1"/>
        <pt x="592" y="1494" on="0"/>
        <pt x="628" y="1515" on="1"/>
        <pt x="659" y="1533" on="0"/>
        <pt x="734" y="1533" on="1"/>
        <pt x="1680" y="1533" on="1"/>
        <pt x="1706" y="1533" on="0"/>
        <pt x="1733" y="1500" on="0"/>
        <pt x="1733" y="1476" on="1"/>
        <pt x="1733" y="1368" on="1"/>
        <pt x="1733" y="1345" on="0"/>
        <pt x="1706" y="1312" on="0"/>
        <pt x="1680" y="1312" on="1"/>
        <pt x="970" y="1312" on="1"/>
        <pt x="1084" y="899" on="1"/>
        <pt x="1614" y="899" on="1"/>
        <pt x="1640" y="899" on="0"/>
        <pt x="1667" y="866" on="0"/>
        <pt x="1667" y="842" on="1"/>
        <pt x="1667" y="734" on="1"/>
        <pt x="1667" y="711" on="0"/>
        <pt x="1640" y="678" on="0"/>
        <pt x="1614" y="678" on="1"/>
        <pt x="1145" y="678" on="1"/>
        <pt x="1270" y="221" on="1"/>
        <pt x="1685" y="221" on="1"/>
        <pt x="1711" y="221" on="0"/>
        <pt x="1738" y="188" on="0"/>
        <pt x="1738" y="164" on="1"/>
        <pt x="1738" y="56" on="1"/>
        <pt x="1738" y="33" on="0"/>
        <pt x="1711" y="0" on="0"/>
        <pt x="1685" y="0" on="1"/>
        <pt x="1148" y="0" on="1"/>
        <pt x="1099" y="0" on="0"/>
        <pt x="1084" y="43" on="1"/>
        <pt x="995" y="368" on="1"/>
        <pt x="430" y="368" on="1"/>
        <pt x="318" y="43" on="1"/>
        <pt x="304" y="0" on="0"/>
        <pt x="257" y="0" on="1"/>
        <pt x="125" y="0" on="1"/>
      </contour>
      <contour>
        <pt x="926" y="584" on="1"/>
        <pt x="756" y="1254" on="1"/>
        <pt x="753" y="1264" on="0"/>
        <pt x="734" y="1264" on="0"/>
        <pt x="731" y="1254" on="1"/>
        <pt x="504" y="584" on="1"/>
      </contour>
    </TTGlyph>
    <TTGlyph name="AEacute" xMin="66" yMin="0" xMax="1738" yMax="1992">
      <contour>
        <pt x="96" y="0" on="0"/>
        <pt x="66" y="37" on="0"/>
        <pt x="66" y="64" on="0"/>
        <pt x="69" y="72" on="1"/>
        <pt x="569" y="1430" on="1"/>
        <pt x="592" y="1494" on="0"/>
        <pt x="628" y="1515" on="1"/>
        <pt x="659" y="1533" on="0"/>
        <pt x="734" y="1533" on="1"/>
        <pt x="1680" y="1533" on="1"/>
        <pt x="1706" y="1533" on="0"/>
        <pt x="1733" y="1500" on="0"/>
        <pt x="1733" y="1476" on="1"/>
        <pt x="1733" y="1368" on="1"/>
        <pt x="1733" y="1345" on="0"/>
        <pt x="1706" y="1312" on="0"/>
        <pt x="1680" y="1312" on="1"/>
        <pt x="970" y="1312" on="1"/>
        <pt x="1084" y="899" on="1"/>
        <pt x="1614" y="899" on="1"/>
        <pt x="1640" y="899" on="0"/>
        <pt x="1667" y="866" on="0"/>
        <pt x="1667" y="842" on="1"/>
        <pt x="1667" y="734" on="1"/>
        <pt x="1667" y="711" on="0"/>
        <pt x="1640" y="678" on="0"/>
        <pt x="1614" y="678" on="1"/>
        <pt x="1145" y="678" on="1"/>
        <pt x="1270" y="221" on="1"/>
        <pt x="1685" y="221" on="1"/>
        <pt x="1711" y="221" on="0"/>
        <pt x="1738" y="188" on="0"/>
        <pt x="1738" y="164" on="1"/>
        <pt x="1738" y="56" on="1"/>
        <pt x="1738" y="33" on="0"/>
        <pt x="1711" y="0" on="0"/>
        <pt x="1685" y="0" on="1"/>
        <pt x="1148" y="0" on="1"/>
        <pt x="1099" y="0" on="0"/>
        <pt x="1084" y="43" on="1"/>
        <pt x="995" y="368" on="1"/>
        <pt x="430" y="368" on="1"/>
        <pt x="318" y="43" on="1"/>
        <pt x="304" y="0" on="0"/>
        <pt x="257" y="0" on="1"/>
        <pt x="125" y="0" on="1"/>
      </contour>
      <contour>
        <pt x="926" y="584" on="1"/>
        <pt x="756" y="1254" on="1"/>
        <pt x="753" y="1264" on="0"/>
        <pt x="734" y="1264" on="0"/>
        <pt x="731" y="1254" on="1"/>
        <pt x="504" y="584" on="1"/>
      </contour>
      <contour>
        <pt x="1058" y="1631" on="1"/>
        <pt x="1018" y="1617" on="0"/>
        <pt x="1001" y="1651" on="1"/>
        <pt x="970" y="1718" on="1"/>
        <pt x="955" y="1748" on="0"/>
        <pt x="985" y="1765" on="1"/>
        <pt x="1352" y="1976" on="1"/>
        <pt x="1376" y="1992" on="0"/>
        <pt x="1397" y="1992" on="1"/>
        <pt x="1437" y="1992" on="0"/>
        <pt x="1448" y="1966" on="1"/>
        <pt x="1502" y="1851" on="1"/>
        <pt x="1510" y="1835" on="0"/>
        <pt x="1510" y="1821" on="1"/>
        <pt x="1510" y="1784" on="0"/>
        <pt x="1467" y="1769" on="1"/>
      </contour>
    </TTGlyph>
    <TTGlyph name="Aacute" xMin="68" yMin="0" xMax="1469" yMax="1992">
      <contour>
        <pt x="98" y="0" on="0"/>
        <pt x="68" y="37" on="0"/>
        <pt x="68" y="64" on="0"/>
        <pt x="71" y="72" on="1"/>
        <pt x="576" y="1430" on="1"/>
        <pt x="610" y="1519" on="0"/>
        <pt x="685" y="1530" on="1"/>
        <pt x="711" y="1533" on="0"/>
        <pt x="747" y="1533" on="1"/>
        <pt x="764" y="1533" on="1"/>
        <pt x="832" y="1533" on="0"/>
        <pt x="858" y="1516" on="1"/>
        <pt x="900" y="1490" on="0"/>
        <pt x="923" y="1433" on="1"/>
        <pt x="1466" y="71" on="1"/>
        <pt x="1469" y="63" on="0"/>
        <pt x="1469" y="34" on="0"/>
        <pt x="1445" y="0" on="0"/>
        <pt x="1417" y="0" on="1"/>
        <pt x="1277" y="0" on="1"/>
        <pt x="1231" y="0" on="0"/>
        <pt x="1213" y="43" on="1"/>
        <pt x="1089" y="368" on="1"/>
        <pt x="432" y="368" on="1"/>
        <pt x="317" y="43" on="1"/>
        <pt x="303" y="0" on="0"/>
        <pt x="256" y="0" on="1"/>
        <pt x="127" y="0" on="1"/>
      </contour>
      <contour>
        <pt x="1005" y="584" on="1"/>
        <pt x="766" y="1234" on="1"/>
        <pt x="763" y="1244" on="0"/>
        <pt x="745" y="1244" on="0"/>
        <pt x="742" y="1234" on="1"/>
        <pt x="510" y="584" on="1"/>
      </contour>
      <contour>
        <pt x="650" y="1631" on="1"/>
        <pt x="610" y="1617" on="0"/>
        <pt x="593" y="1651" on="1"/>
        <pt x="562" y="1718" on="1"/>
        <pt x="547" y="1748" on="0"/>
        <pt x="577" y="1765" on="1"/>
        <pt x="944" y="1976" on="1"/>
        <pt x="968" y="1992" on="0"/>
        <pt x="989" y="1992" on="1"/>
        <pt x="1029" y="1992" on="0"/>
        <pt x="1040" y="1966" on="1"/>
        <pt x="1094" y="1851" on="1"/>
        <pt x="1102" y="1835" on="0"/>
        <pt x="1102" y="1821" on="1"/>
        <pt x="1102" y="1784" on="0"/>
        <pt x="1059" y="1769" on="1"/>
      </contour>
    </TTGlyph>
    <TTGlyph name="Abreve" xMin="68" yMin="0" xMax="1469" yMax="1994">
      <contour>
        <pt x="98" y="0" on="0"/>
        <pt x="68" y="37" on="0"/>
        <pt x="68" y="64" on="0"/>
        <pt x="71" y="72" on="1"/>
        <pt x="576" y="1430" on="1"/>
        <pt x="610" y="1519" on="0"/>
        <pt x="685" y="1530" on="1"/>
        <pt x="711" y="1533" on="0"/>
        <pt x="747" y="1533" on="1"/>
        <pt x="764" y="1533" on="1"/>
        <pt x="832" y="1533" on="0"/>
        <pt x="858" y="1516" on="1"/>
        <pt x="900" y="1490" on="0"/>
        <pt x="923" y="1433" on="1"/>
        <pt x="1466" y="71" on="1"/>
        <pt x="1469" y="63" on="0"/>
        <pt x="1469" y="34" on="0"/>
        <pt x="1445" y="0" on="0"/>
        <pt x="1417" y="0" on="1"/>
        <pt x="1277" y="0" on="1"/>
        <pt x="1231" y="0" on="0"/>
        <pt x="1213" y="43" on="1"/>
        <pt x="1089" y="368" on="1"/>
        <pt x="432" y="368" on="1"/>
        <pt x="317" y="43" on="1"/>
        <pt x="303" y="0" on="0"/>
        <pt x="256" y="0" on="1"/>
        <pt x="127" y="0" on="1"/>
      </contour>
      <contour>
        <pt x="1005" y="584" on="1"/>
        <pt x="766" y="1234" on="1"/>
        <pt x="763" y="1244" on="0"/>
        <pt x="745" y="1244" on="0"/>
        <pt x="742" y="1234" on="1"/>
        <pt x="510" y="584" on="1"/>
      </contour>
      <contour>
        <pt x="728" y="1662" on="1"/>
        <pt x="655" y="1662" on="0"/>
        <pt x="530" y="1705" on="0"/>
        <pt x="483" y="1743" on="1"/>
        <pt x="381" y="1825" on="0"/>
        <pt x="381" y="1949" on="1"/>
        <pt x="381" y="1983" on="0"/>
        <pt x="434" y="1986" on="1"/>
        <pt x="542" y="1991" on="1"/>
        <pt x="579" y="1994" on="0"/>
        <pt x="582" y="1960" on="1"/>
        <pt x="587" y="1886" on="0"/>
        <pt x="639" y="1854" on="1"/>
        <pt x="674" y="1832" on="0"/>
        <pt x="725" y="1832" on="1"/>
        <pt x="814" y="1832" on="0"/>
        <pt x="851" y="1886" on="1"/>
        <pt x="867" y="1910" on="0"/>
        <pt x="871" y="1943" on="1"/>
        <pt x="876" y="1994" on="0"/>
        <pt x="925" y="1991" on="1"/>
        <pt x="1019" y="1986" on="1"/>
        <pt x="1068" y="1982" on="0"/>
        <pt x="1068" y="1944" on="1"/>
        <pt x="1068" y="1827" on="0"/>
        <pt x="973" y="1746" on="1"/>
        <pt x="875" y="1662" on="0"/>
      </contour>
    </TTGlyph>
    <TTGlyph name="Acircumflex" xMin="68" yMin="0" xMax="1469" yMax="1982">
      <contour>
        <pt x="98" y="0" on="0"/>
        <pt x="68" y="37" on="0"/>
        <pt x="68" y="64" on="0"/>
        <pt x="71" y="72" on="1"/>
        <pt x="576" y="1430" on="1"/>
        <pt x="610" y="1519" on="0"/>
        <pt x="685" y="1530" on="1"/>
        <pt x="711" y="1533" on="0"/>
        <pt x="747" y="1533" on="1"/>
        <pt x="764" y="1533" on="1"/>
        <pt x="832" y="1533" on="0"/>
        <pt x="858" y="1516" on="1"/>
        <pt x="900" y="1490" on="0"/>
        <pt x="923" y="1433" on="1"/>
        <pt x="1466" y="71" on="1"/>
        <pt x="1469" y="63" on="0"/>
        <pt x="1469" y="34" on="0"/>
        <pt x="1445" y="0" on="0"/>
        <pt x="1417" y="0" on="1"/>
        <pt x="1277" y="0" on="1"/>
        <pt x="1231" y="0" on="0"/>
        <pt x="1213" y="43" on="1"/>
        <pt x="1089" y="368" on="1"/>
        <pt x="432" y="368" on="1"/>
        <pt x="317" y="43" on="1"/>
        <pt x="303" y="0" on="0"/>
        <pt x="256" y="0" on="1"/>
        <pt x="127" y="0" on="1"/>
      </contour>
      <contour>
        <pt x="1005" y="584" on="1"/>
        <pt x="766" y="1234" on="1"/>
        <pt x="763" y="1244" on="0"/>
        <pt x="745" y="1244" on="0"/>
        <pt x="742" y="1234" on="1"/>
        <pt x="510" y="584" on="1"/>
      </contour>
      <contour>
        <pt x="492" y="1663" on="1"/>
        <pt x="481" y="1655" on="0"/>
        <pt x="451" y="1655" on="0"/>
        <pt x="439" y="1668" on="1"/>
        <pt x="386" y="1725" on="1"/>
        <pt x="377" y="1735" on="0"/>
        <pt x="377" y="1768" on="0"/>
        <pt x="390" y="1779" on="1"/>
        <pt x="590" y="1959" on="1"/>
        <pt x="615" y="1982" on="0"/>
        <pt x="643" y="1982" on="1"/>
        <pt x="826" y="1982" on="1"/>
        <pt x="856" y="1982" on="0"/>
        <pt x="881" y="1959" on="1"/>
        <pt x="1079" y="1781" on="1"/>
        <pt x="1096" y="1768" on="0"/>
        <pt x="1096" y="1731" on="0"/>
        <pt x="1082" y="1716" on="1"/>
        <pt x="1042" y="1672" on="1"/>
        <pt x="1027" y="1656" on="0"/>
        <pt x="996" y="1656" on="0"/>
        <pt x="986" y="1663" on="1"/>
        <pt x="733" y="1829" on="1"/>
      </contour>
    </TTGlyph>
    <TTGlyph name="Adieresis" xMin="68" yMin="0" xMax="1469" yMax="1972">
      <contour>
        <pt x="98" y="0" on="0"/>
        <pt x="68" y="37" on="0"/>
        <pt x="68" y="64" on="0"/>
        <pt x="71" y="72" on="1"/>
        <pt x="576" y="1430" on="1"/>
        <pt x="610" y="1519" on="0"/>
        <pt x="685" y="1530" on="1"/>
        <pt x="711" y="1533" on="0"/>
        <pt x="747" y="1533" on="1"/>
        <pt x="764" y="1533" on="1"/>
        <pt x="832" y="1533" on="0"/>
        <pt x="858" y="1516" on="1"/>
        <pt x="900" y="1490" on="0"/>
        <pt x="923" y="1433" on="1"/>
        <pt x="1466" y="71" on="1"/>
        <pt x="1469" y="63" on="0"/>
        <pt x="1469" y="34" on="0"/>
        <pt x="1445" y="0" on="0"/>
        <pt x="1417" y="0" on="1"/>
        <pt x="1277" y="0" on="1"/>
        <pt x="1231" y="0" on="0"/>
        <pt x="1213" y="43" on="1"/>
        <pt x="1089" y="368" on="1"/>
        <pt x="432" y="368" on="1"/>
        <pt x="317" y="43" on="1"/>
        <pt x="303" y="0" on="0"/>
        <pt x="256" y="0" on="1"/>
        <pt x="127" y="0" on="1"/>
      </contour>
      <contour>
        <pt x="1005" y="584" on="1"/>
        <pt x="766" y="1234" on="1"/>
        <pt x="763" y="1244" on="0"/>
        <pt x="745" y="1244" on="0"/>
        <pt x="742" y="1234" on="1"/>
        <pt x="510" y="584" on="1"/>
      </contour>
      <contour>
        <pt x="983" y="1668" on="1"/>
        <pt x="922" y="1668" on="0"/>
        <pt x="877" y="1712" on="1"/>
        <pt x="834" y="1756" on="0"/>
        <pt x="834" y="1821" on="1"/>
        <pt x="834" y="1920" on="0"/>
        <pt x="925" y="1960" on="1"/>
        <pt x="952" y="1972" on="0"/>
        <pt x="983" y="1972" on="1"/>
        <pt x="1044" y="1972" on="0"/>
        <pt x="1132" y="1884" on="0"/>
        <pt x="1132" y="1789" on="0"/>
        <pt x="1108" y="1733" on="0"/>
        <pt x="1088" y="1712" on="1"/>
        <pt x="1045" y="1668" on="0"/>
      </contour>
      <contour>
        <pt x="562" y="1692" on="0"/>
        <pt x="509" y="1668" on="0"/>
        <pt x="447" y="1668" on="0"/>
        <pt x="392" y="1692" on="0"/>
        <pt x="372" y="1712" on="1"/>
        <pt x="328" y="1758" on="0"/>
        <pt x="328" y="1852" on="0"/>
        <pt x="352" y="1908" on="0"/>
        <pt x="372" y="1928" on="1"/>
        <pt x="416" y="1972" on="0"/>
        <pt x="479" y="1972" on="1"/>
        <pt x="537" y="1972" on="0"/>
        <pt x="583" y="1928" on="1"/>
        <pt x="626" y="1886" on="0"/>
        <pt x="626" y="1789" on="0"/>
        <pt x="603" y="1733" on="0"/>
      </contour>
    </TTGlyph>
    <TTGlyph name="Agrave" xMin="68" yMin="0" xMax="1469" yMax="1992">
      <contour>
        <pt x="98" y="0" on="0"/>
        <pt x="68" y="37" on="0"/>
        <pt x="68" y="64" on="0"/>
        <pt x="71" y="72" on="1"/>
        <pt x="576" y="1430" on="1"/>
        <pt x="610" y="1519" on="0"/>
        <pt x="685" y="1530" on="1"/>
        <pt x="711" y="1533" on="0"/>
        <pt x="747" y="1533" on="1"/>
        <pt x="764" y="1533" on="1"/>
        <pt x="832" y="1533" on="0"/>
        <pt x="858" y="1516" on="1"/>
        <pt x="900" y="1490" on="0"/>
        <pt x="923" y="1433" on="1"/>
        <pt x="1466" y="71" on="1"/>
        <pt x="1469" y="63" on="0"/>
        <pt x="1469" y="34" on="0"/>
        <pt x="1445" y="0" on="0"/>
        <pt x="1417" y="0" on="1"/>
        <pt x="1277" y="0" on="1"/>
        <pt x="1231" y="0" on="0"/>
        <pt x="1213" y="43" on="1"/>
        <pt x="1089" y="368" on="1"/>
        <pt x="432" y="368" on="1"/>
        <pt x="317" y="43" on="1"/>
        <pt x="303" y="0" on="0"/>
        <pt x="256" y="0" on="1"/>
        <pt x="127" y="0" on="1"/>
      </contour>
      <contour>
        <pt x="1005" y="584" on="1"/>
        <pt x="766" y="1234" on="1"/>
        <pt x="763" y="1244" on="0"/>
        <pt x="745" y="1244" on="0"/>
        <pt x="742" y="1234" on="1"/>
        <pt x="510" y="584" on="1"/>
      </contour>
      <contour>
        <pt x="415" y="1769" on="1"/>
        <pt x="372" y="1784" on="0"/>
        <pt x="372" y="1821" on="1"/>
        <pt x="372" y="1835" on="0"/>
        <pt x="380" y="1851" on="1"/>
        <pt x="434" y="1966" on="1"/>
        <pt x="445" y="1992" on="0"/>
        <pt x="506" y="1992" on="0"/>
        <pt x="530" y="1976" on="1"/>
        <pt x="897" y="1765" on="1"/>
        <pt x="927" y="1748" on="0"/>
        <pt x="912" y="1718" on="1"/>
        <pt x="881" y="1651" on="1"/>
        <pt x="864" y="1617" on="0"/>
        <pt x="824" y="1631" on="1"/>
      </contour>
    </TTGlyph>
    <TTGlyph name="Amacron" xMin="68" yMin="0" xMax="1469" yMax="1931">
      <contour>
        <pt x="98" y="0" on="0"/>
        <pt x="68" y="37" on="0"/>
        <pt x="68" y="64" on="0"/>
        <pt x="71" y="72" on="1"/>
        <pt x="576" y="1430" on="1"/>
        <pt x="610" y="1519" on="0"/>
        <pt x="685" y="1530" on="1"/>
        <pt x="711" y="1533" on="0"/>
        <pt x="747" y="1533" on="1"/>
        <pt x="764" y="1533" on="1"/>
        <pt x="832" y="1533" on="0"/>
        <pt x="858" y="1516" on="1"/>
        <pt x="900" y="1490" on="0"/>
        <pt x="923" y="1433" on="1"/>
        <pt x="1466" y="71" on="1"/>
        <pt x="1469" y="63" on="0"/>
        <pt x="1469" y="34" on="0"/>
        <pt x="1445" y="0" on="0"/>
        <pt x="1417" y="0" on="1"/>
        <pt x="1277" y="0" on="1"/>
        <pt x="1231" y="0" on="0"/>
        <pt x="1213" y="43" on="1"/>
        <pt x="1089" y="368" on="1"/>
        <pt x="432" y="368" on="1"/>
        <pt x="317" y="43" on="1"/>
        <pt x="303" y="0" on="0"/>
        <pt x="256" y="0" on="1"/>
        <pt x="127" y="0" on="1"/>
      </contour>
      <contour>
        <pt x="1005" y="584" on="1"/>
        <pt x="766" y="1234" on="1"/>
        <pt x="763" y="1244" on="0"/>
        <pt x="745" y="1244" on="0"/>
        <pt x="742" y="1234" on="1"/>
        <pt x="510" y="584" on="1"/>
      </contour>
      <contour>
        <pt x="455" y="1714" on="0"/>
        <pt x="429" y="1735" on="0"/>
        <pt x="429" y="1752" on="1"/>
        <pt x="429" y="1894" on="1"/>
        <pt x="429" y="1910" on="0"/>
        <pt x="455" y="1931" on="0"/>
        <pt x="472" y="1931" on="1"/>
        <pt x="990" y="1931" on="1"/>
        <pt x="1008" y="1931" on="0"/>
        <pt x="1034" y="1910" on="0"/>
        <pt x="1034" y="1893" on="1"/>
        <pt x="1034" y="1751" on="1"/>
        <pt x="1034" y="1735" on="0"/>
        <pt x="1008" y="1714" on="0"/>
        <pt x="990" y="1714" on="1"/>
        <pt x="472" y="1714" on="1"/>
      </contour>
    </TTGlyph>
    <TTGlyph name="Aogonek" xMin="68" yMin="-480" xMax="1514" yMax="1533">
      <contour>
        <pt x="1465" y="-279" on="1"/>
        <pt x="1514" y="-279" on="0"/>
        <pt x="1514" y="-369" on="1"/>
        <pt x="1514" y="-457" on="0"/>
        <pt x="1366" y="-476" on="1"/>
        <pt x="1335" y="-480" on="0"/>
        <pt x="1267" y="-480" on="0"/>
        <pt x="1183" y="-458" on="0"/>
        <pt x="1147" y="-434" on="1"/>
        <pt x="1063" y="-376" on="0"/>
        <pt x="1063" y="-273" on="1"/>
        <pt x="1063" y="-112" on="0"/>
        <pt x="1250" y="3" on="1"/>
        <pt x="1225" y="11" on="0"/>
        <pt x="1213" y="43" on="1"/>
        <pt x="1089" y="368" on="1"/>
        <pt x="432" y="368" on="1"/>
        <pt x="317" y="43" on="1"/>
        <pt x="303" y="0" on="0"/>
        <pt x="256" y="0" on="1"/>
        <pt x="127" y="0" on="1"/>
        <pt x="98" y="0" on="0"/>
        <pt x="68" y="37" on="0"/>
        <pt x="68" y="64" on="0"/>
        <pt x="71" y="72" on="1"/>
        <pt x="576" y="1430" on="1"/>
        <pt x="610" y="1519" on="0"/>
        <pt x="685" y="1530" on="1"/>
        <pt x="711" y="1533" on="0"/>
        <pt x="747" y="1533" on="1"/>
        <pt x="764" y="1533" on="1"/>
        <pt x="832" y="1533" on="0"/>
        <pt x="858" y="1516" on="1"/>
        <pt x="900" y="1490" on="0"/>
        <pt x="923" y="1433" on="1"/>
        <pt x="1466" y="71" on="1"/>
        <pt x="1469" y="63" on="0"/>
        <pt x="1469" y="52" on="1"/>
        <pt x="1469" y="25" on="0"/>
        <pt x="1446" y="8" on="1"/>
        <pt x="1388" y="-35" on="1"/>
        <pt x="1254" y="-134" on="0"/>
        <pt x="1254" y="-230" on="1"/>
        <pt x="1254" y="-304" on="0"/>
        <pt x="1351" y="-304" on="1"/>
        <pt x="1383" y="-304" on="0"/>
        <pt x="1458" y="-279" on="0"/>
      </contour>
      <contour>
        <pt x="1005" y="584" on="1"/>
        <pt x="766" y="1234" on="1"/>
        <pt x="763" y="1244" on="0"/>
        <pt x="745" y="1244" on="0"/>
        <pt x="742" y="1234" on="1"/>
        <pt x="510" y="584" on="1"/>
      </contour>
    </TTGlyph>
    <TTGlyph name="Aring" xMin="68" yMin="0" xMax="1469" yMax="1980">
      <contour>
        <pt x="98" y="0" on="0"/>
        <pt x="68" y="37" on="0"/>
        <pt x="68" y="64" on="0"/>
        <pt x="71" y="72" on="1"/>
        <pt x="576" y="1430" on="1"/>
        <pt x="610" y="1519" on="0"/>
        <pt x="685" y="1530" on="1"/>
        <pt x="711" y="1533" on="0"/>
        <pt x="747" y="1533" on="1"/>
        <pt x="764" y="1533" on="1"/>
        <pt x="832" y="1533" on="0"/>
        <pt x="858" y="1516" on="1"/>
        <pt x="900" y="1490" on="0"/>
        <pt x="923" y="1433" on="1"/>
        <pt x="1466" y="71" on="1"/>
        <pt x="1469" y="63" on="0"/>
        <pt x="1469" y="34" on="0"/>
        <pt x="1445" y="0" on="0"/>
        <pt x="1417" y="0" on="1"/>
        <pt x="1277" y="0" on="1"/>
        <pt x="1231" y="0" on="0"/>
        <pt x="1213" y="43" on="1"/>
        <pt x="1089" y="368" on="1"/>
        <pt x="432" y="368" on="1"/>
        <pt x="317" y="43" on="1"/>
        <pt x="303" y="0" on="0"/>
        <pt x="256" y="0" on="1"/>
        <pt x="127" y="0" on="1"/>
      </contour>
      <contour>
        <pt x="1005" y="584" on="1"/>
        <pt x="766" y="1234" on="1"/>
        <pt x="763" y="1244" on="0"/>
        <pt x="745" y="1244" on="0"/>
        <pt x="742" y="1234" on="1"/>
        <pt x="510" y="584" on="1"/>
      </contour>
      <contour>
        <pt x="738" y="1426" on="1"/>
        <pt x="682" y="1426" on="0"/>
        <pt x="579" y="1467" on="0"/>
        <pt x="539" y="1504" on="1"/>
        <pt x="454" y="1584" on="0"/>
        <pt x="454" y="1704" on="1"/>
        <pt x="454" y="1824" on="0"/>
        <pt x="539" y="1904" on="1"/>
        <pt x="622" y="1980" on="0"/>
        <pt x="739" y="1980" on="1"/>
        <pt x="854" y="1980" on="0"/>
        <pt x="936" y="1904" on="1"/>
        <pt x="1022" y="1823" on="0"/>
        <pt x="1022" y="1704" on="1"/>
        <pt x="1022" y="1586" on="0"/>
        <pt x="936" y="1504" on="1"/>
        <pt x="854" y="1426" on="0"/>
      </contour>
      <contour>
        <pt x="673" y="1602" on="0"/>
        <pt x="716" y="1587" on="0"/>
        <pt x="761" y="1587" on="0"/>
        <pt x="804" y="1602" on="0"/>
        <pt x="821" y="1617" on="1"/>
        <pt x="859" y="1651" on="0"/>
        <pt x="859" y="1731" on="0"/>
        <pt x="838" y="1774" on="0"/>
        <pt x="821" y="1789" on="1"/>
        <pt x="787" y="1819" on="0"/>
        <pt x="716" y="1819" on="0"/>
        <pt x="673" y="1804" on="0"/>
        <pt x="655" y="1789" on="1"/>
        <pt x="617" y="1756" on="0"/>
        <pt x="617" y="1676" on="0"/>
        <pt x="638" y="1632" on="0"/>
      </contour>
    </TTGlyph>
    <TTGlyph name="Atilde" xMin="68" yMin="0" xMax="1469" yMax="1991">
      <contour>
        <pt x="98" y="0" on="0"/>
        <pt x="68" y="37" on="0"/>
        <pt x="68" y="64" on="0"/>
        <pt x="71" y="72" on="1"/>
        <pt x="576" y="1430" on="1"/>
        <pt x="610" y="1519" on="0"/>
        <pt x="685" y="1530" on="1"/>
        <pt x="711" y="1533" on="0"/>
        <pt x="747" y="1533" on="1"/>
        <pt x="764" y="1533" on="1"/>
        <pt x="832" y="1533" on="0"/>
        <pt x="858" y="1516" on="1"/>
        <pt x="900" y="1490" on="0"/>
        <pt x="923" y="1433" on="1"/>
        <pt x="1466" y="71" on="1"/>
        <pt x="1469" y="63" on="0"/>
        <pt x="1469" y="34" on="0"/>
        <pt x="1445" y="0" on="0"/>
        <pt x="1417" y="0" on="1"/>
        <pt x="1277" y="0" on="1"/>
        <pt x="1231" y="0" on="0"/>
        <pt x="1213" y="43" on="1"/>
        <pt x="1089" y="368" on="1"/>
        <pt x="432" y="368" on="1"/>
        <pt x="317" y="43" on="1"/>
        <pt x="303" y="0" on="0"/>
        <pt x="256" y="0" on="1"/>
        <pt x="127" y="0" on="1"/>
      </contour>
      <contour>
        <pt x="1005" y="584" on="1"/>
        <pt x="766" y="1234" on="1"/>
        <pt x="763" y="1244" on="0"/>
        <pt x="745" y="1244" on="0"/>
        <pt x="742" y="1234" on="1"/>
        <pt x="510" y="584" on="1"/>
      </contour>
      <contour>
        <pt x="388" y="1691" on="1"/>
        <pt x="345" y="1702" on="0"/>
        <pt x="366" y="1787" on="0"/>
        <pt x="406" y="1864" on="0"/>
        <pt x="436" y="1896" on="1"/>
        <pt x="502" y="1970" on="0"/>
        <pt x="585" y="1970" on="1"/>
        <pt x="654" y="1970" on="0"/>
        <pt x="738" y="1910" on="1"/>
        <pt x="798" y="1868" on="1"/>
        <pt x="825" y="1849" on="0"/>
        <pt x="865" y="1849" on="0"/>
        <pt x="889" y="1864" on="0"/>
        <pt x="898" y="1875" on="1"/>
        <pt x="918" y="1897" on="0"/>
        <pt x="932" y="1948" on="0"/>
        <pt x="954" y="1991" on="0"/>
        <pt x="988" y="1991" on="0"/>
        <pt x="999" y="1988" on="1"/>
        <pt x="1074" y="1969" on="1"/>
        <pt x="1108" y="1958" on="0"/>
        <pt x="1117" y="1930" on="0"/>
        <pt x="1106" y="1850" on="0"/>
        <pt x="1063" y="1761" on="0"/>
        <pt x="1032" y="1728" on="1"/>
        <pt x="963" y="1655" on="0"/>
        <pt x="878" y="1655" on="1"/>
        <pt x="801" y="1655" on="0"/>
        <pt x="716" y="1712" on="1"/>
        <pt x="658" y="1753" on="1"/>
        <pt x="589" y="1800" on="0"/>
        <pt x="542" y="1730" on="1"/>
        <pt x="533" y="1717" on="0"/>
        <pt x="522" y="1682" on="0"/>
        <pt x="485" y="1659" on="0"/>
        <pt x="456" y="1666" on="1"/>
      </contour>
    </TTGlyph>
    <TTGlyph name="B" xMin="238" yMin="0" xMax="1387" yMax="1533">
      <contour>
        <pt x="238" y="1447" on="1"/>
        <pt x="238" y="1506" on="0"/>
        <pt x="280" y="1526" on="1"/>
        <pt x="294" y="1533" on="0"/>
        <pt x="315" y="1533" on="1"/>
        <pt x="780" y="1533" on="1"/>
        <pt x="976" y="1533" on="0"/>
        <pt x="1114" y="1450" on="1"/>
        <pt x="1282" y="1351" on="0"/>
        <pt x="1282" y="1147" on="1"/>
        <pt x="1282" y="1008" on="0"/>
        <pt x="1202" y="915" on="1"/>
        <pt x="1130" y="833" on="0"/>
        <pt x="1018" y="811" on="1"/>
        <pt x="1018" y="807" on="1"/>
        <pt x="1171" y="800" on="0"/>
        <pt x="1272" y="718" on="1"/>
        <pt x="1387" y="622" on="0"/>
        <pt x="1387" y="460" on="1"/>
        <pt x="1387" y="224" on="0"/>
        <pt x="1214" y="105" on="1"/>
        <pt x="1063" y="0" on="0"/>
        <pt x="804" y="0" on="1"/>
        <pt x="315" y="0" on="1"/>
        <pt x="274" y="0" on="0"/>
        <pt x="238" y="51" on="0"/>
        <pt x="238" y="86" on="1"/>
      </contour>
      <contour>
        <pt x="486" y="881" on="1"/>
        <pt x="638" y="881" on="0"/>
        <pt x="729" y="887" on="1"/>
        <pt x="883" y="896" on="0"/>
        <pt x="1027" y="1015" on="0"/>
        <pt x="1027" y="1229" on="0"/>
        <pt x="874" y="1322" on="0"/>
        <pt x="722" y="1322" on="1"/>
        <pt x="486" y="1322" on="1"/>
      </contour>
      <contour>
        <pt x="802" y="213" on="1"/>
        <pt x="1022" y="213" on="0"/>
        <pt x="1094" y="338" on="1"/>
        <pt x="1121" y="384" on="0"/>
        <pt x="1121" y="508" on="0"/>
        <pt x="1087" y="582" on="0"/>
        <pt x="1029" y="634" on="0"/>
        <pt x="951" y="665" on="0"/>
        <pt x="908" y="674" on="1"/>
        <pt x="833" y="688" on="0"/>
        <pt x="758" y="688" on="1"/>
        <pt x="664" y="688" on="0"/>
        <pt x="559" y="683" on="1"/>
        <pt x="486" y="680" on="1"/>
        <pt x="487" y="213" on="1"/>
      </contour>
    </TTGlyph>
    <TTGlyph name="C" xMin="111" yMin="-25" xMax="1314" yMax="1560">
      <contour>
        <pt x="1314" y="1208" on="1"/>
        <pt x="1314" y="1084" on="0"/>
        <pt x="1204" y="1084" on="1"/>
        <pt x="1135" y="1084" on="1"/>
        <pt x="1103" y="1084" on="0"/>
        <pt x="1068" y="1131" on="0"/>
        <pt x="1063" y="1214" on="0"/>
        <pt x="1017" y="1283" on="0"/>
        <pt x="981" y="1304" on="1"/>
        <pt x="914" y="1343" on="0"/>
        <pt x="692" y="1343" on="0"/>
        <pt x="528" y="1250" on="0"/>
        <pt x="478" y="1172" on="1"/>
        <pt x="382" y="1026" on="0"/>
        <pt x="382" y="782" on="1"/>
        <pt x="382" y="343" on="0"/>
        <pt x="668" y="230" on="1"/>
        <pt x="756" y="196" on="0"/>
        <pt x="840" y="196" on="1"/>
        <pt x="992" y="196" on="0"/>
        <pt x="1108" y="251" on="1"/>
        <pt x="1164" y="277" on="1"/>
        <pt x="1191" y="289" on="0"/>
        <pt x="1233" y="289" on="0"/>
        <pt x="1259" y="269" on="0"/>
        <pt x="1298" y="194" on="0"/>
        <pt x="1298" y="139" on="0"/>
        <pt x="1260" y="86" on="0"/>
        <pt x="1232" y="66" on="1"/>
        <pt x="1183" y="34" on="0"/>
        <pt x="1114" y="13" on="1"/>
        <pt x="988" y="-25" on="0"/>
        <pt x="651" y="-25" on="0"/>
        <pt x="386" y="97" on="0"/>
        <pt x="296" y="205" on="1"/>
        <pt x="111" y="425" on="0"/>
        <pt x="111" y="782" on="1"/>
        <pt x="111" y="1134" on="0"/>
        <pt x="298" y="1344" on="1"/>
        <pt x="489" y="1560" on="0"/>
        <pt x="824" y="1560" on="1"/>
        <pt x="1008" y="1560" on="0"/>
        <pt x="1150" y="1478" on="1"/>
        <pt x="1314" y="1384" on="0"/>
      </contour>
    </TTGlyph>
    <TTGlyph name="Cacute" xMin="111" yMin="-25" xMax="1314" yMax="1992">
      <contour>
        <pt x="1314" y="1208" on="1"/>
        <pt x="1314" y="1084" on="0"/>
        <pt x="1204" y="1084" on="1"/>
        <pt x="1135" y="1084" on="1"/>
        <pt x="1103" y="1084" on="0"/>
        <pt x="1068" y="1131" on="0"/>
        <pt x="1063" y="1214" on="0"/>
        <pt x="1017" y="1283" on="0"/>
        <pt x="981" y="1304" on="1"/>
        <pt x="914" y="1343" on="0"/>
        <pt x="692" y="1343" on="0"/>
        <pt x="528" y="1250" on="0"/>
        <pt x="478" y="1172" on="1"/>
        <pt x="382" y="1026" on="0"/>
        <pt x="382" y="782" on="1"/>
        <pt x="382" y="343" on="0"/>
        <pt x="668" y="230" on="1"/>
        <pt x="756" y="196" on="0"/>
        <pt x="840" y="196" on="1"/>
        <pt x="992" y="196" on="0"/>
        <pt x="1108" y="251" on="1"/>
        <pt x="1164" y="277" on="1"/>
        <pt x="1191" y="289" on="0"/>
        <pt x="1233" y="289" on="0"/>
        <pt x="1259" y="269" on="0"/>
        <pt x="1298" y="194" on="0"/>
        <pt x="1298" y="139" on="0"/>
        <pt x="1260" y="86" on="0"/>
        <pt x="1232" y="66" on="1"/>
        <pt x="1183" y="34" on="0"/>
        <pt x="1114" y="13" on="1"/>
        <pt x="988" y="-25" on="0"/>
        <pt x="651" y="-25" on="0"/>
        <pt x="386" y="97" on="0"/>
        <pt x="296" y="205" on="1"/>
        <pt x="111" y="425" on="0"/>
        <pt x="111" y="782" on="1"/>
        <pt x="111" y="1134" on="0"/>
        <pt x="298" y="1344" on="1"/>
        <pt x="489" y="1560" on="0"/>
        <pt x="824" y="1560" on="1"/>
        <pt x="1008" y="1560" on="0"/>
        <pt x="1150" y="1478" on="1"/>
        <pt x="1314" y="1384" on="0"/>
      </contour>
      <contour>
        <pt x="738" y="1631" on="1"/>
        <pt x="698" y="1617" on="0"/>
        <pt x="681" y="1651" on="1"/>
        <pt x="650" y="1718" on="1"/>
        <pt x="635" y="1748" on="0"/>
        <pt x="665" y="1765" on="1"/>
        <pt x="1032" y="1976" on="1"/>
        <pt x="1056" y="1992" on="0"/>
        <pt x="1077" y="1992" on="1"/>
        <pt x="1117" y="1992" on="0"/>
        <pt x="1128" y="1966" on="1"/>
        <pt x="1182" y="1851" on="1"/>
        <pt x="1190" y="1835" on="0"/>
        <pt x="1190" y="1821" on="1"/>
        <pt x="1190" y="1784" on="0"/>
        <pt x="1147" y="1769" on="1"/>
      </contour>
    </TTGlyph>
    <TTGlyph name="Ccaron" xMin="111" yMin="-25" xMax="1314" yMax="1992">
      <contour>
        <pt x="1314" y="1208" on="1"/>
        <pt x="1314" y="1084" on="0"/>
        <pt x="1204" y="1084" on="1"/>
        <pt x="1135" y="1084" on="1"/>
        <pt x="1103" y="1084" on="0"/>
        <pt x="1068" y="1131" on="0"/>
        <pt x="1063" y="1214" on="0"/>
        <pt x="1017" y="1283" on="0"/>
        <pt x="981" y="1304" on="1"/>
        <pt x="914" y="1343" on="0"/>
        <pt x="692" y="1343" on="0"/>
        <pt x="528" y="1250" on="0"/>
        <pt x="478" y="1172" on="1"/>
        <pt x="382" y="1026" on="0"/>
        <pt x="382" y="782" on="1"/>
        <pt x="382" y="343" on="0"/>
        <pt x="668" y="230" on="1"/>
        <pt x="756" y="196" on="0"/>
        <pt x="840" y="196" on="1"/>
        <pt x="992" y="196" on="0"/>
        <pt x="1108" y="251" on="1"/>
        <pt x="1164" y="277" on="1"/>
        <pt x="1191" y="289" on="0"/>
        <pt x="1233" y="289" on="0"/>
        <pt x="1259" y="269" on="0"/>
        <pt x="1298" y="194" on="0"/>
        <pt x="1298" y="139" on="0"/>
        <pt x="1260" y="86" on="0"/>
        <pt x="1232" y="66" on="1"/>
        <pt x="1183" y="34" on="0"/>
        <pt x="1114" y="13" on="1"/>
        <pt x="988" y="-25" on="0"/>
        <pt x="651" y="-25" on="0"/>
        <pt x="386" y="97" on="0"/>
        <pt x="296" y="205" on="1"/>
        <pt x="111" y="425" on="0"/>
        <pt x="111" y="782" on="1"/>
        <pt x="111" y="1134" on="0"/>
        <pt x="298" y="1344" on="1"/>
        <pt x="489" y="1560" on="0"/>
        <pt x="824" y="1560" on="1"/>
        <pt x="1008" y="1560" on="0"/>
        <pt x="1150" y="1478" on="1"/>
        <pt x="1314" y="1384" on="0"/>
      </contour>
      <contour>
        <pt x="681" y="1658" on="1"/>
        <pt x="651" y="1658" on="0"/>
        <pt x="626" y="1681" on="1"/>
        <pt x="428" y="1859" on="1"/>
        <pt x="411" y="1873" on="0"/>
        <pt x="411" y="1909" on="0"/>
        <pt x="425" y="1924" on="1"/>
        <pt x="465" y="1968" on="1"/>
        <pt x="480" y="1984" on="0"/>
        <pt x="511" y="1984" on="0"/>
        <pt x="521" y="1977" on="1"/>
        <pt x="776" y="1811" on="1"/>
        <pt x="1024" y="1984" on="1"/>
        <pt x="1035" y="1992" on="0"/>
        <pt x="1065" y="1992" on="0"/>
        <pt x="1077" y="1979" on="1"/>
        <pt x="1130" y="1922" on="1"/>
        <pt x="1139" y="1911" on="0"/>
        <pt x="1139" y="1879" on="0"/>
        <pt x="1126" y="1868" on="1"/>
        <pt x="917" y="1681" on="1"/>
        <pt x="892" y="1658" on="0"/>
        <pt x="864" y="1658" on="1"/>
      </contour>
    </TTGlyph>
    <TTGlyph name="Ccedilla" xMin="111" yMin="-477" xMax="1314" yMax="1560">
      <contour>
        <pt x="885" y="-24" on="1"/>
        <pt x="1004" y="-127" on="0"/>
        <pt x="1004" y="-251" on="1"/>
        <pt x="1004" y="-349" on="0"/>
        <pt x="934" y="-412" on="1"/>
        <pt x="859" y="-477" on="0"/>
        <pt x="734" y="-477" on="1"/>
        <pt x="652" y="-477" on="0"/>
        <pt x="600" y="-455" on="1"/>
        <pt x="507" y="-416" on="0"/>
        <pt x="507" y="-368" on="1"/>
        <pt x="507" y="-357" on="0"/>
        <pt x="515" y="-339" on="0"/>
        <pt x="522" y="-320" on="1"/>
        <pt x="541" y="-271" on="0"/>
        <pt x="569" y="-271" on="1"/>
        <pt x="581" y="-271" on="0"/>
        <pt x="596" y="-276" on="1"/>
        <pt x="629" y="-286" on="1"/>
        <pt x="680" y="-302" on="0"/>
        <pt x="753" y="-302" on="0"/>
        <pt x="811" y="-248" on="0"/>
        <pt x="811" y="-174" on="0"/>
        <pt x="787" y="-120" on="0"/>
        <pt x="752" y="-72" on="0"/>
        <pt x="732" y="-52" on="1"/>
        <pt x="694" y="-15" on="1"/>
        <pt x="417" y="28" on="0"/>
        <pt x="261" y="248" on="1"/>
        <pt x="111" y="460" on="0"/>
        <pt x="111" y="782" on="1"/>
        <pt x="111" y="1134" on="0"/>
        <pt x="298" y="1344" on="1"/>
        <pt x="489" y="1560" on="0"/>
        <pt x="824" y="1560" on="1"/>
        <pt x="1008" y="1560" on="0"/>
        <pt x="1150" y="1478" on="1"/>
        <pt x="1314" y="1384" on="0"/>
        <pt x="1314" y="1208" on="1"/>
        <pt x="1314" y="1084" on="0"/>
        <pt x="1204" y="1084" on="1"/>
        <pt x="1135" y="1084" on="1"/>
        <pt x="1103" y="1084" on="0"/>
        <pt x="1068" y="1131" on="0"/>
        <pt x="1063" y="1214" on="0"/>
        <pt x="1017" y="1283" on="0"/>
        <pt x="981" y="1304" on="1"/>
        <pt x="914" y="1343" on="0"/>
        <pt x="692" y="1343" on="0"/>
        <pt x="528" y="1250" on="0"/>
        <pt x="478" y="1172" on="1"/>
        <pt x="382" y="1026" on="0"/>
        <pt x="382" y="782" on="1"/>
        <pt x="382" y="343" on="0"/>
        <pt x="668" y="230" on="1"/>
        <pt x="756" y="196" on="0"/>
        <pt x="840" y="196" on="1"/>
        <pt x="992" y="196" on="0"/>
        <pt x="1108" y="251" on="1"/>
        <pt x="1164" y="277" on="1"/>
        <pt x="1191" y="289" on="0"/>
        <pt x="1233" y="289" on="0"/>
        <pt x="1259" y="269" on="0"/>
        <pt x="1298" y="194" on="0"/>
        <pt x="1298" y="139" on="0"/>
        <pt x="1260" y="86" on="0"/>
        <pt x="1232" y="66" on="1"/>
        <pt x="1183" y="34" on="0"/>
        <pt x="1120" y="15" on="1"/>
        <pt x="1010" y="-18" on="0"/>
      </contour>
    </TTGlyph>
    <TTGlyph name="Ccircumflex" xMin="111" yMin="-25" xMax="1314" yMax="1982">
      <contour>
        <pt x="1314" y="1208" on="1"/>
        <pt x="1314" y="1084" on="0"/>
        <pt x="1204" y="1084" on="1"/>
        <pt x="1135" y="1084" on="1"/>
        <pt x="1103" y="1084" on="0"/>
        <pt x="1068" y="1131" on="0"/>
        <pt x="1063" y="1214" on="0"/>
        <pt x="1017" y="1283" on="0"/>
        <pt x="981" y="1304" on="1"/>
        <pt x="914" y="1343" on="0"/>
        <pt x="692" y="1343" on="0"/>
        <pt x="528" y="1250" on="0"/>
        <pt x="478" y="1172" on="1"/>
        <pt x="382" y="1026" on="0"/>
        <pt x="382" y="782" on="1"/>
        <pt x="382" y="343" on="0"/>
        <pt x="668" y="230" on="1"/>
        <pt x="756" y="196" on="0"/>
        <pt x="840" y="196" on="1"/>
        <pt x="992" y="196" on="0"/>
        <pt x="1108" y="251" on="1"/>
        <pt x="1164" y="277" on="1"/>
        <pt x="1191" y="289" on="0"/>
        <pt x="1233" y="289" on="0"/>
        <pt x="1259" y="269" on="0"/>
        <pt x="1298" y="194" on="0"/>
        <pt x="1298" y="139" on="0"/>
        <pt x="1260" y="86" on="0"/>
        <pt x="1232" y="66" on="1"/>
        <pt x="1183" y="34" on="0"/>
        <pt x="1114" y="13" on="1"/>
        <pt x="988" y="-25" on="0"/>
        <pt x="651" y="-25" on="0"/>
        <pt x="386" y="97" on="0"/>
        <pt x="296" y="205" on="1"/>
        <pt x="111" y="425" on="0"/>
        <pt x="111" y="782" on="1"/>
        <pt x="111" y="1134" on="0"/>
        <pt x="298" y="1344" on="1"/>
        <pt x="489" y="1560" on="0"/>
        <pt x="824" y="1560" on="1"/>
        <pt x="1008" y="1560" on="0"/>
        <pt x="1150" y="1478" on="1"/>
        <pt x="1314" y="1384" on="0"/>
      </contour>
      <contour>
        <pt x="546" y="1663" on="1"/>
        <pt x="535" y="1655" on="0"/>
        <pt x="505" y="1655" on="0"/>
        <pt x="493" y="1668" on="1"/>
        <pt x="440" y="1725" on="1"/>
        <pt x="431" y="1735" on="0"/>
        <pt x="431" y="1768" on="0"/>
        <pt x="444" y="1779" on="1"/>
        <pt x="644" y="1959" on="1"/>
        <pt x="669" y="1982" on="0"/>
        <pt x="697" y="1982" on="1"/>
        <pt x="880" y="1982" on="1"/>
        <pt x="910" y="1982" on="0"/>
        <pt x="935" y="1959" on="1"/>
        <pt x="1133" y="1781" on="1"/>
        <pt x="1150" y="1768" on="0"/>
        <pt x="1150" y="1731" on="0"/>
        <pt x="1136" y="1716" on="1"/>
        <pt x="1096" y="1672" on="1"/>
        <pt x="1081" y="1656" on="0"/>
        <pt x="1050" y="1656" on="0"/>
        <pt x="1040" y="1663" on="1"/>
        <pt x="787" y="1829" on="1"/>
      </contour>
    </TTGlyph>
    <TTGlyph name="Cdotaccent" xMin="111" yMin="-25" xMax="1314" yMax="1992">
      <contour>
        <pt x="1314" y="1208" on="1"/>
        <pt x="1314" y="1084" on="0"/>
        <pt x="1204" y="1084" on="1"/>
        <pt x="1135" y="1084" on="1"/>
        <pt x="1103" y="1084" on="0"/>
        <pt x="1068" y="1131" on="0"/>
        <pt x="1063" y="1214" on="0"/>
        <pt x="1017" y="1283" on="0"/>
        <pt x="981" y="1304" on="1"/>
        <pt x="914" y="1343" on="0"/>
        <pt x="692" y="1343" on="0"/>
        <pt x="528" y="1250" on="0"/>
        <pt x="478" y="1172" on="1"/>
        <pt x="382" y="1026" on="0"/>
        <pt x="382" y="782" on="1"/>
        <pt x="382" y="343" on="0"/>
        <pt x="668" y="230" on="1"/>
        <pt x="756" y="196" on="0"/>
        <pt x="840" y="196" on="1"/>
        <pt x="992" y="196" on="0"/>
        <pt x="1108" y="251" on="1"/>
        <pt x="1164" y="277" on="1"/>
        <pt x="1191" y="289" on="0"/>
        <pt x="1233" y="289" on="0"/>
        <pt x="1259" y="269" on="0"/>
        <pt x="1298" y="194" on="0"/>
        <pt x="1298" y="139" on="0"/>
        <pt x="1260" y="86" on="0"/>
        <pt x="1232" y="66" on="1"/>
        <pt x="1183" y="34" on="0"/>
        <pt x="1114" y="13" on="1"/>
        <pt x="988" y="-25" on="0"/>
        <pt x="651" y="-25" on="0"/>
        <pt x="386" y="97" on="0"/>
        <pt x="296" y="205" on="1"/>
        <pt x="111" y="425" on="0"/>
        <pt x="111" y="782" on="1"/>
        <pt x="111" y="1134" on="0"/>
        <pt x="298" y="1344" on="1"/>
        <pt x="489" y="1560" on="0"/>
        <pt x="824" y="1560" on="1"/>
        <pt x="1008" y="1560" on="0"/>
        <pt x="1150" y="1478" on="1"/>
        <pt x="1314" y="1384" on="0"/>
      </contour>
      <contour>
        <pt x="789" y="1667" on="1"/>
        <pt x="721" y="1667" on="0"/>
        <pt x="673" y="1714" on="1"/>
        <pt x="625" y="1760" on="0"/>
        <pt x="625" y="1830" on="1"/>
        <pt x="625" y="1898" on="0"/>
        <pt x="673" y="1946" on="1"/>
        <pt x="719" y="1992" on="0"/>
        <pt x="789" y="1992" on="1"/>
        <pt x="896" y="1992" on="0"/>
        <pt x="939" y="1894" on="1"/>
        <pt x="952" y="1865" on="0"/>
        <pt x="952" y="1830" on="1"/>
        <pt x="952" y="1760" on="0"/>
        <pt x="904" y="1714" on="1"/>
        <pt x="856" y="1667" on="0"/>
      </contour>
    </TTGlyph>
    <TTGlyph name="D" xMin="238" yMin="0" xMax="1430" yMax="1533">
      <contour>
        <pt x="238" y="1446" on="1"/>
        <pt x="238" y="1481" on="0"/>
        <pt x="285" y="1533" on="0"/>
        <pt x="327" y="1533" on="1"/>
        <pt x="644" y="1533" on="1"/>
        <pt x="1040" y="1533" on="0"/>
        <pt x="1240" y="1337" on="1"/>
        <pt x="1430" y="1149" on="0"/>
        <pt x="1430" y="800" on="1"/>
        <pt x="1430" y="427" on="0"/>
        <pt x="1003" y="0" on="0"/>
        <pt x="626" y="0" on="1"/>
        <pt x="327" y="0" on="1"/>
        <pt x="285" y="0" on="0"/>
        <pt x="238" y="53" on="0"/>
        <pt x="238" y="88" on="1"/>
      </contour>
      <contour>
        <pt x="674" y="1313" on="1"/>
        <pt x="624" y="1313" on="1"/>
        <pt x="591" y="1313" on="0"/>
        <pt x="489" y="1310" on="1"/>
        <pt x="489" y="221" on="1"/>
        <pt x="652" y="218" on="1"/>
        <pt x="658" y="218" on="1"/>
        <pt x="1045" y="218" on="0"/>
        <pt x="1134" y="552" on="1"/>
        <pt x="1163" y="660" on="0"/>
        <pt x="1163" y="923" on="0"/>
        <pt x="1100" y="1114" on="0"/>
        <pt x="1038" y="1180" on="1"/>
        <pt x="913" y="1313" on="0"/>
      </contour>
    </TTGlyph>
    <TTGlyph name="Dcaron" xMin="238" yMin="0" xMax="1430" yMax="1992">
      <contour>
        <pt x="238" y="1446" on="1"/>
        <pt x="238" y="1481" on="0"/>
        <pt x="285" y="1533" on="0"/>
        <pt x="327" y="1533" on="1"/>
        <pt x="644" y="1533" on="1"/>
        <pt x="1040" y="1533" on="0"/>
        <pt x="1240" y="1337" on="1"/>
        <pt x="1430" y="1149" on="0"/>
        <pt x="1430" y="800" on="1"/>
        <pt x="1430" y="427" on="0"/>
        <pt x="1003" y="0" on="0"/>
        <pt x="626" y="0" on="1"/>
        <pt x="327" y="0" on="1"/>
        <pt x="285" y="0" on="0"/>
        <pt x="238" y="53" on="0"/>
        <pt x="238" y="88" on="1"/>
      </contour>
      <contour>
        <pt x="674" y="1313" on="1"/>
        <pt x="624" y="1313" on="1"/>
        <pt x="591" y="1313" on="0"/>
        <pt x="489" y="1310" on="1"/>
        <pt x="489" y="221" on="1"/>
        <pt x="652" y="218" on="1"/>
        <pt x="658" y="218" on="1"/>
        <pt x="1045" y="218" on="0"/>
        <pt x="1134" y="552" on="1"/>
        <pt x="1163" y="660" on="0"/>
        <pt x="1163" y="923" on="0"/>
        <pt x="1100" y="1114" on="0"/>
        <pt x="1038" y="1180" on="1"/>
        <pt x="913" y="1313" on="0"/>
      </contour>
      <contour>
        <pt x="644" y="1658" on="1"/>
        <pt x="614" y="1658" on="0"/>
        <pt x="589" y="1681" on="1"/>
        <pt x="391" y="1859" on="1"/>
        <pt x="374" y="1873" on="0"/>
        <pt x="374" y="1909" on="0"/>
        <pt x="388" y="1924" on="1"/>
        <pt x="428" y="1968" on="1"/>
        <pt x="443" y="1984" on="0"/>
        <pt x="474" y="1984" on="0"/>
        <pt x="484" y="1977" on="1"/>
        <pt x="739" y="1811" on="1"/>
        <pt x="987" y="1984" on="1"/>
        <pt x="998" y="1992" on="0"/>
        <pt x="1028" y="1992" on="0"/>
        <pt x="1040" y="1979" on="1"/>
        <pt x="1093" y="1922" on="1"/>
        <pt x="1102" y="1911" on="0"/>
        <pt x="1102" y="1879" on="0"/>
        <pt x="1089" y="1868" on="1"/>
        <pt x="880" y="1681" on="1"/>
        <pt x="855" y="1658" on="0"/>
        <pt x="827" y="1658" on="1"/>
      </contour>
    </TTGlyph>
    <TTGlyph name="Dcroat" xMin="49" yMin="0" xMax="1430" yMax="1533">
      <contour>
        <pt x="238" y="656" on="1"/>
        <pt x="92" y="656" on="1"/>
        <pt x="75" y="656" on="0"/>
        <pt x="49" y="677" on="0"/>
        <pt x="49" y="694" on="1"/>
        <pt x="49" y="828" on="1"/>
        <pt x="49" y="844" on="0"/>
        <pt x="75" y="865" on="0"/>
        <pt x="92" y="865" on="1"/>
        <pt x="238" y="865" on="1"/>
        <pt x="238" y="1446" on="1"/>
        <pt x="238" y="1481" on="0"/>
        <pt x="285" y="1533" on="0"/>
        <pt x="327" y="1533" on="1"/>
        <pt x="644" y="1533" on="1"/>
        <pt x="1040" y="1533" on="0"/>
        <pt x="1240" y="1337" on="1"/>
        <pt x="1430" y="1149" on="0"/>
        <pt x="1430" y="800" on="1"/>
        <pt x="1430" y="427" on="0"/>
        <pt x="1003" y="0" on="0"/>
        <pt x="626" y="0" on="1"/>
        <pt x="327" y="0" on="1"/>
        <pt x="285" y="0" on="0"/>
        <pt x="238" y="53" on="0"/>
        <pt x="238" y="88" on="1"/>
      </contour>
      <contour>
        <pt x="674" y="1313" on="1"/>
        <pt x="624" y="1313" on="1"/>
        <pt x="591" y="1313" on="0"/>
        <pt x="489" y="1310" on="1"/>
        <pt x="489" y="865" on="1"/>
        <pt x="783" y="865" on="1"/>
        <pt x="801" y="865" on="0"/>
        <pt x="827" y="844" on="0"/>
        <pt x="827" y="827" on="1"/>
        <pt x="827" y="704" on="1"/>
        <pt x="827" y="680" on="0"/>
        <pt x="801" y="656" on="0"/>
        <pt x="783" y="656" on="1"/>
        <pt x="489" y="656" on="1"/>
        <pt x="489" y="221" on="1"/>
        <pt x="652" y="218" on="1"/>
        <pt x="658" y="218" on="1"/>
        <pt x="1045" y="218" on="0"/>
        <pt x="1134" y="552" on="1"/>
        <pt x="1163" y="660" on="0"/>
        <pt x="1163" y="923" on="0"/>
        <pt x="1100" y="1114" on="0"/>
        <pt x="1038" y="1180" on="1"/>
        <pt x="913" y="1313" on="0"/>
      </contour>
    </TTGlyph>
    <TTGlyph name="Delta" xMin="56" yMin="0" xMax="1480" yMax="1533">
      <contour>
        <pt x="86" y="0" on="0"/>
        <pt x="56" y="37" on="0"/>
        <pt x="56" y="64" on="0"/>
        <pt x="59" y="72" on="1"/>
        <pt x="579" y="1430" on="1"/>
        <pt x="604" y="1496" on="0"/>
        <pt x="628" y="1511" on="1"/>
        <pt x="663" y="1533" on="0"/>
        <pt x="776" y="1533" on="0"/>
        <pt x="824" y="1529" on="0"/>
        <pt x="841" y="1520" on="1"/>
        <pt x="871" y="1503" on="0"/>
        <pt x="901" y="1433" on="1"/>
        <pt x="1477" y="71" on="1"/>
        <pt x="1480" y="63" on="0"/>
        <pt x="1480" y="34" on="0"/>
        <pt x="1456" y="0" on="0"/>
        <pt x="1428" y="0" on="1"/>
        <pt x="115" y="0" on="1"/>
      </contour>
      <contour>
        <pt x="1156" y="217" on="1"/>
        <pt x="755" y="1241" on="1"/>
        <pt x="751" y="1251" on="0"/>
        <pt x="742" y="1251" on="1"/>
        <pt x="728" y="1251" on="0"/>
        <pt x="724" y="1241" on="1"/>
        <pt x="368" y="217" on="1"/>
      </contour>
    </TTGlyph>
    <TTGlyph name="E" xMin="234" yMin="0" xMax="1227" yMax="1533">
      <contour>
        <pt x="234" y="1469" on="1"/>
        <pt x="234" y="1495" on="0"/>
        <pt x="267" y="1533" on="0"/>
        <pt x="290" y="1533" on="1"/>
        <pt x="1169" y="1533" on="1"/>
        <pt x="1195" y="1533" on="0"/>
        <pt x="1222" y="1500" on="0"/>
        <pt x="1222" y="1476" on="1"/>
        <pt x="1222" y="1368" on="1"/>
        <pt x="1222" y="1345" on="0"/>
        <pt x="1195" y="1312" on="0"/>
        <pt x="1169" y="1312" on="1"/>
        <pt x="485" y="1312" on="1"/>
        <pt x="485" y="874" on="1"/>
        <pt x="1029" y="874" on="1"/>
        <pt x="1055" y="874" on="0"/>
        <pt x="1082" y="841" on="0"/>
        <pt x="1082" y="817" on="1"/>
        <pt x="1082" y="709" on="1"/>
        <pt x="1082" y="686" on="0"/>
        <pt x="1055" y="653" on="0"/>
        <pt x="1029" y="653" on="1"/>
        <pt x="485" y="653" on="1"/>
        <pt x="485" y="221" on="1"/>
        <pt x="1174" y="221" on="1"/>
        <pt x="1200" y="221" on="0"/>
        <pt x="1227" y="188" on="0"/>
        <pt x="1227" y="164" on="1"/>
        <pt x="1227" y="56" on="1"/>
        <pt x="1227" y="33" on="0"/>
        <pt x="1200" y="0" on="0"/>
        <pt x="1174" y="0" on="1"/>
        <pt x="289" y="0" on="1"/>
        <pt x="266" y="0" on="0"/>
        <pt x="234" y="38" on="0"/>
        <pt x="234" y="64" on="1"/>
      </contour>
    </TTGlyph>
    <TTGlyph name="Eacute" xMin="234" yMin="0" xMax="1227" yMax="1992">
      <contour>
        <pt x="234" y="1469" on="1"/>
        <pt x="234" y="1495" on="0"/>
        <pt x="267" y="1533" on="0"/>
        <pt x="290" y="1533" on="1"/>
        <pt x="1169" y="1533" on="1"/>
        <pt x="1195" y="1533" on="0"/>
        <pt x="1222" y="1500" on="0"/>
        <pt x="1222" y="1476" on="1"/>
        <pt x="1222" y="1368" on="1"/>
        <pt x="1222" y="1345" on="0"/>
        <pt x="1195" y="1312" on="0"/>
        <pt x="1169" y="1312" on="1"/>
        <pt x="485" y="1312" on="1"/>
        <pt x="485" y="874" on="1"/>
        <pt x="1029" y="874" on="1"/>
        <pt x="1055" y="874" on="0"/>
        <pt x="1082" y="841" on="0"/>
        <pt x="1082" y="817" on="1"/>
        <pt x="1082" y="709" on="1"/>
        <pt x="1082" y="686" on="0"/>
        <pt x="1055" y="653" on="0"/>
        <pt x="1029" y="653" on="1"/>
        <pt x="485" y="653" on="1"/>
        <pt x="485" y="221" on="1"/>
        <pt x="1174" y="221" on="1"/>
        <pt x="1200" y="221" on="0"/>
        <pt x="1227" y="188" on="0"/>
        <pt x="1227" y="164" on="1"/>
        <pt x="1227" y="56" on="1"/>
        <pt x="1227" y="33" on="0"/>
        <pt x="1200" y="0" on="0"/>
        <pt x="1174" y="0" on="1"/>
        <pt x="289" y="0" on="1"/>
        <pt x="266" y="0" on="0"/>
        <pt x="234" y="38" on="0"/>
        <pt x="234" y="64" on="1"/>
      </contour>
      <contour>
        <pt x="650" y="1631" on="1"/>
        <pt x="610" y="1617" on="0"/>
        <pt x="593" y="1651" on="1"/>
        <pt x="562" y="1718" on="1"/>
        <pt x="547" y="1748" on="0"/>
        <pt x="577" y="1765" on="1"/>
        <pt x="944" y="1976" on="1"/>
        <pt x="968" y="1992" on="0"/>
        <pt x="989" y="1992" on="1"/>
        <pt x="1029" y="1992" on="0"/>
        <pt x="1040" y="1966" on="1"/>
        <pt x="1094" y="1851" on="1"/>
        <pt x="1102" y="1835" on="0"/>
        <pt x="1102" y="1821" on="1"/>
        <pt x="1102" y="1784" on="0"/>
        <pt x="1059" y="1769" on="1"/>
      </contour>
    </TTGlyph>
    <TTGlyph name="Ebreve" xMin="234" yMin="0" xMax="1227" yMax="1994">
      <contour>
        <pt x="234" y="1469" on="1"/>
        <pt x="234" y="1495" on="0"/>
        <pt x="267" y="1533" on="0"/>
        <pt x="290" y="1533" on="1"/>
        <pt x="1169" y="1533" on="1"/>
        <pt x="1195" y="1533" on="0"/>
        <pt x="1222" y="1500" on="0"/>
        <pt x="1222" y="1476" on="1"/>
        <pt x="1222" y="1368" on="1"/>
        <pt x="1222" y="1345" on="0"/>
        <pt x="1195" y="1312" on="0"/>
        <pt x="1169" y="1312" on="1"/>
        <pt x="485" y="1312" on="1"/>
        <pt x="485" y="874" on="1"/>
        <pt x="1029" y="874" on="1"/>
        <pt x="1055" y="874" on="0"/>
        <pt x="1082" y="841" on="0"/>
        <pt x="1082" y="817" on="1"/>
        <pt x="1082" y="709" on="1"/>
        <pt x="1082" y="686" on="0"/>
        <pt x="1055" y="653" on="0"/>
        <pt x="1029" y="653" on="1"/>
        <pt x="485" y="653" on="1"/>
        <pt x="485" y="221" on="1"/>
        <pt x="1174" y="221" on="1"/>
        <pt x="1200" y="221" on="0"/>
        <pt x="1227" y="188" on="0"/>
        <pt x="1227" y="164" on="1"/>
        <pt x="1227" y="56" on="1"/>
        <pt x="1227" y="33" on="0"/>
        <pt x="1200" y="0" on="0"/>
        <pt x="1174" y="0" on="1"/>
        <pt x="289" y="0" on="1"/>
        <pt x="266" y="0" on="0"/>
        <pt x="234" y="38" on="0"/>
        <pt x="234" y="64" on="1"/>
      </contour>
      <contour>
        <pt x="737" y="1662" on="1"/>
        <pt x="664" y="1662" on="0"/>
        <pt x="539" y="1705" on="0"/>
        <pt x="492" y="1743" on="1"/>
        <pt x="390" y="1825" on="0"/>
        <pt x="390" y="1949" on="1"/>
        <pt x="390" y="1983" on="0"/>
        <pt x="443" y="1986" on="1"/>
        <pt x="551" y="1991" on="1"/>
        <pt x="588" y="1994" on="0"/>
        <pt x="591" y="1960" on="1"/>
        <pt x="596" y="1886" on="0"/>
        <pt x="648" y="1854" on="1"/>
        <pt x="683" y="1832" on="0"/>
        <pt x="734" y="1832" on="1"/>
        <pt x="823" y="1832" on="0"/>
        <pt x="860" y="1886" on="1"/>
        <pt x="876" y="1910" on="0"/>
        <pt x="880" y="1943" on="1"/>
        <pt x="885" y="1994" on="0"/>
        <pt x="934" y="1991" on="1"/>
        <pt x="1028" y="1986" on="1"/>
        <pt x="1077" y="1982" on="0"/>
        <pt x="1077" y="1944" on="1"/>
        <pt x="1077" y="1827" on="0"/>
        <pt x="982" y="1746" on="1"/>
        <pt x="884" y="1662" on="0"/>
      </contour>
    </TTGlyph>
    <TTGlyph name="Ecaron" xMin="234" yMin="0" xMax="1227" yMax="1992">
      <contour>
        <pt x="234" y="1469" on="1"/>
        <pt x="234" y="1495" on="0"/>
        <pt x="267" y="1533" on="0"/>
        <pt x="290" y="1533" on="1"/>
        <pt x="1169" y="1533" on="1"/>
        <pt x="1195" y="1533" on="0"/>
        <pt x="1222" y="1500" on="0"/>
        <pt x="1222" y="1476" on="1"/>
        <pt x="1222" y="1368" on="1"/>
        <pt x="1222" y="1345" on="0"/>
        <pt x="1195" y="1312" on="0"/>
        <pt x="1169" y="1312" on="1"/>
        <pt x="485" y="1312" on="1"/>
        <pt x="485" y="874" on="1"/>
        <pt x="1029" y="874" on="1"/>
        <pt x="1055" y="874" on="0"/>
        <pt x="1082" y="841" on="0"/>
        <pt x="1082" y="817" on="1"/>
        <pt x="1082" y="709" on="1"/>
        <pt x="1082" y="686" on="0"/>
        <pt x="1055" y="653" on="0"/>
        <pt x="1029" y="653" on="1"/>
        <pt x="485" y="653" on="1"/>
        <pt x="485" y="221" on="1"/>
        <pt x="1174" y="221" on="1"/>
        <pt x="1200" y="221" on="0"/>
        <pt x="1227" y="188" on="0"/>
        <pt x="1227" y="164" on="1"/>
        <pt x="1227" y="56" on="1"/>
        <pt x="1227" y="33" on="0"/>
        <pt x="1200" y="0" on="0"/>
        <pt x="1174" y="0" on="1"/>
        <pt x="289" y="0" on="1"/>
        <pt x="266" y="0" on="0"/>
        <pt x="234" y="38" on="0"/>
        <pt x="234" y="64" on="1"/>
      </contour>
      <contour>
        <pt x="640" y="1658" on="1"/>
        <pt x="610" y="1658" on="0"/>
        <pt x="585" y="1681" on="1"/>
        <pt x="387" y="1859" on="1"/>
        <pt x="370" y="1873" on="0"/>
        <pt x="370" y="1909" on="0"/>
        <pt x="384" y="1924" on="1"/>
        <pt x="424" y="1968" on="1"/>
        <pt x="439" y="1984" on="0"/>
        <pt x="470" y="1984" on="0"/>
        <pt x="480" y="1977" on="1"/>
        <pt x="735" y="1811" on="1"/>
        <pt x="983" y="1984" on="1"/>
        <pt x="994" y="1992" on="0"/>
        <pt x="1024" y="1992" on="0"/>
        <pt x="1036" y="1979" on="1"/>
        <pt x="1089" y="1922" on="1"/>
        <pt x="1098" y="1911" on="0"/>
        <pt x="1098" y="1879" on="0"/>
        <pt x="1085" y="1868" on="1"/>
        <pt x="876" y="1681" on="1"/>
        <pt x="851" y="1658" on="0"/>
        <pt x="823" y="1658" on="1"/>
      </contour>
    </TTGlyph>
    <TTGlyph name="Ecircumflex" xMin="234" yMin="0" xMax="1227" yMax="1982">
      <contour>
        <pt x="234" y="1469" on="1"/>
        <pt x="234" y="1495" on="0"/>
        <pt x="267" y="1533" on="0"/>
        <pt x="290" y="1533" on="1"/>
        <pt x="1169" y="1533" on="1"/>
        <pt x="1195" y="1533" on="0"/>
        <pt x="1222" y="1500" on="0"/>
        <pt x="1222" y="1476" on="1"/>
        <pt x="1222" y="1368" on="1"/>
        <pt x="1222" y="1345" on="0"/>
        <pt x="1195" y="1312" on="0"/>
        <pt x="1169" y="1312" on="1"/>
        <pt x="485" y="1312" on="1"/>
        <pt x="485" y="874" on="1"/>
        <pt x="1029" y="874" on="1"/>
        <pt x="1055" y="874" on="0"/>
        <pt x="1082" y="841" on="0"/>
        <pt x="1082" y="817" on="1"/>
        <pt x="1082" y="709" on="1"/>
        <pt x="1082" y="686" on="0"/>
        <pt x="1055" y="653" on="0"/>
        <pt x="1029" y="653" on="1"/>
        <pt x="485" y="653" on="1"/>
        <pt x="485" y="221" on="1"/>
        <pt x="1174" y="221" on="1"/>
        <pt x="1200" y="221" on="0"/>
        <pt x="1227" y="188" on="0"/>
        <pt x="1227" y="164" on="1"/>
        <pt x="1227" y="56" on="1"/>
        <pt x="1227" y="33" on="0"/>
        <pt x="1200" y="0" on="0"/>
        <pt x="1174" y="0" on="1"/>
        <pt x="289" y="0" on="1"/>
        <pt x="266" y="0" on="0"/>
        <pt x="234" y="38" on="0"/>
        <pt x="234" y="64" on="1"/>
      </contour>
      <contour>
        <pt x="481" y="1663" on="1"/>
        <pt x="470" y="1655" on="0"/>
        <pt x="440" y="1655" on="0"/>
        <pt x="428" y="1668" on="1"/>
        <pt x="375" y="1725" on="1"/>
        <pt x="366" y="1735" on="0"/>
        <pt x="366" y="1768" on="0"/>
        <pt x="379" y="1779" on="1"/>
        <pt x="579" y="1959" on="1"/>
        <pt x="604" y="1982" on="0"/>
        <pt x="632" y="1982" on="1"/>
        <pt x="815" y="1982" on="1"/>
        <pt x="845" y="1982" on="0"/>
        <pt x="870" y="1959" on="1"/>
        <pt x="1068" y="1781" on="1"/>
        <pt x="1085" y="1768" on="0"/>
        <pt x="1085" y="1731" on="0"/>
        <pt x="1071" y="1716" on="1"/>
        <pt x="1031" y="1672" on="1"/>
        <pt x="1016" y="1656" on="0"/>
        <pt x="985" y="1656" on="0"/>
        <pt x="975" y="1663" on="1"/>
        <pt x="722" y="1829" on="1"/>
      </contour>
    </TTGlyph>
    <TTGlyph name="Edieresis" xMin="234" yMin="0" xMax="1227" yMax="1972">
      <contour>
        <pt x="234" y="1469" on="1"/>
        <pt x="234" y="1495" on="0"/>
        <pt x="267" y="1533" on="0"/>
        <pt x="290" y="1533" on="1"/>
        <pt x="1169" y="1533" on="1"/>
        <pt x="1195" y="1533" on="0"/>
        <pt x="1222" y="1500" on="0"/>
        <pt x="1222" y="1476" on="1"/>
        <pt x="1222" y="1368" on="1"/>
        <pt x="1222" y="1345" on="0"/>
        <pt x="1195" y="1312" on="0"/>
        <pt x="1169" y="1312" on="1"/>
        <pt x="485" y="1312" on="1"/>
        <pt x="485" y="874" on="1"/>
        <pt x="1029" y="874" on="1"/>
        <pt x="1055" y="874" on="0"/>
        <pt x="1082" y="841" on="0"/>
        <pt x="1082" y="817" on="1"/>
        <pt x="1082" y="709" on="1"/>
        <pt x="1082" y="686" on="0"/>
        <pt x="1055" y="653" on="0"/>
        <pt x="1029" y="653" on="1"/>
        <pt x="485" y="653" on="1"/>
        <pt x="485" y="221" on="1"/>
        <pt x="1174" y="221" on="1"/>
        <pt x="1200" y="221" on="0"/>
        <pt x="1227" y="188" on="0"/>
        <pt x="1227" y="164" on="1"/>
        <pt x="1227" y="56" on="1"/>
        <pt x="1227" y="33" on="0"/>
        <pt x="1200" y="0" on="0"/>
        <pt x="1174" y="0" on="1"/>
        <pt x="289" y="0" on="1"/>
        <pt x="266" y="0" on="0"/>
        <pt x="234" y="38" on="0"/>
        <pt x="234" y="64" on="1"/>
      </contour>
      <contour>
        <pt x="985" y="1668" on="1"/>
        <pt x="924" y="1668" on="0"/>
        <pt x="879" y="1712" on="1"/>
        <pt x="836" y="1756" on="0"/>
        <pt x="836" y="1821" on="1"/>
        <pt x="836" y="1920" on="0"/>
        <pt x="927" y="1960" on="1"/>
        <pt x="954" y="1972" on="0"/>
        <pt x="985" y="1972" on="1"/>
        <pt x="1046" y="1972" on="0"/>
        <pt x="1134" y="1884" on="0"/>
        <pt x="1134" y="1789" on="0"/>
        <pt x="1110" y="1733" on="0"/>
        <pt x="1090" y="1712" on="1"/>
        <pt x="1047" y="1668" on="0"/>
      </contour>
      <contour>
        <pt x="564" y="1692" on="0"/>
        <pt x="511" y="1668" on="0"/>
        <pt x="449" y="1668" on="0"/>
        <pt x="394" y="1692" on="0"/>
        <pt x="374" y="1712" on="1"/>
        <pt x="330" y="1758" on="0"/>
        <pt x="330" y="1852" on="0"/>
        <pt x="354" y="1908" on="0"/>
        <pt x="374" y="1928" on="1"/>
        <pt x="418" y="1972" on="0"/>
        <pt x="481" y="1972" on="1"/>
        <pt x="539" y="1972" on="0"/>
        <pt x="585" y="1928" on="1"/>
        <pt x="628" y="1886" on="0"/>
        <pt x="628" y="1789" on="0"/>
        <pt x="605" y="1733" on="0"/>
      </contour>
    </TTGlyph>
    <TTGlyph name="Edotaccent" xMin="234" yMin="0" xMax="1227" yMax="1992">
      <contour>
        <pt x="234" y="1469" on="1"/>
        <pt x="234" y="1495" on="0"/>
        <pt x="267" y="1533" on="0"/>
        <pt x="290" y="1533" on="1"/>
        <pt x="1169" y="1533" on="1"/>
        <pt x="1195" y="1533" on="0"/>
        <pt x="1222" y="1500" on="0"/>
        <pt x="1222" y="1476" on="1"/>
        <pt x="1222" y="1368" on="1"/>
        <pt x="1222" y="1345" on="0"/>
        <pt x="1195" y="1312" on="0"/>
        <pt x="1169" y="1312" on="1"/>
        <pt x="485" y="1312" on="1"/>
        <pt x="485" y="874" on="1"/>
        <pt x="1029" y="874" on="1"/>
        <pt x="1055" y="874" on="0"/>
        <pt x="1082" y="841" on="0"/>
        <pt x="1082" y="817" on="1"/>
        <pt x="1082" y="709" on="1"/>
        <pt x="1082" y="686" on="0"/>
        <pt x="1055" y="653" on="0"/>
        <pt x="1029" y="653" on="1"/>
        <pt x="485" y="653" on="1"/>
        <pt x="485" y="221" on="1"/>
        <pt x="1174" y="221" on="1"/>
        <pt x="1200" y="221" on="0"/>
        <pt x="1227" y="188" on="0"/>
        <pt x="1227" y="164" on="1"/>
        <pt x="1227" y="56" on="1"/>
        <pt x="1227" y="33" on="0"/>
        <pt x="1200" y="0" on="0"/>
        <pt x="1174" y="0" on="1"/>
        <pt x="289" y="0" on="1"/>
        <pt x="266" y="0" on="0"/>
        <pt x="234" y="38" on="0"/>
        <pt x="234" y="64" on="1"/>
      </contour>
      <contour>
        <pt x="741" y="1667" on="1"/>
        <pt x="673" y="1667" on="0"/>
        <pt x="625" y="1714" on="1"/>
        <pt x="577" y="1760" on="0"/>
        <pt x="577" y="1830" on="1"/>
        <pt x="577" y="1898" on="0"/>
        <pt x="625" y="1946" on="1"/>
        <pt x="671" y="1992" on="0"/>
        <pt x="741" y="1992" on="1"/>
        <pt x="848" y="1992" on="0"/>
        <pt x="891" y="1894" on="1"/>
        <pt x="904" y="1865" on="0"/>
        <pt x="904" y="1830" on="1"/>
        <pt x="904" y="1760" on="0"/>
        <pt x="856" y="1714" on="1"/>
        <pt x="808" y="1667" on="0"/>
      </contour>
    </TTGlyph>
    <TTGlyph name="Egrave" xMin="234" yMin="0" xMax="1227" yMax="1992">
      <contour>
        <pt x="234" y="1469" on="1"/>
        <pt x="234" y="1495" on="0"/>
        <pt x="267" y="1533" on="0"/>
        <pt x="290" y="1533" on="1"/>
        <pt x="1169" y="1533" on="1"/>
        <pt x="1195" y="1533" on="0"/>
        <pt x="1222" y="1500" on="0"/>
        <pt x="1222" y="1476" on="1"/>
        <pt x="1222" y="1368" on="1"/>
        <pt x="1222" y="1345" on="0"/>
        <pt x="1195" y="1312" on="0"/>
        <pt x="1169" y="1312" on="1"/>
        <pt x="485" y="1312" on="1"/>
        <pt x="485" y="874" on="1"/>
        <pt x="1029" y="874" on="1"/>
        <pt x="1055" y="874" on="0"/>
        <pt x="1082" y="841" on="0"/>
        <pt x="1082" y="817" on="1"/>
        <pt x="1082" y="709" on="1"/>
        <pt x="1082" y="686" on="0"/>
        <pt x="1055" y="653" on="0"/>
        <pt x="1029" y="653" on="1"/>
        <pt x="485" y="653" on="1"/>
        <pt x="485" y="221" on="1"/>
        <pt x="1174" y="221" on="1"/>
        <pt x="1200" y="221" on="0"/>
        <pt x="1227" y="188" on="0"/>
        <pt x="1227" y="164" on="1"/>
        <pt x="1227" y="56" on="1"/>
        <pt x="1227" y="33" on="0"/>
        <pt x="1200" y="0" on="0"/>
        <pt x="1174" y="0" on="1"/>
        <pt x="289" y="0" on="1"/>
        <pt x="266" y="0" on="0"/>
        <pt x="234" y="38" on="0"/>
        <pt x="234" y="64" on="1"/>
      </contour>
      <contour>
        <pt x="390" y="1769" on="1"/>
        <pt x="347" y="1784" on="0"/>
        <pt x="347" y="1821" on="1"/>
        <pt x="347" y="1835" on="0"/>
        <pt x="355" y="1851" on="1"/>
        <pt x="409" y="1966" on="1"/>
        <pt x="420" y="1992" on="0"/>
        <pt x="481" y="1992" on="0"/>
        <pt x="505" y="1976" on="1"/>
        <pt x="872" y="1765" on="1"/>
        <pt x="902" y="1748" on="0"/>
        <pt x="887" y="1718" on="1"/>
        <pt x="856" y="1651" on="1"/>
        <pt x="839" y="1617" on="0"/>
        <pt x="799" y="1631" on="1"/>
      </contour>
    </TTGlyph>
    <TTGlyph name="Emacron" xMin="234" yMin="0" xMax="1227" yMax="1931">
      <contour>
        <pt x="234" y="1469" on="1"/>
        <pt x="234" y="1495" on="0"/>
        <pt x="267" y="1533" on="0"/>
        <pt x="290" y="1533" on="1"/>
        <pt x="1169" y="1533" on="1"/>
        <pt x="1195" y="1533" on="0"/>
        <pt x="1222" y="1500" on="0"/>
        <pt x="1222" y="1476" on="1"/>
        <pt x="1222" y="1368" on="1"/>
        <pt x="1222" y="1345" on="0"/>
        <pt x="1195" y="1312" on="0"/>
        <pt x="1169" y="1312" on="1"/>
        <pt x="485" y="1312" on="1"/>
        <pt x="485" y="874" on="1"/>
        <pt x="1029" y="874" on="1"/>
        <pt x="1055" y="874" on="0"/>
        <pt x="1082" y="841" on="0"/>
        <pt x="1082" y="817" on="1"/>
        <pt x="1082" y="709" on="1"/>
        <pt x="1082" y="686" on="0"/>
        <pt x="1055" y="653" on="0"/>
        <pt x="1029" y="653" on="1"/>
        <pt x="485" y="653" on="1"/>
        <pt x="485" y="221" on="1"/>
        <pt x="1174" y="221" on="1"/>
        <pt x="1200" y="221" on="0"/>
        <pt x="1227" y="188" on="0"/>
        <pt x="1227" y="164" on="1"/>
        <pt x="1227" y="56" on="1"/>
        <pt x="1227" y="33" on="0"/>
        <pt x="1200" y="0" on="0"/>
        <pt x="1174" y="0" on="1"/>
        <pt x="289" y="0" on="1"/>
        <pt x="266" y="0" on="0"/>
        <pt x="234" y="38" on="0"/>
        <pt x="234" y="64" on="1"/>
      </contour>
      <contour>
        <pt x="456" y="1714" on="0"/>
        <pt x="430" y="1735" on="0"/>
        <pt x="430" y="1752" on="1"/>
        <pt x="430" y="1894" on="1"/>
        <pt x="430" y="1910" on="0"/>
        <pt x="456" y="1931" on="0"/>
        <pt x="473" y="1931" on="1"/>
        <pt x="991" y="1931" on="1"/>
        <pt x="1009" y="1931" on="0"/>
        <pt x="1035" y="1910" on="0"/>
        <pt x="1035" y="1893" on="1"/>
        <pt x="1035" y="1751" on="1"/>
        <pt x="1035" y="1735" on="0"/>
        <pt x="1009" y="1714" on="0"/>
        <pt x="991" y="1714" on="1"/>
        <pt x="473" y="1714" on="1"/>
      </contour>
    </TTGlyph>
    <TTGlyph name="Eng" xMin="241" yMin="-568" xMax="1470" yMax="1533">
      <contour>
        <pt x="1055" y="-361" on="1"/>
        <pt x="1231" y="-361" on="0"/>
        <pt x="1231" y="-74" on="1"/>
        <pt x="1231" y="40" on="1"/>
        <pt x="1470" y="189" on="1"/>
        <pt x="1470" y="-129" on="1"/>
        <pt x="1470" y="-351" on="0"/>
        <pt x="1362" y="-465" on="1"/>
        <pt x="1263" y="-568" on="0"/>
        <pt x="1102" y="-568" on="1"/>
        <pt x="928" y="-568" on="0"/>
        <pt x="864" y="-503" on="1"/>
        <pt x="844" y="-482" on="0"/>
        <pt x="844" y="-429" on="0"/>
        <pt x="858" y="-382" on="0"/>
        <pt x="868" y="-365" on="1"/>
        <pt x="890" y="-328" on="0"/>
        <pt x="911" y="-328" on="1"/>
        <pt x="915" y="-328" on="0"/>
        <pt x="938" y="-338" on="0"/>
        <pt x="956" y="-344" on="1"/>
        <pt x="1003" y="-361" on="0"/>
      </contour>
      <contour>
        <pt x="241" y="1409" on="1"/>
        <pt x="241" y="1533" on="0"/>
        <pt x="349" y="1533" on="1"/>
        <pt x="390" y="1533" on="1"/>
        <pt x="431" y="1533" on="0"/>
        <pt x="447" y="1523" on="1"/>
        <pt x="477" y="1505" on="0"/>
        <pt x="503" y="1466" on="1"/>
        <pt x="1147" y="518" on="1"/>
        <pt x="1184" y="464" on="0"/>
        <pt x="1205" y="419" on="1"/>
        <pt x="1246" y="333" on="1"/>
        <pt x="1247" y="331" on="0"/>
        <pt x="1252" y="331" on="0"/>
        <pt x="1248" y="383" on="0"/>
        <pt x="1232" y="482" on="0"/>
        <pt x="1232" y="531" on="1"/>
        <pt x="1232" y="1472" on="1"/>
        <pt x="1232" y="1498" on="0"/>
        <pt x="1263" y="1533" on="0"/>
        <pt x="1285" y="1533" on="1"/>
        <pt x="1417" y="1533" on="1"/>
        <pt x="1438" y="1533" on="0"/>
        <pt x="1469" y="1498" on="0"/>
        <pt x="1469" y="1472" on="1"/>
        <pt x="1469" y="100" on="1"/>
        <pt x="1469" y="60" on="0"/>
        <pt x="1444" y="38" on="1"/>
        <pt x="1402" y="0" on="0"/>
        <pt x="1368" y="0" on="1"/>
        <pt x="1307" y="0" on="1"/>
        <pt x="1257" y="0" on="0"/>
        <pt x="1234" y="16" on="1"/>
        <pt x="1200" y="42" on="0"/>
        <pt x="1150" y="114" on="1"/>
        <pt x="579" y="949" on="0"/>
        <pt x="538" y="1016" on="1"/>
        <pt x="455" y="1155" on="1"/>
        <pt x="453" y="1158" on="0"/>
        <pt x="446" y="1158" on="0"/>
        <pt x="452" y="1128" on="0"/>
        <pt x="463" y="1057" on="0"/>
        <pt x="468" y="1014" on="1"/>
        <pt x="478" y="914" on="0"/>
        <pt x="478" y="828" on="1"/>
        <pt x="478" y="61" on="1"/>
        <pt x="478" y="36" on="0"/>
        <pt x="447" y="0" on="0"/>
        <pt x="425" y="0" on="1"/>
        <pt x="293" y="0" on="1"/>
        <pt x="272" y="0" on="0"/>
        <pt x="241" y="36" on="0"/>
        <pt x="241" y="61" on="1"/>
      </contour>
    </TTGlyph>
    <TTGlyph name="Eogonek" xMin="234" yMin="-480" xMax="1231" yMax="1533">
      <contour>
        <pt x="1182" y="-279" on="1"/>
        <pt x="1231" y="-279" on="0"/>
        <pt x="1231" y="-369" on="1"/>
        <pt x="1231" y="-399" on="0"/>
        <pt x="1195" y="-448" on="0"/>
        <pt x="1093" y="-480" on="0"/>
        <pt x="992" y="-480" on="0"/>
        <pt x="908" y="-458" on="0"/>
        <pt x="872" y="-434" on="1"/>
        <pt x="788" y="-376" on="0"/>
        <pt x="788" y="-273" on="1"/>
        <pt x="788" y="-149" on="0"/>
        <pt x="910" y="-50" on="1"/>
        <pt x="945" y="-21" on="0"/>
        <pt x="982" y="0" on="1"/>
        <pt x="289" y="0" on="1"/>
        <pt x="266" y="0" on="0"/>
        <pt x="234" y="38" on="0"/>
        <pt x="234" y="64" on="1"/>
        <pt x="234" y="1469" on="1"/>
        <pt x="234" y="1495" on="0"/>
        <pt x="267" y="1533" on="0"/>
        <pt x="290" y="1533" on="1"/>
        <pt x="1169" y="1533" on="1"/>
        <pt x="1195" y="1533" on="0"/>
        <pt x="1222" y="1500" on="0"/>
        <pt x="1222" y="1476" on="1"/>
        <pt x="1222" y="1368" on="1"/>
        <pt x="1222" y="1345" on="0"/>
        <pt x="1195" y="1312" on="0"/>
        <pt x="1169" y="1312" on="1"/>
        <pt x="485" y="1312" on="1"/>
        <pt x="485" y="874" on="1"/>
        <pt x="1029" y="874" on="1"/>
        <pt x="1055" y="874" on="0"/>
        <pt x="1082" y="841" on="0"/>
        <pt x="1082" y="817" on="1"/>
        <pt x="1082" y="709" on="1"/>
        <pt x="1082" y="686" on="0"/>
        <pt x="1055" y="653" on="0"/>
        <pt x="1029" y="653" on="1"/>
        <pt x="485" y="653" on="1"/>
        <pt x="485" y="221" on="1"/>
        <pt x="1174" y="221" on="1"/>
        <pt x="1200" y="221" on="0"/>
        <pt x="1227" y="188" on="0"/>
        <pt x="1227" y="164" on="1"/>
        <pt x="1227" y="56" on="1"/>
        <pt x="1227" y="16" on="0"/>
        <pt x="1177" y="-4" on="0"/>
        <pt x="1101" y="-53" on="0"/>
        <pt x="1066" y="-86" on="1"/>
        <pt x="980" y="-167" on="0"/>
        <pt x="980" y="-304" on="0"/>
        <pt x="1066" y="-304" on="1"/>
        <pt x="1097" y="-304" on="0"/>
        <pt x="1175" y="-279" on="0"/>
      </contour>
    </TTGlyph>
    <TTGlyph name="Eth" xMin="49" yMin="0" xMax="1430" yMax="1533">
      <contour>
        <pt x="238" y="656" on="1"/>
        <pt x="92" y="656" on="1"/>
        <pt x="75" y="656" on="0"/>
        <pt x="49" y="677" on="0"/>
        <pt x="49" y="694" on="1"/>
        <pt x="49" y="828" on="1"/>
        <pt x="49" y="844" on="0"/>
        <pt x="75" y="865" on="0"/>
        <pt x="92" y="865" on="1"/>
        <pt x="238" y="865" on="1"/>
        <pt x="238" y="1446" on="1"/>
        <pt x="238" y="1481" on="0"/>
        <pt x="285" y="1533" on="0"/>
        <pt x="327" y="1533" on="1"/>
        <pt x="644" y="1533" on="1"/>
        <pt x="1040" y="1533" on="0"/>
        <pt x="1240" y="1337" on="1"/>
        <pt x="1430" y="1149" on="0"/>
        <pt x="1430" y="800" on="1"/>
        <pt x="1430" y="427" on="0"/>
        <pt x="1003" y="0" on="0"/>
        <pt x="626" y="0" on="1"/>
        <pt x="327" y="0" on="1"/>
        <pt x="285" y="0" on="0"/>
        <pt x="238" y="53" on="0"/>
        <pt x="238" y="88" on="1"/>
      </contour>
      <contour>
        <pt x="674" y="1313" on="1"/>
        <pt x="624" y="1313" on="1"/>
        <pt x="591" y="1313" on="0"/>
        <pt x="489" y="1310" on="1"/>
        <pt x="489" y="865" on="1"/>
        <pt x="783" y="865" on="1"/>
        <pt x="801" y="865" on="0"/>
        <pt x="827" y="844" on="0"/>
        <pt x="827" y="827" on="1"/>
        <pt x="827" y="704" on="1"/>
        <pt x="827" y="680" on="0"/>
        <pt x="801" y="656" on="0"/>
        <pt x="783" y="656" on="1"/>
        <pt x="489" y="656" on="1"/>
        <pt x="489" y="221" on="1"/>
        <pt x="652" y="218" on="1"/>
        <pt x="658" y="218" on="1"/>
        <pt x="1045" y="218" on="0"/>
        <pt x="1134" y="552" on="1"/>
        <pt x="1163" y="660" on="0"/>
        <pt x="1163" y="923" on="0"/>
        <pt x="1100" y="1114" on="0"/>
        <pt x="1038" y="1180" on="1"/>
        <pt x="913" y="1313" on="0"/>
      </contour>
    </TTGlyph>
    <TTGlyph name="Euro" xMin="66" yMin="-25" xMax="1270" yMax="1452">
      <contour>
        <pt x="490" y="788" on="1"/>
        <pt x="486" y="749" on="0"/>
        <pt x="486" y="662" on="0"/>
        <pt x="489" y="627" on="1"/>
        <pt x="977" y="627" on="1"/>
        <pt x="992" y="627" on="0"/>
        <pt x="1014" y="609" on="0"/>
        <pt x="1014" y="595" on="1"/>
        <pt x="1014" y="488" on="1"/>
        <pt x="1014" y="475" on="0"/>
        <pt x="992" y="456" on="0"/>
        <pt x="977" y="456" on="1"/>
        <pt x="522" y="456" on="1"/>
        <pt x="556" y="337" on="0"/>
        <pt x="651" y="262" on="1"/>
        <pt x="749" y="184" on="0"/>
        <pt x="873" y="184" on="1"/>
        <pt x="997" y="184" on="0"/>
        <pt x="1072" y="232" on="1"/>
        <pt x="1111" y="258" on="1"/>
        <pt x="1149" y="286" on="0"/>
        <pt x="1171" y="286" on="1"/>
        <pt x="1212" y="286" on="0"/>
        <pt x="1231" y="256" on="1"/>
        <pt x="1245" y="235" on="1"/>
        <pt x="1270" y="197" on="0"/>
        <pt x="1270" y="139" on="0"/>
        <pt x="1206" y="69" on="0"/>
        <pt x="1150" y="40" on="1"/>
        <pt x="1024" y="-25" on="0"/>
        <pt x="852" y="-25" on="1"/>
        <pt x="636" y="-25" on="0"/>
        <pt x="478" y="108" on="1"/>
        <pt x="324" y="239" on="0"/>
        <pt x="279" y="456" on="1"/>
        <pt x="103" y="456" on="1"/>
        <pt x="88" y="456" on="0"/>
        <pt x="66" y="475" on="0"/>
        <pt x="66" y="489" on="1"/>
        <pt x="66" y="595" on="1"/>
        <pt x="66" y="609" on="0"/>
        <pt x="88" y="627" on="0"/>
        <pt x="103" y="627" on="1"/>
        <pt x="252" y="627" on="1"/>
        <pt x="248" y="677" on="0"/>
        <pt x="248" y="709" on="1"/>
        <pt x="248" y="755" on="1"/>
        <pt x="248" y="769" on="0"/>
        <pt x="250" y="788" on="1"/>
        <pt x="123" y="788" on="1"/>
        <pt x="108" y="788" on="0"/>
        <pt x="86" y="807" on="0"/>
        <pt x="86" y="821" on="1"/>
        <pt x="86" y="927" on="1"/>
        <pt x="86" y="941" on="0"/>
        <pt x="108" y="959" on="0"/>
        <pt x="123" y="959" on="1"/>
        <pt x="273" y="959" on="1"/>
        <pt x="327" y="1187" on="0"/>
        <pt x="482" y="1319" on="1"/>
        <pt x="639" y="1452" on="0"/>
        <pt x="857" y="1452" on="1"/>
        <pt x="1081" y="1452" on="0"/>
        <pt x="1230" y="1325" on="1"/>
        <pt x="1257" y="1303" on="0"/>
        <pt x="1257" y="1282" on="1"/>
        <pt x="1257" y="1245" on="0"/>
        <pt x="1237" y="1216" on="1"/>
        <pt x="1213" y="1184" on="1"/>
        <pt x="1178" y="1139" on="0"/>
        <pt x="1117" y="1139" on="0"/>
        <pt x="1090" y="1156" on="1"/>
        <pt x="1038" y="1188" on="1"/>
        <pt x="944" y="1243" on="0"/>
        <pt x="781" y="1243" on="0"/>
        <pt x="668" y="1197" on="0"/>
        <pt x="626" y="1158" on="1"/>
        <pt x="542" y="1082" on="0"/>
        <pt x="510" y="959" on="1"/>
        <pt x="1007" y="959" on="1"/>
        <pt x="1022" y="959" on="0"/>
        <pt x="1044" y="941" on="0"/>
        <pt x="1044" y="927" on="1"/>
        <pt x="1044" y="820" on="1"/>
        <pt x="1044" y="807" on="0"/>
        <pt x="1022" y="788" on="0"/>
        <pt x="1007" y="788" on="1"/>
      </contour>
    </TTGlyph>
    <TTGlyph name="F" xMin="236" yMin="0" xMax="1157" yMax="1533">
      <contour>
        <pt x="236" y="1469" on="1"/>
        <pt x="236" y="1495" on="0"/>
        <pt x="269" y="1533" on="0"/>
        <pt x="292" y="1533" on="1"/>
        <pt x="1104" y="1533" on="1"/>
        <pt x="1130" y="1533" on="0"/>
        <pt x="1157" y="1500" on="0"/>
        <pt x="1157" y="1476" on="1"/>
        <pt x="1157" y="1367" on="1"/>
        <pt x="1157" y="1344" on="0"/>
        <pt x="1130" y="1311" on="0"/>
        <pt x="1104" y="1311" on="1"/>
        <pt x="487" y="1311" on="1"/>
        <pt x="487" y="814" on="1"/>
        <pt x="984" y="814" on="1"/>
        <pt x="1010" y="814" on="0"/>
        <pt x="1037" y="780" on="0"/>
        <pt x="1037" y="757" on="1"/>
        <pt x="1037" y="649" on="1"/>
        <pt x="1037" y="626" on="0"/>
        <pt x="1010" y="593" on="0"/>
        <pt x="984" y="593" on="1"/>
        <pt x="486" y="593" on="1"/>
        <pt x="486" y="64" on="1"/>
        <pt x="486" y="38" on="0"/>
        <pt x="453" y="0" on="0"/>
        <pt x="430" y="0" on="1"/>
        <pt x="291" y="0" on="1"/>
        <pt x="268" y="0" on="0"/>
        <pt x="236" y="38" on="0"/>
        <pt x="236" y="64" on="1"/>
      </contour>
    </TTGlyph>
    <TTGlyph name="G" xMin="139" yMin="-25" xMax="1437" yMax="1558">
      <contour>
        <pt x="240" y="293" on="0"/>
        <pt x="139" y="593" on="0"/>
        <pt x="139" y="963" on="0"/>
        <pt x="244" y="1251" on="0"/>
        <pt x="338" y="1351" on="1"/>
        <pt x="534" y="1558" on="0"/>
        <pt x="858" y="1558" on="1"/>
        <pt x="1121" y="1558" on="0"/>
        <pt x="1276" y="1434" on="1"/>
        <pt x="1342" y="1380" on="0"/>
        <pt x="1405" y="1256" on="0"/>
        <pt x="1405" y="1189" on="0"/>
        <pt x="1402" y="1149" on="0"/>
        <pt x="1392" y="1130" on="1"/>
        <pt x="1367" y="1085" on="0"/>
        <pt x="1298" y="1085" on="1"/>
        <pt x="1212" y="1085" on="1"/>
        <pt x="1182" y="1085" on="0"/>
        <pt x="1173" y="1102" on="1"/>
        <pt x="1162" y="1122" on="0"/>
        <pt x="1154" y="1189" on="0"/>
        <pt x="1123" y="1251" on="0"/>
        <pt x="1088" y="1278" on="1"/>
        <pt x="1006" y="1341" on="0"/>
        <pt x="737" y="1341" on="0"/>
        <pt x="571" y="1256" on="0"/>
        <pt x="516" y="1181" on="1"/>
        <pt x="408" y="1032" on="0"/>
        <pt x="408" y="534" on="0"/>
        <pt x="506" y="378" on="1"/>
        <pt x="620" y="199" on="0"/>
        <pt x="841" y="199" on="1"/>
        <pt x="1080" y="199" on="0"/>
        <pt x="1136" y="328" on="1"/>
        <pt x="1153" y="365" on="0"/>
        <pt x="1153" y="436" on="0"/>
        <pt x="1133" y="506" on="0"/>
        <pt x="1108" y="538" on="1"/>
        <pt x="1052" y="614" on="0"/>
        <pt x="941" y="641" on="1"/>
        <pt x="909" y="649" on="0"/>
        <pt x="858" y="694" on="0"/>
        <pt x="858" y="735" on="1"/>
        <pt x="858" y="770" on="1"/>
        <pt x="858" y="790" on="0"/>
        <pt x="890" y="819" on="0"/>
        <pt x="913" y="819" on="1"/>
        <pt x="1381" y="819" on="1"/>
        <pt x="1437" y="819" on="0"/>
        <pt x="1437" y="770" on="1"/>
        <pt x="1437" y="661" on="1"/>
        <pt x="1437" y="641" on="0"/>
        <pt x="1404" y="617" on="0"/>
        <pt x="1381" y="617" on="1"/>
        <pt x="1235" y="617" on="1"/>
        <pt x="1346" y="567" on="0"/>
        <pt x="1384" y="450" on="1"/>
        <pt x="1398" y="407" on="0"/>
        <pt x="1398" y="318" on="0"/>
        <pt x="1374" y="236" on="0"/>
        <pt x="1320" y="152" on="0"/>
        <pt x="1233" y="73" on="0"/>
        <pt x="1170" y="42" on="1"/>
        <pt x="1031" y="-25" on="0"/>
        <pt x="675" y="-25" on="0"/>
        <pt x="421" y="85" on="0"/>
      </contour>
    </TTGlyph>
    <TTGlyph name="Gbreve" xMin="139" yMin="-25" xMax="1437" yMax="1994">
      <contour>
        <pt x="240" y="293" on="0"/>
        <pt x="139" y="593" on="0"/>
        <pt x="139" y="963" on="0"/>
        <pt x="244" y="1251" on="0"/>
        <pt x="338" y="1351" on="1"/>
        <pt x="534" y="1558" on="0"/>
        <pt x="858" y="1558" on="1"/>
        <pt x="1121" y="1558" on="0"/>
        <pt x="1276" y="1434" on="1"/>
        <pt x="1342" y="1380" on="0"/>
        <pt x="1405" y="1256" on="0"/>
        <pt x="1405" y="1189" on="0"/>
        <pt x="1402" y="1149" on="0"/>
        <pt x="1392" y="1130" on="1"/>
        <pt x="1367" y="1085" on="0"/>
        <pt x="1298" y="1085" on="1"/>
        <pt x="1212" y="1085" on="1"/>
        <pt x="1182" y="1085" on="0"/>
        <pt x="1173" y="1102" on="1"/>
        <pt x="1162" y="1122" on="0"/>
        <pt x="1154" y="1189" on="0"/>
        <pt x="1123" y="1251" on="0"/>
        <pt x="1088" y="1278" on="1"/>
        <pt x="1006" y="1341" on="0"/>
        <pt x="737" y="1341" on="0"/>
        <pt x="571" y="1256" on="0"/>
        <pt x="516" y="1181" on="1"/>
        <pt x="408" y="1032" on="0"/>
        <pt x="408" y="534" on="0"/>
        <pt x="506" y="378" on="1"/>
        <pt x="620" y="199" on="0"/>
        <pt x="841" y="199" on="1"/>
        <pt x="1080" y="199" on="0"/>
        <pt x="1136" y="328" on="1"/>
        <pt x="1153" y="365" on="0"/>
        <pt x="1153" y="436" on="0"/>
        <pt x="1133" y="506" on="0"/>
        <pt x="1108" y="538" on="1"/>
        <pt x="1052" y="614" on="0"/>
        <pt x="941" y="641" on="1"/>
        <pt x="909" y="649" on="0"/>
        <pt x="858" y="694" on="0"/>
        <pt x="858" y="735" on="1"/>
        <pt x="858" y="770" on="1"/>
        <pt x="858" y="790" on="0"/>
        <pt x="890" y="819" on="0"/>
        <pt x="913" y="819" on="1"/>
        <pt x="1381" y="819" on="1"/>
        <pt x="1437" y="819" on="0"/>
        <pt x="1437" y="770" on="1"/>
        <pt x="1437" y="661" on="1"/>
        <pt x="1437" y="641" on="0"/>
        <pt x="1404" y="617" on="0"/>
        <pt x="1381" y="617" on="1"/>
        <pt x="1235" y="617" on="1"/>
        <pt x="1346" y="567" on="0"/>
        <pt x="1384" y="450" on="1"/>
        <pt x="1398" y="407" on="0"/>
        <pt x="1398" y="318" on="0"/>
        <pt x="1374" y="236" on="0"/>
        <pt x="1320" y="152" on="0"/>
        <pt x="1233" y="73" on="0"/>
        <pt x="1170" y="42" on="1"/>
        <pt x="1031" y="-25" on="0"/>
        <pt x="675" y="-25" on="0"/>
        <pt x="421" y="85" on="0"/>
      </contour>
      <contour>
        <pt x="793" y="1662" on="1"/>
        <pt x="720" y="1662" on="0"/>
        <pt x="595" y="1705" on="0"/>
        <pt x="548" y="1743" on="1"/>
        <pt x="446" y="1825" on="0"/>
        <pt x="446" y="1949" on="1"/>
        <pt x="446" y="1983" on="0"/>
        <pt x="499" y="1986" on="1"/>
        <pt x="607" y="1991" on="1"/>
        <pt x="644" y="1994" on="0"/>
        <pt x="647" y="1960" on="1"/>
        <pt x="652" y="1886" on="0"/>
        <pt x="704" y="1854" on="1"/>
        <pt x="739" y="1832" on="0"/>
        <pt x="790" y="1832" on="1"/>
        <pt x="879" y="1832" on="0"/>
        <pt x="916" y="1886" on="1"/>
        <pt x="932" y="1910" on="0"/>
        <pt x="936" y="1943" on="1"/>
        <pt x="941" y="1994" on="0"/>
        <pt x="990" y="1991" on="1"/>
        <pt x="1084" y="1986" on="1"/>
        <pt x="1133" y="1982" on="0"/>
        <pt x="1133" y="1944" on="1"/>
        <pt x="1133" y="1827" on="0"/>
        <pt x="1038" y="1746" on="1"/>
        <pt x="940" y="1662" on="0"/>
      </contour>
    </TTGlyph>
    <TTGlyph name="Gcircumflex" xMin="139" yMin="-25" xMax="1437" yMax="1982">
      <contour>
        <pt x="240" y="293" on="0"/>
        <pt x="139" y="593" on="0"/>
        <pt x="139" y="963" on="0"/>
        <pt x="244" y="1251" on="0"/>
        <pt x="338" y="1351" on="1"/>
        <pt x="534" y="1558" on="0"/>
        <pt x="858" y="1558" on="1"/>
        <pt x="1121" y="1558" on="0"/>
        <pt x="1276" y="1434" on="1"/>
        <pt x="1342" y="1380" on="0"/>
        <pt x="1405" y="1256" on="0"/>
        <pt x="1405" y="1189" on="0"/>
        <pt x="1402" y="1149" on="0"/>
        <pt x="1392" y="1130" on="1"/>
        <pt x="1367" y="1085" on="0"/>
        <pt x="1298" y="1085" on="1"/>
        <pt x="1212" y="1085" on="1"/>
        <pt x="1182" y="1085" on="0"/>
        <pt x="1173" y="1102" on="1"/>
        <pt x="1162" y="1122" on="0"/>
        <pt x="1154" y="1189" on="0"/>
        <pt x="1123" y="1251" on="0"/>
        <pt x="1088" y="1278" on="1"/>
        <pt x="1006" y="1341" on="0"/>
        <pt x="737" y="1341" on="0"/>
        <pt x="571" y="1256" on="0"/>
        <pt x="516" y="1181" on="1"/>
        <pt x="408" y="1032" on="0"/>
        <pt x="408" y="534" on="0"/>
        <pt x="506" y="378" on="1"/>
        <pt x="620" y="199" on="0"/>
        <pt x="841" y="199" on="1"/>
        <pt x="1080" y="199" on="0"/>
        <pt x="1136" y="328" on="1"/>
        <pt x="1153" y="365" on="0"/>
        <pt x="1153" y="436" on="0"/>
        <pt x="1133" y="506" on="0"/>
        <pt x="1108" y="538" on="1"/>
        <pt x="1052" y="614" on="0"/>
        <pt x="941" y="641" on="1"/>
        <pt x="909" y="649" on="0"/>
        <pt x="858" y="694" on="0"/>
        <pt x="858" y="735" on="1"/>
        <pt x="858" y="770" on="1"/>
        <pt x="858" y="790" on="0"/>
        <pt x="890" y="819" on="0"/>
        <pt x="913" y="819" on="1"/>
        <pt x="1381" y="819" on="1"/>
        <pt x="1437" y="819" on="0"/>
        <pt x="1437" y="770" on="1"/>
        <pt x="1437" y="661" on="1"/>
        <pt x="1437" y="641" on="0"/>
        <pt x="1404" y="617" on="0"/>
        <pt x="1381" y="617" on="1"/>
        <pt x="1235" y="617" on="1"/>
        <pt x="1346" y="567" on="0"/>
        <pt x="1384" y="450" on="1"/>
        <pt x="1398" y="407" on="0"/>
        <pt x="1398" y="318" on="0"/>
        <pt x="1374" y="236" on="0"/>
        <pt x="1320" y="152" on="0"/>
        <pt x="1233" y="73" on="0"/>
        <pt x="1170" y="42" on="1"/>
        <pt x="1031" y="-25" on="0"/>
        <pt x="675" y="-25" on="0"/>
        <pt x="421" y="85" on="0"/>
      </contour>
      <contour>
        <pt x="558" y="1663" on="1"/>
        <pt x="547" y="1655" on="0"/>
        <pt x="517" y="1655" on="0"/>
        <pt x="505" y="1668" on="1"/>
        <pt x="452" y="1725" on="1"/>
        <pt x="443" y="1735" on="0"/>
        <pt x="443" y="1768" on="0"/>
        <pt x="456" y="1779" on="1"/>
        <pt x="656" y="1959" on="1"/>
        <pt x="681" y="1982" on="0"/>
        <pt x="709" y="1982" on="1"/>
        <pt x="892" y="1982" on="1"/>
        <pt x="922" y="1982" on="0"/>
        <pt x="947" y="1959" on="1"/>
        <pt x="1145" y="1781" on="1"/>
        <pt x="1162" y="1768" on="0"/>
        <pt x="1162" y="1731" on="0"/>
        <pt x="1148" y="1716" on="1"/>
        <pt x="1108" y="1672" on="1"/>
        <pt x="1093" y="1656" on="0"/>
        <pt x="1062" y="1656" on="0"/>
        <pt x="1052" y="1663" on="1"/>
        <pt x="799" y="1829" on="1"/>
      </contour>
    </TTGlyph>
    <TTGlyph name="Gcommaaccent" xMin="139" yMin="-568" xMax="1437" yMax="1558">
      <contour>
        <pt x="240" y="293" on="0"/>
        <pt x="139" y="593" on="0"/>
        <pt x="139" y="963" on="0"/>
        <pt x="244" y="1251" on="0"/>
        <pt x="338" y="1351" on="1"/>
        <pt x="534" y="1558" on="0"/>
        <pt x="858" y="1558" on="1"/>
        <pt x="1121" y="1558" on="0"/>
        <pt x="1276" y="1434" on="1"/>
        <pt x="1342" y="1380" on="0"/>
        <pt x="1405" y="1256" on="0"/>
        <pt x="1405" y="1189" on="0"/>
        <pt x="1402" y="1149" on="0"/>
        <pt x="1392" y="1130" on="1"/>
        <pt x="1367" y="1085" on="0"/>
        <pt x="1298" y="1085" on="1"/>
        <pt x="1212" y="1085" on="1"/>
        <pt x="1182" y="1085" on="0"/>
        <pt x="1173" y="1102" on="1"/>
        <pt x="1162" y="1122" on="0"/>
        <pt x="1154" y="1189" on="0"/>
        <pt x="1123" y="1251" on="0"/>
        <pt x="1088" y="1278" on="1"/>
        <pt x="1006" y="1341" on="0"/>
        <pt x="737" y="1341" on="0"/>
        <pt x="571" y="1256" on="0"/>
        <pt x="516" y="1181" on="1"/>
        <pt x="408" y="1032" on="0"/>
        <pt x="408" y="534" on="0"/>
        <pt x="506" y="378" on="1"/>
        <pt x="620" y="199" on="0"/>
        <pt x="841" y="199" on="1"/>
        <pt x="1080" y="199" on="0"/>
        <pt x="1136" y="328" on="1"/>
        <pt x="1153" y="365" on="0"/>
        <pt x="1153" y="436" on="0"/>
        <pt x="1133" y="506" on="0"/>
        <pt x="1108" y="538" on="1"/>
        <pt x="1052" y="614" on="0"/>
        <pt x="941" y="641" on="1"/>
        <pt x="909" y="649" on="0"/>
        <pt x="858" y="694" on="0"/>
        <pt x="858" y="735" on="1"/>
        <pt x="858" y="770" on="1"/>
        <pt x="858" y="790" on="0"/>
        <pt x="890" y="819" on="0"/>
        <pt x="913" y="819" on="1"/>
        <pt x="1381" y="819" on="1"/>
        <pt x="1437" y="819" on="0"/>
        <pt x="1437" y="770" on="1"/>
        <pt x="1437" y="661" on="1"/>
        <pt x="1437" y="641" on="0"/>
        <pt x="1404" y="617" on="0"/>
        <pt x="1381" y="617" on="1"/>
        <pt x="1235" y="617" on="1"/>
        <pt x="1346" y="567" on="0"/>
        <pt x="1384" y="450" on="1"/>
        <pt x="1398" y="407" on="0"/>
        <pt x="1398" y="318" on="0"/>
        <pt x="1374" y="236" on="0"/>
        <pt x="1320" y="152" on="0"/>
        <pt x="1233" y="73" on="0"/>
        <pt x="1170" y="42" on="1"/>
        <pt x="1031" y="-25" on="0"/>
        <pt x="675" y="-25" on="0"/>
        <pt x="421" y="85" on="0"/>
      </contour>
      <contour>
        <pt x="694" y="-262" on="1"/>
        <pt x="686" y="-242" on="0"/>
        <pt x="686" y="-189" on="0"/>
        <pt x="712" y="-144" on="0"/>
        <pt x="733" y="-130" on="1"/>
        <pt x="775" y="-102" on="0"/>
        <pt x="862" y="-102" on="0"/>
        <pt x="918" y="-123" on="0"/>
        <pt x="939" y="-142" on="1"/>
        <pt x="986" y="-186" on="0"/>
        <pt x="986" y="-254" on="1"/>
        <pt x="986" y="-362" on="0"/>
        <pt x="882" y="-511" on="1"/>
        <pt x="844" y="-568" on="0"/>
        <pt x="797" y="-568" on="1"/>
        <pt x="783" y="-568" on="0"/>
        <pt x="769" y="-561" on="1"/>
        <pt x="736" y="-545" on="1"/>
        <pt x="715" y="-534" on="0"/>
        <pt x="715" y="-518" on="1"/>
        <pt x="715" y="-496" on="0"/>
        <pt x="733" y="-467" on="0"/>
        <pt x="750" y="-432" on="0"/>
        <pt x="759" y="-411" on="1"/>
        <pt x="782" y="-356" on="0"/>
        <pt x="784" y="-335" on="1"/>
        <pt x="719" y="-325" on="0"/>
      </contour>
    </TTGlyph>
    <TTGlyph name="Gdotaccent" xMin="139" yMin="-25" xMax="1437" yMax="1992">
      <contour>
        <pt x="240" y="293" on="0"/>
        <pt x="139" y="593" on="0"/>
        <pt x="139" y="963" on="0"/>
        <pt x="244" y="1251" on="0"/>
        <pt x="338" y="1351" on="1"/>
        <pt x="534" y="1558" on="0"/>
        <pt x="858" y="1558" on="1"/>
        <pt x="1121" y="1558" on="0"/>
        <pt x="1276" y="1434" on="1"/>
        <pt x="1342" y="1380" on="0"/>
        <pt x="1405" y="1256" on="0"/>
        <pt x="1405" y="1189" on="0"/>
        <pt x="1402" y="1149" on="0"/>
        <pt x="1392" y="1130" on="1"/>
        <pt x="1367" y="1085" on="0"/>
        <pt x="1298" y="1085" on="1"/>
        <pt x="1212" y="1085" on="1"/>
        <pt x="1182" y="1085" on="0"/>
        <pt x="1173" y="1102" on="1"/>
        <pt x="1162" y="1122" on="0"/>
        <pt x="1154" y="1189" on="0"/>
        <pt x="1123" y="1251" on="0"/>
        <pt x="1088" y="1278" on="1"/>
        <pt x="1006" y="1341" on="0"/>
        <pt x="737" y="1341" on="0"/>
        <pt x="571" y="1256" on="0"/>
        <pt x="516" y="1181" on="1"/>
        <pt x="408" y="1032" on="0"/>
        <pt x="408" y="534" on="0"/>
        <pt x="506" y="378" on="1"/>
        <pt x="620" y="199" on="0"/>
        <pt x="841" y="199" on="1"/>
        <pt x="1080" y="199" on="0"/>
        <pt x="1136" y="328" on="1"/>
        <pt x="1153" y="365" on="0"/>
        <pt x="1153" y="436" on="0"/>
        <pt x="1133" y="506" on="0"/>
        <pt x="1108" y="538" on="1"/>
        <pt x="1052" y="614" on="0"/>
        <pt x="941" y="641" on="1"/>
        <pt x="909" y="649" on="0"/>
        <pt x="858" y="694" on="0"/>
        <pt x="858" y="735" on="1"/>
        <pt x="858" y="770" on="1"/>
        <pt x="858" y="790" on="0"/>
        <pt x="890" y="819" on="0"/>
        <pt x="913" y="819" on="1"/>
        <pt x="1381" y="819" on="1"/>
        <pt x="1437" y="819" on="0"/>
        <pt x="1437" y="770" on="1"/>
        <pt x="1437" y="661" on="1"/>
        <pt x="1437" y="641" on="0"/>
        <pt x="1404" y="617" on="0"/>
        <pt x="1381" y="617" on="1"/>
        <pt x="1235" y="617" on="1"/>
        <pt x="1346" y="567" on="0"/>
        <pt x="1384" y="450" on="1"/>
        <pt x="1398" y="407" on="0"/>
        <pt x="1398" y="318" on="0"/>
        <pt x="1374" y="236" on="0"/>
        <pt x="1320" y="152" on="0"/>
        <pt x="1233" y="73" on="0"/>
        <pt x="1170" y="42" on="1"/>
        <pt x="1031" y="-25" on="0"/>
        <pt x="675" y="-25" on="0"/>
        <pt x="421" y="85" on="0"/>
      </contour>
      <contour>
        <pt x="846" y="1667" on="1"/>
        <pt x="778" y="1667" on="0"/>
        <pt x="730" y="1714" on="1"/>
        <pt x="682" y="1760" on="0"/>
        <pt x="682" y="1830" on="1"/>
        <pt x="682" y="1898" on="0"/>
        <pt x="730" y="1946" on="1"/>
        <pt x="776" y="1992" on="0"/>
        <pt x="846" y="1992" on="1"/>
        <pt x="953" y="1992" on="0"/>
        <pt x="996" y="1894" on="1"/>
        <pt x="1009" y="1865" on="0"/>
        <pt x="1009" y="1830" on="1"/>
        <pt x="1009" y="1760" on="0"/>
        <pt x="961" y="1714" on="1"/>
        <pt x="913" y="1667" on="0"/>
      </contour>
    </TTGlyph>
    <TTGlyph name="H" xMin="226" yMin="0" xMax="1473" yMax="1533">
      <contour>
        <pt x="226" y="1469" on="1"/>
        <pt x="226" y="1495" on="0"/>
        <pt x="259" y="1533" on="0"/>
        <pt x="282" y="1533" on="1"/>
        <pt x="422" y="1533" on="1"/>
        <pt x="445" y="1533" on="0"/>
        <pt x="477" y="1495" on="0"/>
        <pt x="477" y="1469" on="1"/>
        <pt x="477" y="871" on="1"/>
        <pt x="1222" y="871" on="1"/>
        <pt x="1222" y="1469" on="1"/>
        <pt x="1222" y="1495" on="0"/>
        <pt x="1255" y="1533" on="0"/>
        <pt x="1278" y="1533" on="1"/>
        <pt x="1418" y="1533" on="1"/>
        <pt x="1441" y="1533" on="0"/>
        <pt x="1473" y="1495" on="0"/>
        <pt x="1473" y="1469" on="1"/>
        <pt x="1473" y="65" on="1"/>
        <pt x="1473" y="39" on="0"/>
        <pt x="1440" y="1" on="0"/>
        <pt x="1417" y="1" on="1"/>
        <pt x="1277" y="1" on="1"/>
        <pt x="1254" y="1" on="0"/>
        <pt x="1222" y="39" on="0"/>
        <pt x="1222" y="65" on="1"/>
        <pt x="1222" y="650" on="1"/>
        <pt x="477" y="650" on="1"/>
        <pt x="477" y="64" on="1"/>
        <pt x="477" y="38" on="0"/>
        <pt x="444" y="0" on="0"/>
        <pt x="421" y="0" on="1"/>
        <pt x="281" y="0" on="1"/>
        <pt x="258" y="0" on="0"/>
        <pt x="226" y="38" on="0"/>
        <pt x="226" y="64" on="1"/>
      </contour>
    </TTGlyph>
    <TTGlyph name="Hbar" xMin="90" yMin="0" xMax="1592" yMax="1533">
      <contour>
        <pt x="226" y="1099" on="1"/>
        <pt x="133" y="1099" on="1"/>
        <pt x="116" y="1099" on="0"/>
        <pt x="90" y="1120" on="0"/>
        <pt x="90" y="1137" on="1"/>
        <pt x="90" y="1255" on="1"/>
        <pt x="90" y="1271" on="0"/>
        <pt x="116" y="1292" on="0"/>
        <pt x="133" y="1292" on="1"/>
        <pt x="226" y="1292" on="1"/>
        <pt x="226" y="1469" on="1"/>
        <pt x="226" y="1495" on="0"/>
        <pt x="259" y="1533" on="0"/>
        <pt x="282" y="1533" on="1"/>
        <pt x="422" y="1533" on="1"/>
        <pt x="445" y="1533" on="0"/>
        <pt x="477" y="1495" on="0"/>
        <pt x="477" y="1469" on="1"/>
        <pt x="477" y="1292" on="1"/>
        <pt x="1222" y="1292" on="1"/>
        <pt x="1222" y="1469" on="1"/>
        <pt x="1222" y="1495" on="0"/>
        <pt x="1255" y="1533" on="0"/>
        <pt x="1278" y="1533" on="1"/>
        <pt x="1418" y="1533" on="1"/>
        <pt x="1441" y="1533" on="0"/>
        <pt x="1473" y="1495" on="0"/>
        <pt x="1473" y="1469" on="1"/>
        <pt x="1473" y="1292" on="1"/>
        <pt x="1548" y="1292" on="1"/>
        <pt x="1566" y="1292" on="0"/>
        <pt x="1592" y="1271" on="0"/>
        <pt x="1592" y="1254" on="1"/>
        <pt x="1592" y="1136" on="1"/>
        <pt x="1592" y="1120" on="0"/>
        <pt x="1566" y="1099" on="0"/>
        <pt x="1548" y="1099" on="1"/>
        <pt x="1473" y="1099" on="1"/>
        <pt x="1473" y="65" on="1"/>
        <pt x="1473" y="39" on="0"/>
        <pt x="1440" y="1" on="0"/>
        <pt x="1417" y="1" on="1"/>
        <pt x="1277" y="1" on="1"/>
        <pt x="1254" y="1" on="0"/>
        <pt x="1222" y="39" on="0"/>
        <pt x="1222" y="65" on="1"/>
        <pt x="1222" y="650" on="1"/>
        <pt x="477" y="650" on="1"/>
        <pt x="477" y="64" on="1"/>
        <pt x="477" y="38" on="0"/>
        <pt x="444" y="0" on="0"/>
        <pt x="421" y="0" on="1"/>
        <pt x="281" y="0" on="1"/>
        <pt x="258" y="0" on="0"/>
        <pt x="226" y="38" on="0"/>
        <pt x="226" y="64" on="1"/>
      </contour>
      <contour>
        <pt x="1222" y="871" on="1"/>
        <pt x="1222" y="1099" on="1"/>
        <pt x="477" y="1099" on="1"/>
        <pt x="477" y="871" on="1"/>
      </contour>
    </TTGlyph>
    <TTGlyph name="Hcircumflex" xMin="226" yMin="0" xMax="1473" yMax="1982">
      <contour>
        <pt x="226" y="1469" on="1"/>
        <pt x="226" y="1495" on="0"/>
        <pt x="259" y="1533" on="0"/>
        <pt x="282" y="1533" on="1"/>
        <pt x="422" y="1533" on="1"/>
        <pt x="445" y="1533" on="0"/>
        <pt x="477" y="1495" on="0"/>
        <pt x="477" y="1469" on="1"/>
        <pt x="477" y="871" on="1"/>
        <pt x="1222" y="871" on="1"/>
        <pt x="1222" y="1469" on="1"/>
        <pt x="1222" y="1495" on="0"/>
        <pt x="1255" y="1533" on="0"/>
        <pt x="1278" y="1533" on="1"/>
        <pt x="1418" y="1533" on="1"/>
        <pt x="1441" y="1533" on="0"/>
        <pt x="1473" y="1495" on="0"/>
        <pt x="1473" y="1469" on="1"/>
        <pt x="1473" y="65" on="1"/>
        <pt x="1473" y="39" on="0"/>
        <pt x="1440" y="1" on="0"/>
        <pt x="1417" y="1" on="1"/>
        <pt x="1277" y="1" on="1"/>
        <pt x="1254" y="1" on="0"/>
        <pt x="1222" y="39" on="0"/>
        <pt x="1222" y="65" on="1"/>
        <pt x="1222" y="650" on="1"/>
        <pt x="477" y="650" on="1"/>
        <pt x="477" y="64" on="1"/>
        <pt x="477" y="38" on="0"/>
        <pt x="444" y="0" on="0"/>
        <pt x="421" y="0" on="1"/>
        <pt x="281" y="0" on="1"/>
        <pt x="258" y="0" on="0"/>
        <pt x="226" y="38" on="0"/>
        <pt x="226" y="64" on="1"/>
      </contour>
      <contour>
        <pt x="615" y="1663" on="1"/>
        <pt x="604" y="1655" on="0"/>
        <pt x="574" y="1655" on="0"/>
        <pt x="562" y="1668" on="1"/>
        <pt x="509" y="1725" on="1"/>
        <pt x="500" y="1735" on="0"/>
        <pt x="500" y="1768" on="0"/>
        <pt x="513" y="1779" on="1"/>
        <pt x="713" y="1959" on="1"/>
        <pt x="738" y="1982" on="0"/>
        <pt x="766" y="1982" on="1"/>
        <pt x="949" y="1982" on="1"/>
        <pt x="979" y="1982" on="0"/>
        <pt x="1004" y="1959" on="1"/>
        <pt x="1202" y="1781" on="1"/>
        <pt x="1219" y="1768" on="0"/>
        <pt x="1219" y="1731" on="0"/>
        <pt x="1205" y="1716" on="1"/>
        <pt x="1165" y="1672" on="1"/>
        <pt x="1150" y="1656" on="0"/>
        <pt x="1119" y="1656" on="0"/>
        <pt x="1109" y="1663" on="1"/>
        <pt x="856" y="1829" on="1"/>
      </contour>
    </TTGlyph>
    <TTGlyph name="I" xMin="216" yMin="0" xMax="467" yMax="1533">
      <contour>
        <pt x="216" y="1469" on="1"/>
        <pt x="216" y="1495" on="0"/>
        <pt x="249" y="1533" on="0"/>
        <pt x="272" y="1533" on="1"/>
        <pt x="412" y="1533" on="1"/>
        <pt x="435" y="1533" on="0"/>
        <pt x="467" y="1495" on="0"/>
        <pt x="467" y="1469" on="1"/>
        <pt x="467" y="64" on="1"/>
        <pt x="467" y="38" on="0"/>
        <pt x="434" y="0" on="0"/>
        <pt x="411" y="0" on="1"/>
        <pt x="271" y="0" on="1"/>
        <pt x="248" y="0" on="0"/>
        <pt x="216" y="38" on="0"/>
        <pt x="216" y="64" on="1"/>
      </contour>
    </TTGlyph>
    <TTGlyph name="IJ" xMin="216" yMin="-26" xMax="1350" yMax="1533">
      <contour>
        <pt x="216" y="1469" on="1"/>
        <pt x="216" y="1495" on="0"/>
        <pt x="249" y="1533" on="0"/>
        <pt x="272" y="1533" on="1"/>
        <pt x="412" y="1533" on="1"/>
        <pt x="435" y="1533" on="0"/>
        <pt x="467" y="1495" on="0"/>
        <pt x="467" y="1469" on="1"/>
        <pt x="467" y="64" on="1"/>
        <pt x="467" y="38" on="0"/>
        <pt x="434" y="0" on="0"/>
        <pt x="411" y="0" on="1"/>
        <pt x="271" y="0" on="1"/>
        <pt x="248" y="0" on="0"/>
        <pt x="216" y="38" on="0"/>
        <pt x="216" y="64" on="1"/>
      </contour>
      <contour>
        <pt x="925" y="181" on="1"/>
        <pt x="1101" y="181" on="0"/>
        <pt x="1101" y="468" on="1"/>
        <pt x="1101" y="1469" on="1"/>
        <pt x="1101" y="1495" on="0"/>
        <pt x="1131" y="1533" on="0"/>
        <pt x="1154" y="1533" on="1"/>
        <pt x="1298" y="1533" on="1"/>
        <pt x="1320" y="1533" on="0"/>
        <pt x="1350" y="1495" on="0"/>
        <pt x="1350" y="1469" on="1"/>
        <pt x="1350" y="413" on="1"/>
        <pt x="1350" y="191" on="0"/>
        <pt x="1241" y="77" on="1"/>
        <pt x="1143" y="-26" on="0"/>
        <pt x="972" y="-26" on="1"/>
        <pt x="865" y="-26" on="0"/>
        <pt x="755" y="19" on="0"/>
        <pt x="714" y="60" on="0"/>
        <pt x="714" y="103" on="0"/>
        <pt x="719" y="119" on="1"/>
        <pt x="728" y="149" on="1"/>
        <pt x="748" y="214" on="0"/>
        <pt x="780" y="214" on="1"/>
        <pt x="789" y="214" on="0"/>
        <pt x="802" y="209" on="1"/>
        <pt x="833" y="198" on="1"/>
        <pt x="879" y="181" on="0"/>
      </contour>
    </TTGlyph>
    <TTGlyph name="Iacute" xMin="159" yMin="0" xMax="714" yMax="1992">
      <contour>
        <pt x="216" y="1469" on="1"/>
        <pt x="216" y="1495" on="0"/>
        <pt x="249" y="1533" on="0"/>
        <pt x="272" y="1533" on="1"/>
        <pt x="412" y="1533" on="1"/>
        <pt x="435" y="1533" on="0"/>
        <pt x="467" y="1495" on="0"/>
        <pt x="467" y="1469" on="1"/>
        <pt x="467" y="64" on="1"/>
        <pt x="467" y="38" on="0"/>
        <pt x="434" y="0" on="0"/>
        <pt x="411" y="0" on="1"/>
        <pt x="271" y="0" on="1"/>
        <pt x="248" y="0" on="0"/>
        <pt x="216" y="38" on="0"/>
        <pt x="216" y="64" on="1"/>
      </contour>
      <contour>
        <pt x="262" y="1631" on="1"/>
        <pt x="222" y="1617" on="0"/>
        <pt x="205" y="1651" on="1"/>
        <pt x="174" y="1718" on="1"/>
        <pt x="159" y="1748" on="0"/>
        <pt x="189" y="1765" on="1"/>
        <pt x="556" y="1976" on="1"/>
        <pt x="580" y="1992" on="0"/>
        <pt x="601" y="1992" on="1"/>
        <pt x="641" y="1992" on="0"/>
        <pt x="652" y="1966" on="1"/>
        <pt x="706" y="1851" on="1"/>
        <pt x="714" y="1835" on="0"/>
        <pt x="714" y="1821" on="1"/>
        <pt x="714" y="1784" on="0"/>
        <pt x="671" y="1769" on="1"/>
      </contour>
    </TTGlyph>
    <TTGlyph name="Ibreve" xMin="0" yMin="0" xMax="687" yMax="1994">
      <contour>
        <pt x="216" y="1469" on="1"/>
        <pt x="216" y="1495" on="0"/>
        <pt x="249" y="1533" on="0"/>
        <pt x="272" y="1533" on="1"/>
        <pt x="412" y="1533" on="1"/>
        <pt x="435" y="1533" on="0"/>
        <pt x="467" y="1495" on="0"/>
        <pt x="467" y="1469" on="1"/>
        <pt x="467" y="64" on="1"/>
        <pt x="467" y="38" on="0"/>
        <pt x="434" y="0" on="0"/>
        <pt x="411" y="0" on="1"/>
        <pt x="271" y="0" on="1"/>
        <pt x="248" y="0" on="0"/>
        <pt x="216" y="38" on="0"/>
        <pt x="216" y="64" on="1"/>
      </contour>
      <contour>
        <pt x="347" y="1662" on="1"/>
        <pt x="274" y="1662" on="0"/>
        <pt x="149" y="1705" on="0"/>
        <pt x="102" y="1743" on="1"/>
        <pt x="0" y="1825" on="0"/>
        <pt x="0" y="1949" on="1"/>
        <pt x="0" y="1983" on="0"/>
        <pt x="53" y="1986" on="1"/>
        <pt x="161" y="1991" on="1"/>
        <pt x="198" y="1994" on="0"/>
        <pt x="201" y="1960" on="1"/>
        <pt x="206" y="1886" on="0"/>
        <pt x="258" y="1854" on="1"/>
        <pt x="293" y="1832" on="0"/>
        <pt x="344" y="1832" on="1"/>
        <pt x="433" y="1832" on="0"/>
        <pt x="470" y="1886" on="1"/>
        <pt x="486" y="1910" on="0"/>
        <pt x="490" y="1943" on="1"/>
        <pt x="495" y="1994" on="0"/>
        <pt x="544" y="1991" on="1"/>
        <pt x="638" y="1986" on="1"/>
        <pt x="687" y="1982" on="0"/>
        <pt x="687" y="1944" on="1"/>
        <pt x="687" y="1827" on="0"/>
        <pt x="592" y="1746" on="1"/>
        <pt x="494" y="1662" on="0"/>
      </contour>
    </TTGlyph>
    <TTGlyph name="Icircumflex" xMin="-15" yMin="0" xMax="704" yMax="1982">
      <contour>
        <pt x="216" y="1469" on="1"/>
        <pt x="216" y="1495" on="0"/>
        <pt x="249" y="1533" on="0"/>
        <pt x="272" y="1533" on="1"/>
        <pt x="412" y="1533" on="1"/>
        <pt x="435" y="1533" on="0"/>
        <pt x="467" y="1495" on="0"/>
        <pt x="467" y="1469" on="1"/>
        <pt x="467" y="64" on="1"/>
        <pt x="467" y="38" on="0"/>
        <pt x="434" y="0" on="0"/>
        <pt x="411" y="0" on="1"/>
        <pt x="271" y="0" on="1"/>
        <pt x="248" y="0" on="0"/>
        <pt x="216" y="38" on="0"/>
        <pt x="216" y="64" on="1"/>
      </contour>
      <contour>
        <pt x="100" y="1663" on="1"/>
        <pt x="89" y="1655" on="0"/>
        <pt x="59" y="1655" on="0"/>
        <pt x="47" y="1668" on="1"/>
        <pt x="-6" y="1725" on="1"/>
        <pt x="-15" y="1735" on="0"/>
        <pt x="-15" y="1768" on="0"/>
        <pt x="-2" y="1779" on="1"/>
        <pt x="198" y="1959" on="1"/>
        <pt x="223" y="1982" on="0"/>
        <pt x="251" y="1982" on="1"/>
        <pt x="434" y="1982" on="1"/>
        <pt x="464" y="1982" on="0"/>
        <pt x="489" y="1959" on="1"/>
        <pt x="687" y="1781" on="1"/>
        <pt x="704" y="1768" on="0"/>
        <pt x="704" y="1731" on="0"/>
        <pt x="690" y="1716" on="1"/>
        <pt x="650" y="1672" on="1"/>
        <pt x="635" y="1656" on="0"/>
        <pt x="604" y="1656" on="0"/>
        <pt x="594" y="1663" on="1"/>
        <pt x="341" y="1829" on="1"/>
      </contour>
    </TTGlyph>
    <TTGlyph name="Idieresis" xMin="-60" yMin="0" xMax="744" yMax="1972">
      <contour>
        <pt x="216" y="1469" on="1"/>
        <pt x="216" y="1495" on="0"/>
        <pt x="249" y="1533" on="0"/>
        <pt x="272" y="1533" on="1"/>
        <pt x="412" y="1533" on="1"/>
        <pt x="435" y="1533" on="0"/>
        <pt x="467" y="1495" on="0"/>
        <pt x="467" y="1469" on="1"/>
        <pt x="467" y="64" on="1"/>
        <pt x="467" y="38" on="0"/>
        <pt x="434" y="0" on="0"/>
        <pt x="411" y="0" on="1"/>
        <pt x="271" y="0" on="1"/>
        <pt x="248" y="0" on="0"/>
        <pt x="216" y="38" on="0"/>
        <pt x="216" y="64" on="1"/>
      </contour>
      <contour>
        <pt x="595" y="1668" on="1"/>
        <pt x="534" y="1668" on="0"/>
        <pt x="489" y="1712" on="1"/>
        <pt x="446" y="1756" on="0"/>
        <pt x="446" y="1821" on="1"/>
        <pt x="446" y="1920" on="0"/>
        <pt x="537" y="1960" on="1"/>
        <pt x="564" y="1972" on="0"/>
        <pt x="595" y="1972" on="1"/>
        <pt x="656" y="1972" on="0"/>
        <pt x="744" y="1884" on="0"/>
        <pt x="744" y="1789" on="0"/>
        <pt x="720" y="1733" on="0"/>
        <pt x="700" y="1712" on="1"/>
        <pt x="657" y="1668" on="0"/>
      </contour>
      <contour>
        <pt x="174" y="1692" on="0"/>
        <pt x="121" y="1668" on="0"/>
        <pt x="59" y="1668" on="0"/>
        <pt x="4" y="1692" on="0"/>
        <pt x="-16" y="1712" on="1"/>
        <pt x="-60" y="1758" on="0"/>
        <pt x="-60" y="1852" on="0"/>
        <pt x="-36" y="1908" on="0"/>
        <pt x="-16" y="1928" on="1"/>
        <pt x="28" y="1972" on="0"/>
        <pt x="91" y="1972" on="1"/>
        <pt x="149" y="1972" on="0"/>
        <pt x="195" y="1928" on="1"/>
        <pt x="238" y="1886" on="0"/>
        <pt x="238" y="1789" on="0"/>
        <pt x="215" y="1733" on="0"/>
      </contour>
    </TTGlyph>
    <TTGlyph name="Idotaccent" xMin="177" yMin="0" xMax="504" yMax="1992">
      <contour>
        <pt x="216" y="1469" on="1"/>
        <pt x="216" y="1495" on="0"/>
        <pt x="249" y="1533" on="0"/>
        <pt x="272" y="1533" on="1"/>
        <pt x="412" y="1533" on="1"/>
        <pt x="435" y="1533" on="0"/>
        <pt x="467" y="1495" on="0"/>
        <pt x="467" y="1469" on="1"/>
        <pt x="467" y="64" on="1"/>
        <pt x="467" y="38" on="0"/>
        <pt x="434" y="0" on="0"/>
        <pt x="411" y="0" on="1"/>
        <pt x="271" y="0" on="1"/>
        <pt x="248" y="0" on="0"/>
        <pt x="216" y="38" on="0"/>
        <pt x="216" y="64" on="1"/>
      </contour>
      <contour>
        <pt x="341" y="1667" on="1"/>
        <pt x="273" y="1667" on="0"/>
        <pt x="225" y="1714" on="1"/>
        <pt x="177" y="1760" on="0"/>
        <pt x="177" y="1830" on="1"/>
        <pt x="177" y="1898" on="0"/>
        <pt x="225" y="1946" on="1"/>
        <pt x="271" y="1992" on="0"/>
        <pt x="341" y="1992" on="1"/>
        <pt x="448" y="1992" on="0"/>
        <pt x="491" y="1894" on="1"/>
        <pt x="504" y="1865" on="0"/>
        <pt x="504" y="1830" on="1"/>
        <pt x="504" y="1760" on="0"/>
        <pt x="456" y="1714" on="1"/>
        <pt x="408" y="1667" on="0"/>
      </contour>
    </TTGlyph>
    <TTGlyph name="Igrave" xMin="-12" yMin="0" xMax="543" yMax="1992">
      <contour>
        <pt x="216" y="1469" on="1"/>
        <pt x="216" y="1495" on="0"/>
        <pt x="249" y="1533" on="0"/>
        <pt x="272" y="1533" on="1"/>
        <pt x="412" y="1533" on="1"/>
        <pt x="435" y="1533" on="0"/>
        <pt x="467" y="1495" on="0"/>
        <pt x="467" y="1469" on="1"/>
        <pt x="467" y="64" on="1"/>
        <pt x="467" y="38" on="0"/>
        <pt x="434" y="0" on="0"/>
        <pt x="411" y="0" on="1"/>
        <pt x="271" y="0" on="1"/>
        <pt x="248" y="0" on="0"/>
        <pt x="216" y="38" on="0"/>
        <pt x="216" y="64" on="1"/>
      </contour>
      <contour>
        <pt x="31" y="1769" on="1"/>
        <pt x="-12" y="1784" on="0"/>
        <pt x="-12" y="1821" on="1"/>
        <pt x="-12" y="1835" on="0"/>
        <pt x="-4" y="1851" on="1"/>
        <pt x="50" y="1966" on="1"/>
        <pt x="61" y="1992" on="0"/>
        <pt x="122" y="1992" on="0"/>
        <pt x="146" y="1976" on="1"/>
        <pt x="513" y="1765" on="1"/>
        <pt x="543" y="1748" on="0"/>
        <pt x="528" y="1718" on="1"/>
        <pt x="497" y="1651" on="1"/>
        <pt x="480" y="1617" on="0"/>
        <pt x="440" y="1631" on="1"/>
      </contour>
    </TTGlyph>
    <TTGlyph name="Imacron" xMin="38" yMin="0" xMax="643" yMax="1931">
      <contour>
        <pt x="216" y="1469" on="1"/>
        <pt x="216" y="1495" on="0"/>
        <pt x="249" y="1533" on="0"/>
        <pt x="272" y="1533" on="1"/>
        <pt x="412" y="1533" on="1"/>
        <pt x="435" y="1533" on="0"/>
        <pt x="467" y="1495" on="0"/>
        <pt x="467" y="1469" on="1"/>
        <pt x="467" y="64" on="1"/>
        <pt x="467" y="38" on="0"/>
        <pt x="434" y="0" on="0"/>
        <pt x="411" y="0" on="1"/>
        <pt x="271" y="0" on="1"/>
        <pt x="248" y="0" on="0"/>
        <pt x="216" y="38" on="0"/>
        <pt x="216" y="64" on="1"/>
      </contour>
      <contour>
        <pt x="64" y="1714" on="0"/>
        <pt x="38" y="1735" on="0"/>
        <pt x="38" y="1752" on="1"/>
        <pt x="38" y="1894" on="1"/>
        <pt x="38" y="1910" on="0"/>
        <pt x="64" y="1931" on="0"/>
        <pt x="81" y="1931" on="1"/>
        <pt x="599" y="1931" on="1"/>
        <pt x="617" y="1931" on="0"/>
        <pt x="643" y="1910" on="0"/>
        <pt x="643" y="1893" on="1"/>
        <pt x="643" y="1751" on="1"/>
        <pt x="643" y="1735" on="0"/>
        <pt x="617" y="1714" on="0"/>
        <pt x="599" y="1714" on="1"/>
        <pt x="81" y="1714" on="1"/>
      </contour>
    </TTGlyph>
    <TTGlyph name="Iogonek" xMin="125" yMin="-480" xMax="575" yMax="1533">
      <contour>
        <pt x="526" y="-279" on="1"/>
        <pt x="575" y="-279" on="0"/>
        <pt x="575" y="-369" on="1"/>
        <pt x="575" y="-457" on="0"/>
        <pt x="427" y="-476" on="1"/>
        <pt x="396" y="-480" on="0"/>
        <pt x="317" y="-480" on="0"/>
        <pt x="231" y="-451" on="0"/>
        <pt x="198" y="-424" on="1"/>
        <pt x="125" y="-363" on="0"/>
        <pt x="125" y="-274" on="1"/>
        <pt x="125" y="-102" on="0"/>
        <pt x="281" y="0" on="1"/>
        <pt x="230" y="0" on="0"/>
        <pt x="219" y="42" on="1"/>
        <pt x="216" y="53" on="0"/>
        <pt x="216" y="64" on="1"/>
        <pt x="216" y="1469" on="1"/>
        <pt x="216" y="1495" on="0"/>
        <pt x="249" y="1533" on="0"/>
        <pt x="272" y="1533" on="1"/>
        <pt x="412" y="1533" on="1"/>
        <pt x="435" y="1533" on="0"/>
        <pt x="467" y="1495" on="0"/>
        <pt x="467" y="1469" on="1"/>
        <pt x="467" y="64" on="1"/>
        <pt x="467" y="26" on="0"/>
        <pt x="412" y="-18" on="0"/>
        <pt x="364" y="-74" on="0"/>
        <pt x="348" y="-103" on="1"/>
        <pt x="313" y="-164" on="0"/>
        <pt x="313" y="-208" on="1"/>
        <pt x="313" y="-304" on="0"/>
        <pt x="402" y="-304" on="1"/>
        <pt x="432" y="-304" on="0"/>
        <pt x="519" y="-279" on="0"/>
      </contour>
    </TTGlyph>
    <TTGlyph name="Itilde" xMin="-57" yMin="0" xMax="715" yMax="1991">
      <contour>
        <pt x="216" y="1469" on="1"/>
        <pt x="216" y="1495" on="0"/>
        <pt x="249" y="1533" on="0"/>
        <pt x="272" y="1533" on="1"/>
        <pt x="412" y="1533" on="1"/>
        <pt x="435" y="1533" on="0"/>
        <pt x="467" y="1495" on="0"/>
        <pt x="467" y="1469" on="1"/>
        <pt x="467" y="64" on="1"/>
        <pt x="467" y="38" on="0"/>
        <pt x="434" y="0" on="0"/>
        <pt x="411" y="0" on="1"/>
        <pt x="271" y="0" on="1"/>
        <pt x="248" y="0" on="0"/>
        <pt x="216" y="38" on="0"/>
        <pt x="216" y="64" on="1"/>
      </contour>
      <contour>
        <pt x="-14" y="1691" on="1"/>
        <pt x="-57" y="1702" on="0"/>
        <pt x="-36" y="1787" on="0"/>
        <pt x="4" y="1864" on="0"/>
        <pt x="34" y="1896" on="1"/>
        <pt x="100" y="1970" on="0"/>
        <pt x="183" y="1970" on="1"/>
        <pt x="252" y="1970" on="0"/>
        <pt x="336" y="1910" on="1"/>
        <pt x="396" y="1868" on="1"/>
        <pt x="423" y="1849" on="0"/>
        <pt x="463" y="1849" on="0"/>
        <pt x="487" y="1864" on="0"/>
        <pt x="496" y="1875" on="1"/>
        <pt x="516" y="1897" on="0"/>
        <pt x="530" y="1948" on="0"/>
        <pt x="552" y="1991" on="0"/>
        <pt x="586" y="1991" on="0"/>
        <pt x="597" y="1988" on="1"/>
        <pt x="672" y="1969" on="1"/>
        <pt x="706" y="1958" on="0"/>
        <pt x="715" y="1930" on="0"/>
        <pt x="704" y="1850" on="0"/>
        <pt x="661" y="1761" on="0"/>
        <pt x="630" y="1728" on="1"/>
        <pt x="561" y="1655" on="0"/>
        <pt x="476" y="1655" on="1"/>
        <pt x="399" y="1655" on="0"/>
        <pt x="314" y="1712" on="1"/>
        <pt x="256" y="1753" on="1"/>
        <pt x="187" y="1800" on="0"/>
        <pt x="140" y="1730" on="1"/>
        <pt x="131" y="1717" on="0"/>
        <pt x="120" y="1682" on="0"/>
        <pt x="83" y="1659" on="0"/>
        <pt x="54" y="1666" on="1"/>
      </contour>
    </TTGlyph>
    <TTGlyph name="J" xMin="31" yMin="-26" xMax="667" yMax="1533">
      <contour>
        <pt x="242" y="181" on="1"/>
        <pt x="418" y="181" on="0"/>
        <pt x="418" y="468" on="1"/>
        <pt x="418" y="1469" on="1"/>
        <pt x="418" y="1495" on="0"/>
        <pt x="448" y="1533" on="0"/>
        <pt x="471" y="1533" on="1"/>
        <pt x="615" y="1533" on="1"/>
        <pt x="637" y="1533" on="0"/>
        <pt x="667" y="1495" on="0"/>
        <pt x="667" y="1469" on="1"/>
        <pt x="667" y="413" on="1"/>
        <pt x="667" y="191" on="0"/>
        <pt x="558" y="77" on="1"/>
        <pt x="460" y="-26" on="0"/>
        <pt x="289" y="-26" on="1"/>
        <pt x="182" y="-26" on="0"/>
        <pt x="72" y="19" on="0"/>
        <pt x="31" y="60" on="0"/>
        <pt x="31" y="103" on="0"/>
        <pt x="36" y="119" on="1"/>
        <pt x="45" y="149" on="1"/>
        <pt x="65" y="214" on="0"/>
        <pt x="97" y="214" on="1"/>
        <pt x="106" y="214" on="0"/>
        <pt x="119" y="209" on="1"/>
        <pt x="150" y="198" on="1"/>
        <pt x="196" y="181" on="0"/>
      </contour>
    </TTGlyph>
    <TTGlyph name="Jcircumflex" xMin="31" yMin="-26" xMax="894" yMax="1982">
      <contour>
        <pt x="242" y="181" on="1"/>
        <pt x="418" y="181" on="0"/>
        <pt x="418" y="468" on="1"/>
        <pt x="418" y="1469" on="1"/>
        <pt x="418" y="1495" on="0"/>
        <pt x="448" y="1533" on="0"/>
        <pt x="471" y="1533" on="1"/>
        <pt x="615" y="1533" on="1"/>
        <pt x="637" y="1533" on="0"/>
        <pt x="667" y="1495" on="0"/>
        <pt x="667" y="1469" on="1"/>
        <pt x="667" y="413" on="1"/>
        <pt x="667" y="191" on="0"/>
        <pt x="558" y="77" on="1"/>
        <pt x="460" y="-26" on="0"/>
        <pt x="289" y="-26" on="1"/>
        <pt x="182" y="-26" on="0"/>
        <pt x="72" y="19" on="0"/>
        <pt x="31" y="60" on="0"/>
        <pt x="31" y="103" on="0"/>
        <pt x="36" y="119" on="1"/>
        <pt x="45" y="149" on="1"/>
        <pt x="65" y="214" on="0"/>
        <pt x="97" y="214" on="1"/>
        <pt x="106" y="214" on="0"/>
        <pt x="119" y="209" on="1"/>
        <pt x="150" y="198" on="1"/>
        <pt x="196" y="181" on="0"/>
      </contour>
      <contour>
        <pt x="290" y="1663" on="1"/>
        <pt x="279" y="1655" on="0"/>
        <pt x="249" y="1655" on="0"/>
        <pt x="237" y="1668" on="1"/>
        <pt x="184" y="1725" on="1"/>
        <pt x="175" y="1735" on="0"/>
        <pt x="175" y="1768" on="0"/>
        <pt x="188" y="1779" on="1"/>
        <pt x="388" y="1959" on="1"/>
        <pt x="413" y="1982" on="0"/>
        <pt x="441" y="1982" on="1"/>
        <pt x="624" y="1982" on="1"/>
        <pt x="654" y="1982" on="0"/>
        <pt x="679" y="1959" on="1"/>
        <pt x="877" y="1781" on="1"/>
        <pt x="894" y="1768" on="0"/>
        <pt x="894" y="1731" on="0"/>
        <pt x="880" y="1716" on="1"/>
        <pt x="840" y="1672" on="1"/>
        <pt x="825" y="1656" on="0"/>
        <pt x="794" y="1656" on="0"/>
        <pt x="784" y="1663" on="1"/>
        <pt x="531" y="1829" on="1"/>
      </contour>
    </TTGlyph>
    <TTGlyph name="K" xMin="216" yMin="-75" xMax="1382" yMax="1539">
      <contour>
        <pt x="1269" y="212" on="1"/>
        <pt x="1309" y="214" on="1"/>
        <pt x="1353" y="214" on="0"/>
        <pt x="1364" y="175" on="1"/>
        <pt x="1370" y="152" on="0"/>
        <pt x="1382" y="111" on="0"/>
        <pt x="1382" y="60" on="0"/>
        <pt x="1352" y="24" on="0"/>
        <pt x="1328" y="11" on="1"/>
        <pt x="1169" y="-75" on="0"/>
        <pt x="982" y="82" on="1"/>
        <pt x="829" y="209" on="0"/>
        <pt x="651" y="503" on="1"/>
        <pt x="511" y="743" on="1"/>
        <pt x="536" y="792" on="0"/>
        <pt x="568" y="848" on="1"/>
        <pt x="704" y="1075" on="0"/>
        <pt x="786" y="1184" on="1"/>
        <pt x="953" y="1406" on="0"/>
        <pt x="1061" y="1499" on="1"/>
        <pt x="1107" y="1539" on="0"/>
        <pt x="1133" y="1539" on="1"/>
        <pt x="1180" y="1539" on="0"/>
        <pt x="1219" y="1508" on="1"/>
        <pt x="1252" y="1483" on="1"/>
        <pt x="1323" y="1430" on="0"/>
        <pt x="1288" y="1385" on="1"/>
        <pt x="1270" y="1361" on="0"/>
        <pt x="1216" y="1317" on="0"/>
        <pt x="1192" y="1293" on="1"/>
        <pt x="1100" y="1199" on="0"/>
        <pt x="1050" y="1143" on="1"/>
        <pt x="930" y="1003" on="0"/>
        <pt x="883" y="944" on="1"/>
        <pt x="804" y="840" on="1"/>
        <pt x="771" y="794" on="0"/>
        <pt x="749" y="758" on="1"/>
        <pt x="842" y="620" on="1"/>
        <pt x="907" y="528" on="1"/>
        <pt x="1115" y="240" on="0"/>
        <pt x="1230" y="216" on="1"/>
        <pt x="1249" y="212" on="0"/>
      </contour>
      <contour>
        <pt x="216" y="1469" on="1"/>
        <pt x="216" y="1495" on="0"/>
        <pt x="249" y="1533" on="0"/>
        <pt x="272" y="1533" on="1"/>
        <pt x="412" y="1533" on="1"/>
        <pt x="435" y="1533" on="0"/>
        <pt x="467" y="1495" on="0"/>
        <pt x="467" y="1469" on="1"/>
        <pt x="467" y="64" on="1"/>
        <pt x="467" y="38" on="0"/>
        <pt x="434" y="0" on="0"/>
        <pt x="411" y="0" on="1"/>
        <pt x="271" y="0" on="1"/>
        <pt x="248" y="0" on="0"/>
        <pt x="216" y="38" on="0"/>
        <pt x="216" y="64" on="1"/>
      </contour>
    </TTGlyph>
    <TTGlyph name="Kcommaaccent" xMin="216" yMin="-568" xMax="1382" yMax="1539">
      <contour>
        <pt x="596" y="-262" on="1"/>
        <pt x="588" y="-242" on="0"/>
        <pt x="588" y="-189" on="0"/>
        <pt x="614" y="-144" on="0"/>
        <pt x="635" y="-130" on="1"/>
        <pt x="677" y="-102" on="0"/>
        <pt x="764" y="-102" on="0"/>
        <pt x="820" y="-123" on="0"/>
        <pt x="841" y="-142" on="1"/>
        <pt x="888" y="-186" on="0"/>
        <pt x="888" y="-254" on="1"/>
        <pt x="888" y="-362" on="0"/>
        <pt x="784" y="-511" on="1"/>
        <pt x="746" y="-568" on="0"/>
        <pt x="699" y="-568" on="1"/>
        <pt x="685" y="-568" on="0"/>
        <pt x="671" y="-561" on="1"/>
        <pt x="638" y="-545" on="1"/>
        <pt x="617" y="-534" on="0"/>
        <pt x="617" y="-518" on="1"/>
        <pt x="617" y="-496" on="0"/>
        <pt x="635" y="-467" on="0"/>
        <pt x="652" y="-432" on="0"/>
        <pt x="661" y="-411" on="1"/>
        <pt x="684" y="-356" on="0"/>
        <pt x="686" y="-335" on="1"/>
        <pt x="621" y="-325" on="0"/>
      </contour>
      <contour>
        <pt x="1269" y="212" on="1"/>
        <pt x="1309" y="214" on="1"/>
        <pt x="1353" y="214" on="0"/>
        <pt x="1364" y="175" on="1"/>
        <pt x="1370" y="152" on="0"/>
        <pt x="1382" y="111" on="0"/>
        <pt x="1382" y="60" on="0"/>
        <pt x="1352" y="24" on="0"/>
        <pt x="1328" y="11" on="1"/>
        <pt x="1169" y="-75" on="0"/>
        <pt x="982" y="82" on="1"/>
        <pt x="829" y="209" on="0"/>
        <pt x="651" y="503" on="1"/>
        <pt x="511" y="743" on="1"/>
        <pt x="536" y="792" on="0"/>
        <pt x="568" y="848" on="1"/>
        <pt x="704" y="1075" on="0"/>
        <pt x="786" y="1184" on="1"/>
        <pt x="953" y="1406" on="0"/>
        <pt x="1061" y="1499" on="1"/>
        <pt x="1107" y="1539" on="0"/>
        <pt x="1133" y="1539" on="1"/>
        <pt x="1180" y="1539" on="0"/>
        <pt x="1219" y="1508" on="1"/>
        <pt x="1252" y="1483" on="1"/>
        <pt x="1323" y="1430" on="0"/>
        <pt x="1288" y="1385" on="1"/>
        <pt x="1270" y="1361" on="0"/>
        <pt x="1216" y="1317" on="0"/>
        <pt x="1192" y="1293" on="1"/>
        <pt x="1100" y="1199" on="0"/>
        <pt x="1050" y="1143" on="1"/>
        <pt x="930" y="1003" on="0"/>
        <pt x="883" y="944" on="1"/>
        <pt x="804" y="840" on="1"/>
        <pt x="771" y="794" on="0"/>
        <pt x="749" y="758" on="1"/>
        <pt x="842" y="620" on="1"/>
        <pt x="907" y="528" on="1"/>
        <pt x="1115" y="240" on="0"/>
        <pt x="1230" y="216" on="1"/>
        <pt x="1249" y="212" on="0"/>
      </contour>
      <contour>
        <pt x="216" y="1469" on="1"/>
        <pt x="216" y="1495" on="0"/>
        <pt x="249" y="1533" on="0"/>
        <pt x="272" y="1533" on="1"/>
        <pt x="412" y="1533" on="1"/>
        <pt x="435" y="1533" on="0"/>
        <pt x="467" y="1495" on="0"/>
        <pt x="467" y="1469" on="1"/>
        <pt x="467" y="64" on="1"/>
        <pt x="467" y="38" on="0"/>
        <pt x="434" y="0" on="0"/>
        <pt x="411" y="0" on="1"/>
        <pt x="271" y="0" on="1"/>
        <pt x="248" y="0" on="0"/>
        <pt x="216" y="38" on="0"/>
        <pt x="216" y="64" on="1"/>
      </contour>
    </TTGlyph>
    <TTGlyph name="L" xMin="239" yMin="0" xMax="1085" yMax="1533">
      <contour>
        <pt x="239" y="1469" on="1"/>
        <pt x="239" y="1495" on="0"/>
        <pt x="272" y="1533" on="0"/>
        <pt x="295" y="1533" on="1"/>
        <pt x="435" y="1533" on="1"/>
        <pt x="458" y="1533" on="0"/>
        <pt x="490" y="1495" on="0"/>
        <pt x="490" y="1469" on="1"/>
        <pt x="490" y="223" on="1"/>
        <pt x="1032" y="223" on="1"/>
        <pt x="1058" y="223" on="0"/>
        <pt x="1085" y="190" on="0"/>
        <pt x="1085" y="166" on="1"/>
        <pt x="1085" y="56" on="1"/>
        <pt x="1085" y="33" on="0"/>
        <pt x="1058" y="0" on="0"/>
        <pt x="1032" y="0" on="1"/>
        <pt x="294" y="0" on="1"/>
        <pt x="271" y="0" on="0"/>
        <pt x="239" y="38" on="0"/>
        <pt x="239" y="64" on="1"/>
      </contour>
    </TTGlyph>
    <TTGlyph name="Lacute" xMin="239" yMin="0" xMax="1085" yMax="1992">
      <contour>
        <pt x="239" y="1469" on="1"/>
        <pt x="239" y="1495" on="0"/>
        <pt x="272" y="1533" on="0"/>
        <pt x="295" y="1533" on="1"/>
        <pt x="435" y="1533" on="1"/>
        <pt x="458" y="1533" on="0"/>
        <pt x="490" y="1495" on="0"/>
        <pt x="490" y="1469" on="1"/>
        <pt x="490" y="223" on="1"/>
        <pt x="1032" y="223" on="1"/>
        <pt x="1058" y="223" on="0"/>
        <pt x="1085" y="190" on="0"/>
        <pt x="1085" y="166" on="1"/>
        <pt x="1085" y="56" on="1"/>
        <pt x="1085" y="33" on="0"/>
        <pt x="1058" y="0" on="0"/>
        <pt x="1032" y="0" on="1"/>
        <pt x="294" y="0" on="1"/>
        <pt x="271" y="0" on="0"/>
        <pt x="239" y="38" on="0"/>
        <pt x="239" y="64" on="1"/>
      </contour>
      <contour>
        <pt x="367" y="1631" on="1"/>
        <pt x="327" y="1617" on="0"/>
        <pt x="310" y="1651" on="1"/>
        <pt x="279" y="1718" on="1"/>
        <pt x="264" y="1748" on="0"/>
        <pt x="294" y="1765" on="1"/>
        <pt x="661" y="1976" on="1"/>
        <pt x="685" y="1992" on="0"/>
        <pt x="706" y="1992" on="1"/>
        <pt x="746" y="1992" on="0"/>
        <pt x="757" y="1966" on="1"/>
        <pt x="811" y="1851" on="1"/>
        <pt x="819" y="1835" on="0"/>
        <pt x="819" y="1821" on="1"/>
        <pt x="819" y="1784" on="0"/>
        <pt x="776" y="1769" on="1"/>
      </contour>
    </TTGlyph>
    <TTGlyph name="Lcaron" xMin="239" yMin="0" xMax="1085" yMax="1548">
      <contour>
        <pt x="239" y="1469" on="1"/>
        <pt x="239" y="1495" on="0"/>
        <pt x="272" y="1533" on="0"/>
        <pt x="295" y="1533" on="1"/>
        <pt x="435" y="1533" on="1"/>
        <pt x="458" y="1533" on="0"/>
        <pt x="490" y="1495" on="0"/>
        <pt x="490" y="1469" on="1"/>
        <pt x="490" y="223" on="1"/>
        <pt x="1032" y="223" on="1"/>
        <pt x="1058" y="223" on="0"/>
        <pt x="1085" y="190" on="0"/>
        <pt x="1085" y="166" on="1"/>
        <pt x="1085" y="56" on="1"/>
        <pt x="1085" y="33" on="0"/>
        <pt x="1058" y="0" on="0"/>
        <pt x="1032" y="0" on="1"/>
        <pt x="294" y="0" on="1"/>
        <pt x="271" y="0" on="0"/>
        <pt x="239" y="38" on="0"/>
        <pt x="239" y="64" on="1"/>
      </contour>
      <contour>
        <pt x="855" y="1294" on="1"/>
        <pt x="778" y="1318" on="0"/>
        <pt x="778" y="1418" on="1"/>
        <pt x="778" y="1506" on="0"/>
        <pt x="864" y="1538" on="1"/>
        <pt x="889" y="1548" on="0"/>
        <pt x="951" y="1548" on="0"/>
        <pt x="1001" y="1522" on="0"/>
        <pt x="1019" y="1500" on="1"/>
        <pt x="1054" y="1455" on="0"/>
        <pt x="1054" y="1358" on="0"/>
        <pt x="1035" y="1278" on="0"/>
        <pt x="1019" y="1238" on="1"/>
        <pt x="985" y="1150" on="0"/>
        <pt x="920" y="1052" on="0"/>
        <pt x="910" y="1042" on="1"/>
        <pt x="887" y="1017" on="0"/>
        <pt x="871" y="1017" on="1"/>
        <pt x="847" y="1017" on="0"/>
        <pt x="821" y="1030" on="1"/>
        <pt x="783" y="1049" on="0"/>
        <pt x="783" y="1070" on="1"/>
        <pt x="783" y="1083" on="0"/>
        <pt x="794" y="1109" on="1"/>
        <pt x="812" y="1152" on="1"/>
        <pt x="842" y="1223" on="0"/>
      </contour>
    </TTGlyph>
    <TTGlyph name="Lcommaaccent" xMin="239" yMin="-568" xMax="1085" yMax="1533">
      <contour>
        <pt x="239" y="1469" on="1"/>
        <pt x="239" y="1495" on="0"/>
        <pt x="272" y="1533" on="0"/>
        <pt x="295" y="1533" on="1"/>
        <pt x="435" y="1533" on="1"/>
        <pt x="458" y="1533" on="0"/>
        <pt x="490" y="1495" on="0"/>
        <pt x="490" y="1469" on="1"/>
        <pt x="490" y="223" on="1"/>
        <pt x="1032" y="223" on="1"/>
        <pt x="1058" y="223" on="0"/>
        <pt x="1085" y="190" on="0"/>
        <pt x="1085" y="166" on="1"/>
        <pt x="1085" y="56" on="1"/>
        <pt x="1085" y="33" on="0"/>
        <pt x="1058" y="0" on="0"/>
        <pt x="1032" y="0" on="1"/>
        <pt x="294" y="0" on="1"/>
        <pt x="271" y="0" on="0"/>
        <pt x="239" y="38" on="0"/>
        <pt x="239" y="64" on="1"/>
      </contour>
      <contour>
        <pt x="529" y="-262" on="1"/>
        <pt x="521" y="-242" on="0"/>
        <pt x="521" y="-189" on="0"/>
        <pt x="547" y="-144" on="0"/>
        <pt x="568" y="-130" on="1"/>
        <pt x="610" y="-102" on="0"/>
        <pt x="697" y="-102" on="0"/>
        <pt x="753" y="-123" on="0"/>
        <pt x="774" y="-142" on="1"/>
        <pt x="821" y="-186" on="0"/>
        <pt x="821" y="-254" on="1"/>
        <pt x="821" y="-362" on="0"/>
        <pt x="717" y="-511" on="1"/>
        <pt x="679" y="-568" on="0"/>
        <pt x="632" y="-568" on="1"/>
        <pt x="618" y="-568" on="0"/>
        <pt x="604" y="-561" on="1"/>
        <pt x="571" y="-545" on="1"/>
        <pt x="550" y="-534" on="0"/>
        <pt x="550" y="-518" on="1"/>
        <pt x="550" y="-496" on="0"/>
        <pt x="568" y="-467" on="0"/>
        <pt x="585" y="-432" on="0"/>
        <pt x="594" y="-411" on="1"/>
        <pt x="617" y="-356" on="0"/>
        <pt x="619" y="-335" on="1"/>
        <pt x="554" y="-325" on="0"/>
      </contour>
    </TTGlyph>
    <TTGlyph name="Ldot" xMin="240" yMin="0" xMax="1110" yMax="1533">
      <contour>
        <pt x="240" y="1469" on="1"/>
        <pt x="240" y="1495" on="0"/>
        <pt x="273" y="1533" on="0"/>
        <pt x="296" y="1533" on="1"/>
        <pt x="436" y="1533" on="1"/>
        <pt x="459" y="1533" on="0"/>
        <pt x="491" y="1495" on="0"/>
        <pt x="491" y="1469" on="1"/>
        <pt x="491" y="223" on="1"/>
        <pt x="1033" y="223" on="1"/>
        <pt x="1059" y="223" on="0"/>
        <pt x="1086" y="190" on="0"/>
        <pt x="1086" y="166" on="1"/>
        <pt x="1086" y="56" on="1"/>
        <pt x="1086" y="33" on="0"/>
        <pt x="1059" y="0" on="0"/>
        <pt x="1033" y="0" on="1"/>
        <pt x="295" y="0" on="1"/>
        <pt x="272" y="0" on="0"/>
        <pt x="240" y="38" on="0"/>
        <pt x="240" y="64" on="1"/>
      </contour>
      <contour>
        <pt x="947" y="614" on="1"/>
        <pt x="879" y="614" on="0"/>
        <pt x="831" y="660" on="1"/>
        <pt x="783" y="707" on="0"/>
        <pt x="783" y="777" on="1"/>
        <pt x="783" y="845" on="0"/>
        <pt x="831" y="893" on="1"/>
        <pt x="877" y="939" on="0"/>
        <pt x="947" y="939" on="1"/>
        <pt x="1054" y="939" on="0"/>
        <pt x="1097" y="842" on="1"/>
        <pt x="1110" y="812" on="0"/>
        <pt x="1110" y="777" on="1"/>
        <pt x="1110" y="707" on="0"/>
        <pt x="1062" y="660" on="1"/>
        <pt x="1014" y="614" on="0"/>
      </contour>
    </TTGlyph>
    <TTGlyph name="Lslash" xMin="70" yMin="0" xMax="1085" yMax="1533">
      <contour>
        <pt x="159" y="389" on="1"/>
        <pt x="147" y="380" on="0"/>
        <pt x="118" y="380" on="0"/>
        <pt x="94" y="404" on="0"/>
        <pt x="90" y="423" on="1"/>
        <pt x="71" y="513" on="1"/>
        <pt x="70" y="517" on="0"/>
        <pt x="70" y="530" on="1"/>
        <pt x="70" y="555" on="0"/>
        <pt x="99" y="579" on="1"/>
        <pt x="740" y="1021" on="1"/>
        <pt x="761" y="1038" on="0"/>
        <pt x="803" y="1038" on="0"/>
        <pt x="832" y="1008" on="0"/>
        <pt x="835" y="982" on="1"/>
        <pt x="844" y="893" on="1"/>
        <pt x="844" y="888" on="1"/>
        <pt x="844" y="853" on="0"/>
        <pt x="816" y="831" on="1"/>
      </contour>
      <contour>
        <pt x="239" y="1469" on="1"/>
        <pt x="239" y="1495" on="0"/>
        <pt x="272" y="1533" on="0"/>
        <pt x="295" y="1533" on="1"/>
        <pt x="435" y="1533" on="1"/>
        <pt x="458" y="1533" on="0"/>
        <pt x="490" y="1495" on="0"/>
        <pt x="490" y="1469" on="1"/>
        <pt x="490" y="223" on="1"/>
        <pt x="1032" y="223" on="1"/>
        <pt x="1058" y="223" on="0"/>
        <pt x="1085" y="190" on="0"/>
        <pt x="1085" y="166" on="1"/>
        <pt x="1085" y="56" on="1"/>
        <pt x="1085" y="33" on="0"/>
        <pt x="1058" y="0" on="0"/>
        <pt x="1032" y="0" on="1"/>
        <pt x="294" y="0" on="1"/>
        <pt x="271" y="0" on="0"/>
        <pt x="239" y="38" on="0"/>
        <pt x="239" y="64" on="1"/>
      </contour>
    </TTGlyph>
    <TTGlyph name="M" xMin="126" yMin="0" xMax="1909" yMax="1533">
      <contour>
        <pt x="1909" y="50" on="1"/>
        <pt x="1909" y="0" on="0"/>
        <pt x="1874" y="0" on="1"/>
        <pt x="1708" y="0" on="1"/>
        <pt x="1689" y="0" on="0"/>
        <pt x="1661" y="24" on="0"/>
        <pt x="1659" y="42" on="1"/>
        <pt x="1590" y="640" on="1"/>
        <pt x="1577" y="753" on="0"/>
        <pt x="1564" y="973" on="0"/>
        <pt x="1556" y="1093" on="1"/>
        <pt x="1546" y="1235" on="1"/>
        <pt x="1546" y="1239" on="0"/>
        <pt x="1541" y="1239" on="0"/>
        <pt x="1540" y="1236" on="1"/>
        <pt x="1495" y="1072" on="1"/>
        <pt x="1481" y="1022" on="0"/>
        <pt x="1464" y="972" on="1"/>
        <pt x="1152" y="123" on="1"/>
        <pt x="1147" y="108" on="0"/>
        <pt x="1117" y="82" on="0"/>
        <pt x="1102" y="82" on="1"/>
        <pt x="945" y="82" on="1"/>
        <pt x="914" y="82" on="0"/>
        <pt x="895" y="122" on="1"/>
        <pt x="548" y="935" on="0"/>
        <pt x="503" y="1048" on="0"/>
        <pt x="486" y="1099" on="1"/>
        <pt x="441" y="1237" on="1"/>
        <pt x="440" y="1240" on="0"/>
        <pt x="435" y="1240" on="0"/>
        <pt x="434" y="1236" on="1"/>
        <pt x="434" y="1074" on="1"/>
        <pt x="434" y="862" on="0"/>
        <pt x="417" y="641" on="1"/>
        <pt x="372" y="42" on="1"/>
        <pt x="370" y="26" on="0"/>
        <pt x="337" y="0" on="0"/>
        <pt x="319" y="0" on="1"/>
        <pt x="181" y="0" on="1"/>
        <pt x="157" y="0" on="0"/>
        <pt x="126" y="42" on="0"/>
        <pt x="129" y="72" on="1"/>
        <pt x="249" y="1388" on="1"/>
        <pt x="256" y="1471" on="0"/>
        <pt x="269" y="1493" on="1"/>
        <pt x="292" y="1533" on="0"/>
        <pt x="353" y="1533" on="1"/>
        <pt x="461" y="1533" on="1"/>
        <pt x="510" y="1533" on="0"/>
        <pt x="529" y="1520" on="1"/>
        <pt x="564" y="1497" on="0"/>
        <pt x="590" y="1433" on="1"/>
        <pt x="1021" y="383" on="1"/>
        <pt x="1398" y="1434" on="1"/>
        <pt x="1431" y="1533" on="0"/>
        <pt x="1510" y="1533" on="1"/>
        <pt x="1623" y="1533" on="1"/>
        <pt x="1711" y="1533" on="0"/>
        <pt x="1726" y="1452" on="1"/>
        <pt x="1730" y="1426" on="0"/>
        <pt x="1734" y="1396" on="1"/>
        <pt x="1907" y="71" on="1"/>
        <pt x="1909" y="61" on="0"/>
      </contour>
    </TTGlyph>
    <TTGlyph name="N" xMin="241" yMin="0" xMax="1469" yMax="1533">
      <contour>
        <pt x="241" y="1409" on="1"/>
        <pt x="241" y="1533" on="0"/>
        <pt x="349" y="1533" on="1"/>
        <pt x="390" y="1533" on="1"/>
        <pt x="431" y="1533" on="0"/>
        <pt x="447" y="1523" on="1"/>
        <pt x="477" y="1505" on="0"/>
        <pt x="503" y="1466" on="1"/>
        <pt x="1147" y="518" on="1"/>
        <pt x="1184" y="464" on="0"/>
        <pt x="1205" y="419" on="1"/>
        <pt x="1246" y="333" on="1"/>
        <pt x="1247" y="331" on="0"/>
        <pt x="1252" y="331" on="0"/>
        <pt x="1248" y="383" on="0"/>
        <pt x="1232" y="482" on="0"/>
        <pt x="1232" y="531" on="1"/>
        <pt x="1232" y="1472" on="1"/>
        <pt x="1232" y="1498" on="0"/>
        <pt x="1263" y="1533" on="0"/>
        <pt x="1285" y="1533" on="1"/>
        <pt x="1417" y="1533" on="1"/>
        <pt x="1438" y="1533" on="0"/>
        <pt x="1469" y="1498" on="0"/>
        <pt x="1469" y="1472" on="1"/>
        <pt x="1469" y="100" on="1"/>
        <pt x="1469" y="60" on="0"/>
        <pt x="1444" y="38" on="1"/>
        <pt x="1402" y="0" on="0"/>
        <pt x="1368" y="0" on="1"/>
        <pt x="1307" y="0" on="1"/>
        <pt x="1257" y="0" on="0"/>
        <pt x="1234" y="16" on="1"/>
        <pt x="1200" y="42" on="0"/>
        <pt x="1150" y="114" on="1"/>
        <pt x="579" y="949" on="0"/>
        <pt x="538" y="1016" on="1"/>
        <pt x="455" y="1155" on="1"/>
        <pt x="453" y="1158" on="0"/>
        <pt x="446" y="1158" on="0"/>
        <pt x="452" y="1128" on="0"/>
        <pt x="463" y="1057" on="0"/>
        <pt x="468" y="1014" on="1"/>
        <pt x="478" y="914" on="0"/>
        <pt x="478" y="828" on="1"/>
        <pt x="478" y="61" on="1"/>
        <pt x="478" y="36" on="0"/>
        <pt x="447" y="0" on="0"/>
        <pt x="425" y="0" on="1"/>
        <pt x="293" y="0" on="1"/>
        <pt x="272" y="0" on="0"/>
        <pt x="241" y="36" on="0"/>
        <pt x="241" y="61" on="1"/>
      </contour>
    </TTGlyph>
    <TTGlyph name="Nacute" xMin="241" yMin="0" xMax="1469" yMax="1992">
      <contour>
        <pt x="241" y="1409" on="1"/>
        <pt x="241" y="1533" on="0"/>
        <pt x="349" y="1533" on="1"/>
        <pt x="390" y="1533" on="1"/>
        <pt x="431" y="1533" on="0"/>
        <pt x="447" y="1523" on="1"/>
        <pt x="477" y="1505" on="0"/>
        <pt x="503" y="1466" on="1"/>
        <pt x="1147" y="518" on="1"/>
        <pt x="1184" y="464" on="0"/>
        <pt x="1205" y="419" on="1"/>
        <pt x="1246" y="333" on="1"/>
        <pt x="1247" y="331" on="0"/>
        <pt x="1252" y="331" on="0"/>
        <pt x="1248" y="383" on="0"/>
        <pt x="1232" y="482" on="0"/>
        <pt x="1232" y="531" on="1"/>
        <pt x="1232" y="1472" on="1"/>
        <pt x="1232" y="1498" on="0"/>
        <pt x="1263" y="1533" on="0"/>
        <pt x="1285" y="1533" on="1"/>
        <pt x="1417" y="1533" on="1"/>
        <pt x="1438" y="1533" on="0"/>
        <pt x="1469" y="1498" on="0"/>
        <pt x="1469" y="1472" on="1"/>
        <pt x="1469" y="100" on="1"/>
        <pt x="1469" y="60" on="0"/>
        <pt x="1444" y="38" on="1"/>
        <pt x="1402" y="0" on="0"/>
        <pt x="1368" y="0" on="1"/>
        <pt x="1307" y="0" on="1"/>
        <pt x="1257" y="0" on="0"/>
        <pt x="1234" y="16" on="1"/>
        <pt x="1200" y="42" on="0"/>
        <pt x="1150" y="114" on="1"/>
        <pt x="579" y="949" on="0"/>
        <pt x="538" y="1016" on="1"/>
        <pt x="455" y="1155" on="1"/>
        <pt x="453" y="1158" on="0"/>
        <pt x="446" y="1158" on="0"/>
        <pt x="452" y="1128" on="0"/>
        <pt x="463" y="1057" on="0"/>
        <pt x="468" y="1014" on="1"/>
        <pt x="478" y="914" on="0"/>
        <pt x="478" y="828" on="1"/>
        <pt x="478" y="61" on="1"/>
        <pt x="478" y="36" on="0"/>
        <pt x="447" y="0" on="0"/>
        <pt x="425" y="0" on="1"/>
        <pt x="293" y="0" on="1"/>
        <pt x="272" y="0" on="0"/>
        <pt x="241" y="36" on="0"/>
        <pt x="241" y="61" on="1"/>
      </contour>
      <contour>
        <pt x="789" y="1631" on="1"/>
        <pt x="749" y="1617" on="0"/>
        <pt x="732" y="1651" on="1"/>
        <pt x="701" y="1718" on="1"/>
        <pt x="686" y="1748" on="0"/>
        <pt x="716" y="1765" on="1"/>
        <pt x="1083" y="1976" on="1"/>
        <pt x="1107" y="1992" on="0"/>
        <pt x="1128" y="1992" on="1"/>
        <pt x="1168" y="1992" on="0"/>
        <pt x="1179" y="1966" on="1"/>
        <pt x="1233" y="1851" on="1"/>
        <pt x="1241" y="1835" on="0"/>
        <pt x="1241" y="1821" on="1"/>
        <pt x="1241" y="1784" on="0"/>
        <pt x="1198" y="1769" on="1"/>
      </contour>
    </TTGlyph>
    <TTGlyph name="Ncaron" xMin="241" yMin="0" xMax="1469" yMax="1983">
      <contour>
        <pt x="241" y="1409" on="1"/>
        <pt x="241" y="1533" on="0"/>
        <pt x="349" y="1533" on="1"/>
        <pt x="390" y="1533" on="1"/>
        <pt x="431" y="1533" on="0"/>
        <pt x="447" y="1523" on="1"/>
        <pt x="477" y="1505" on="0"/>
        <pt x="503" y="1466" on="1"/>
        <pt x="1147" y="518" on="1"/>
        <pt x="1184" y="464" on="0"/>
        <pt x="1205" y="419" on="1"/>
        <pt x="1246" y="333" on="1"/>
        <pt x="1247" y="331" on="0"/>
        <pt x="1252" y="331" on="0"/>
        <pt x="1248" y="383" on="0"/>
        <pt x="1232" y="482" on="0"/>
        <pt x="1232" y="531" on="1"/>
        <pt x="1232" y="1472" on="1"/>
        <pt x="1232" y="1498" on="0"/>
        <pt x="1263" y="1533" on="0"/>
        <pt x="1285" y="1533" on="1"/>
        <pt x="1417" y="1533" on="1"/>
        <pt x="1438" y="1533" on="0"/>
        <pt x="1469" y="1498" on="0"/>
        <pt x="1469" y="1472" on="1"/>
        <pt x="1469" y="100" on="1"/>
        <pt x="1469" y="60" on="0"/>
        <pt x="1444" y="38" on="1"/>
        <pt x="1402" y="0" on="0"/>
        <pt x="1368" y="0" on="1"/>
        <pt x="1307" y="0" on="1"/>
        <pt x="1257" y="0" on="0"/>
        <pt x="1234" y="16" on="1"/>
        <pt x="1200" y="42" on="0"/>
        <pt x="1150" y="114" on="1"/>
        <pt x="579" y="949" on="0"/>
        <pt x="538" y="1016" on="1"/>
        <pt x="455" y="1155" on="1"/>
        <pt x="453" y="1158" on="0"/>
        <pt x="446" y="1158" on="0"/>
        <pt x="452" y="1128" on="0"/>
        <pt x="463" y="1057" on="0"/>
        <pt x="468" y="1014" on="1"/>
        <pt x="478" y="914" on="0"/>
        <pt x="478" y="828" on="1"/>
        <pt x="478" y="61" on="1"/>
        <pt x="478" y="36" on="0"/>
        <pt x="447" y="0" on="0"/>
        <pt x="425" y="0" on="1"/>
        <pt x="293" y="0" on="1"/>
        <pt x="272" y="0" on="0"/>
        <pt x="241" y="36" on="0"/>
        <pt x="241" y="61" on="1"/>
      </contour>
      <contour>
        <pt x="783" y="1649" on="1"/>
        <pt x="753" y="1649" on="0"/>
        <pt x="728" y="1672" on="1"/>
        <pt x="530" y="1850" on="1"/>
        <pt x="513" y="1864" on="0"/>
        <pt x="513" y="1900" on="0"/>
        <pt x="527" y="1915" on="1"/>
        <pt x="567" y="1959" on="1"/>
        <pt x="582" y="1975" on="0"/>
        <pt x="613" y="1975" on="0"/>
        <pt x="623" y="1968" on="1"/>
        <pt x="878" y="1802" on="1"/>
        <pt x="1126" y="1975" on="1"/>
        <pt x="1137" y="1983" on="0"/>
        <pt x="1167" y="1983" on="0"/>
        <pt x="1179" y="1970" on="1"/>
        <pt x="1232" y="1913" on="1"/>
        <pt x="1241" y="1902" on="0"/>
        <pt x="1241" y="1870" on="0"/>
        <pt x="1228" y="1859" on="1"/>
        <pt x="1019" y="1672" on="1"/>
        <pt x="994" y="1649" on="0"/>
        <pt x="966" y="1649" on="1"/>
      </contour>
    </TTGlyph>
    <TTGlyph name="Ncommaaccent" xMin="241" yMin="-568" xMax="1469" yMax="1533">
      <contour>
        <pt x="241" y="1409" on="1"/>
        <pt x="241" y="1533" on="0"/>
        <pt x="349" y="1533" on="1"/>
        <pt x="390" y="1533" on="1"/>
        <pt x="431" y="1533" on="0"/>
        <pt x="447" y="1523" on="1"/>
        <pt x="477" y="1505" on="0"/>
        <pt x="503" y="1466" on="1"/>
        <pt x="1147" y="518" on="1"/>
        <pt x="1184" y="464" on="0"/>
        <pt x="1205" y="419" on="1"/>
        <pt x="1246" y="333" on="1"/>
        <pt x="1247" y="331" on="0"/>
        <pt x="1252" y="331" on="0"/>
        <pt x="1248" y="383" on="0"/>
        <pt x="1232" y="482" on="0"/>
        <pt x="1232" y="531" on="1"/>
        <pt x="1232" y="1472" on="1"/>
        <pt x="1232" y="1498" on="0"/>
        <pt x="1263" y="1533" on="0"/>
        <pt x="1285" y="1533" on="1"/>
        <pt x="1417" y="1533" on="1"/>
        <pt x="1438" y="1533" on="0"/>
        <pt x="1469" y="1498" on="0"/>
        <pt x="1469" y="1472" on="1"/>
        <pt x="1469" y="100" on="1"/>
        <pt x="1469" y="60" on="0"/>
        <pt x="1444" y="38" on="1"/>
        <pt x="1402" y="0" on="0"/>
        <pt x="1368" y="0" on="1"/>
        <pt x="1307" y="0" on="1"/>
        <pt x="1257" y="0" on="0"/>
        <pt x="1234" y="16" on="1"/>
        <pt x="1200" y="42" on="0"/>
        <pt x="1150" y="114" on="1"/>
        <pt x="579" y="949" on="0"/>
        <pt x="538" y="1016" on="1"/>
        <pt x="455" y="1155" on="1"/>
        <pt x="453" y="1158" on="0"/>
        <pt x="446" y="1158" on="0"/>
        <pt x="452" y="1128" on="0"/>
        <pt x="463" y="1057" on="0"/>
        <pt x="468" y="1014" on="1"/>
        <pt x="478" y="914" on="0"/>
        <pt x="478" y="828" on="1"/>
        <pt x="478" y="61" on="1"/>
        <pt x="478" y="36" on="0"/>
        <pt x="447" y="0" on="0"/>
        <pt x="425" y="0" on="1"/>
        <pt x="293" y="0" on="1"/>
        <pt x="272" y="0" on="0"/>
        <pt x="241" y="36" on="0"/>
        <pt x="241" y="61" on="1"/>
      </contour>
      <contour>
        <pt x="716" y="-262" on="1"/>
        <pt x="708" y="-242" on="0"/>
        <pt x="708" y="-189" on="0"/>
        <pt x="734" y="-144" on="0"/>
        <pt x="755" y="-130" on="1"/>
        <pt x="797" y="-102" on="0"/>
        <pt x="884" y="-102" on="0"/>
        <pt x="940" y="-123" on="0"/>
        <pt x="961" y="-142" on="1"/>
        <pt x="1008" y="-186" on="0"/>
        <pt x="1008" y="-254" on="1"/>
        <pt x="1008" y="-362" on="0"/>
        <pt x="904" y="-511" on="1"/>
        <pt x="866" y="-568" on="0"/>
        <pt x="819" y="-568" on="1"/>
        <pt x="805" y="-568" on="0"/>
        <pt x="791" y="-561" on="1"/>
        <pt x="758" y="-545" on="1"/>
        <pt x="737" y="-534" on="0"/>
        <pt x="737" y="-518" on="1"/>
        <pt x="737" y="-496" on="0"/>
        <pt x="755" y="-467" on="0"/>
        <pt x="772" y="-432" on="0"/>
        <pt x="781" y="-411" on="1"/>
        <pt x="804" y="-356" on="0"/>
        <pt x="806" y="-335" on="1"/>
        <pt x="741" y="-325" on="0"/>
      </contour>
    </TTGlyph>
    <TTGlyph name="Ntilde" xMin="241" yMin="0" xMax="1469" yMax="1991">
      <contour>
        <pt x="241" y="1409" on="1"/>
        <pt x="241" y="1533" on="0"/>
        <pt x="349" y="1533" on="1"/>
        <pt x="390" y="1533" on="1"/>
        <pt x="431" y="1533" on="0"/>
        <pt x="447" y="1523" on="1"/>
        <pt x="477" y="1505" on="0"/>
        <pt x="503" y="1466" on="1"/>
        <pt x="1147" y="518" on="1"/>
        <pt x="1184" y="464" on="0"/>
        <pt x="1205" y="419" on="1"/>
        <pt x="1246" y="333" on="1"/>
        <pt x="1247" y="331" on="0"/>
        <pt x="1252" y="331" on="0"/>
        <pt x="1248" y="383" on="0"/>
        <pt x="1232" y="482" on="0"/>
        <pt x="1232" y="531" on="1"/>
        <pt x="1232" y="1472" on="1"/>
        <pt x="1232" y="1498" on="0"/>
        <pt x="1263" y="1533" on="0"/>
        <pt x="1285" y="1533" on="1"/>
        <pt x="1417" y="1533" on="1"/>
        <pt x="1438" y="1533" on="0"/>
        <pt x="1469" y="1498" on="0"/>
        <pt x="1469" y="1472" on="1"/>
        <pt x="1469" y="100" on="1"/>
        <pt x="1469" y="60" on="0"/>
        <pt x="1444" y="38" on="1"/>
        <pt x="1402" y="0" on="0"/>
        <pt x="1368" y="0" on="1"/>
        <pt x="1307" y="0" on="1"/>
        <pt x="1257" y="0" on="0"/>
        <pt x="1234" y="16" on="1"/>
        <pt x="1200" y="42" on="0"/>
        <pt x="1150" y="114" on="1"/>
        <pt x="579" y="949" on="0"/>
        <pt x="538" y="1016" on="1"/>
        <pt x="455" y="1155" on="1"/>
        <pt x="453" y="1158" on="0"/>
        <pt x="446" y="1158" on="0"/>
        <pt x="452" y="1128" on="0"/>
        <pt x="463" y="1057" on="0"/>
        <pt x="468" y="1014" on="1"/>
        <pt x="478" y="914" on="0"/>
        <pt x="478" y="828" on="1"/>
        <pt x="478" y="61" on="1"/>
        <pt x="478" y="36" on="0"/>
        <pt x="447" y="0" on="0"/>
        <pt x="425" y="0" on="1"/>
        <pt x="293" y="0" on="1"/>
        <pt x="272" y="0" on="0"/>
        <pt x="241" y="36" on="0"/>
        <pt x="241" y="61" on="1"/>
      </contour>
      <contour>
        <pt x="543" y="1691" on="1"/>
        <pt x="500" y="1702" on="0"/>
        <pt x="521" y="1787" on="0"/>
        <pt x="561" y="1864" on="0"/>
        <pt x="591" y="1896" on="1"/>
        <pt x="657" y="1970" on="0"/>
        <pt x="740" y="1970" on="1"/>
        <pt x="809" y="1970" on="0"/>
        <pt x="893" y="1910" on="1"/>
        <pt x="953" y="1868" on="1"/>
        <pt x="980" y="1849" on="0"/>
        <pt x="1020" y="1849" on="0"/>
        <pt x="1044" y="1864" on="0"/>
        <pt x="1053" y="1875" on="1"/>
        <pt x="1073" y="1897" on="0"/>
        <pt x="1087" y="1948" on="0"/>
        <pt x="1109" y="1991" on="0"/>
        <pt x="1143" y="1991" on="0"/>
        <pt x="1154" y="1988" on="1"/>
        <pt x="1229" y="1969" on="1"/>
        <pt x="1263" y="1958" on="0"/>
        <pt x="1272" y="1930" on="0"/>
        <pt x="1261" y="1850" on="0"/>
        <pt x="1218" y="1761" on="0"/>
        <pt x="1187" y="1728" on="1"/>
        <pt x="1118" y="1655" on="0"/>
        <pt x="1033" y="1655" on="1"/>
        <pt x="956" y="1655" on="0"/>
        <pt x="871" y="1712" on="1"/>
        <pt x="813" y="1753" on="1"/>
        <pt x="744" y="1800" on="0"/>
        <pt x="697" y="1730" on="1"/>
        <pt x="688" y="1717" on="0"/>
        <pt x="677" y="1682" on="0"/>
        <pt x="640" y="1659" on="0"/>
        <pt x="611" y="1666" on="1"/>
      </contour>
    </TTGlyph>
    <TTGlyph name="O" xMin="115" yMin="-25" xMax="1594" yMax="1558">
      <contour>
        <pt x="160" y="468" on="0"/>
        <pt x="115" y="671" on="0"/>
        <pt x="115" y="948" on="0"/>
        <pt x="222" y="1234" on="0"/>
        <pt x="320" y="1338" on="1"/>
        <pt x="527" y="1558" on="0"/>
        <pt x="856" y="1558" on="1"/>
        <pt x="1206" y="1558" on="0"/>
        <pt x="1405" y="1333" on="1"/>
        <pt x="1594" y="1120" on="0"/>
        <pt x="1594" y="777" on="1"/>
        <pt x="1594" y="437" on="0"/>
        <pt x="1386" y="208" on="1"/>
        <pt x="1288" y="100" on="0"/>
        <pt x="1014" y="-25" on="0"/>
        <pt x="733" y="-25" on="0"/>
        <pt x="535" y="34" on="0"/>
        <pt x="372" y="141" on="0"/>
        <pt x="246" y="289" on="0"/>
      </contour>
      <contour>
        <pt x="386" y="784" on="1"/>
        <pt x="386" y="669" on="0"/>
        <pt x="441" y="463" on="0"/>
        <pt x="498" y="382" on="1"/>
        <pt x="624" y="205" on="0"/>
        <pt x="853" y="205" on="1"/>
        <pt x="1083" y="205" on="0"/>
        <pt x="1208" y="374" on="1"/>
        <pt x="1323" y="530" on="0"/>
        <pt x="1323" y="778" on="1"/>
        <pt x="1323" y="1012" on="0"/>
        <pt x="1206" y="1164" on="1"/>
        <pt x="1077" y="1329" on="0"/>
        <pt x="854" y="1329" on="1"/>
        <pt x="639" y="1329" on="0"/>
        <pt x="512" y="1175" on="1"/>
        <pt x="386" y="1024" on="0"/>
      </contour>
    </TTGlyph>
    <TTGlyph name="OE" xMin="115" yMin="-25" xMax="2079" yMax="1558">
      <contour>
        <pt x="1137" y="0" on="1"/>
        <pt x="980" y="-25" on="0"/>
        <pt x="734" y="-25" on="0"/>
        <pt x="536" y="35" on="0"/>
        <pt x="373" y="142" on="0"/>
        <pt x="247" y="291" on="0"/>
        <pt x="204" y="380" on="1"/>
        <pt x="115" y="563" on="0"/>
        <pt x="115" y="951" on="0"/>
        <pt x="222" y="1236" on="0"/>
        <pt x="320" y="1339" on="1"/>
        <pt x="527" y="1558" on="0"/>
        <pt x="856" y="1558" on="1"/>
        <pt x="1013" y="1558" on="0"/>
        <pt x="1140" y="1533" on="1"/>
        <pt x="2021" y="1533" on="1"/>
        <pt x="2047" y="1533" on="0"/>
        <pt x="2074" y="1500" on="0"/>
        <pt x="2074" y="1476" on="1"/>
        <pt x="2074" y="1368" on="1"/>
        <pt x="2074" y="1345" on="0"/>
        <pt x="2047" y="1312" on="0"/>
        <pt x="2021" y="1312" on="1"/>
        <pt x="1337" y="1312" on="1"/>
        <pt x="1337" y="874" on="1"/>
        <pt x="1881" y="874" on="1"/>
        <pt x="1907" y="874" on="0"/>
        <pt x="1934" y="841" on="0"/>
        <pt x="1934" y="817" on="1"/>
        <pt x="1934" y="709" on="1"/>
        <pt x="1934" y="686" on="0"/>
        <pt x="1907" y="653" on="0"/>
        <pt x="1881" y="653" on="1"/>
        <pt x="1337" y="653" on="1"/>
        <pt x="1337" y="221" on="1"/>
        <pt x="2026" y="221" on="1"/>
        <pt x="2052" y="221" on="0"/>
        <pt x="2079" y="188" on="0"/>
        <pt x="2079" y="164" on="1"/>
        <pt x="2079" y="56" on="1"/>
        <pt x="2079" y="33" on="0"/>
        <pt x="2052" y="0" on="0"/>
        <pt x="2026" y="0" on="1"/>
      </contour>
      <contour>
        <pt x="1086" y="1311" on="1"/>
        <pt x="972" y="1341" on="0"/>
        <pt x="745" y="1341" on="0"/>
        <pt x="572" y="1257" on="0"/>
        <pt x="512" y="1182" on="1"/>
        <pt x="386" y="1028" on="0"/>
        <pt x="386" y="781" on="1"/>
        <pt x="386" y="542" on="0"/>
        <pt x="496" y="382" on="1"/>
        <pt x="621" y="203" on="0"/>
        <pt x="849" y="192" on="1"/>
        <pt x="945" y="187" on="0"/>
        <pt x="1086" y="220" on="1"/>
      </contour>
    </TTGlyph>
    <TTGlyph name="Oacute" xMin="115" yMin="-25" xMax="1594" yMax="1992">
      <contour>
        <pt x="160" y="468" on="0"/>
        <pt x="115" y="671" on="0"/>
        <pt x="115" y="948" on="0"/>
        <pt x="222" y="1234" on="0"/>
        <pt x="320" y="1338" on="1"/>
        <pt x="527" y="1558" on="0"/>
        <pt x="856" y="1558" on="1"/>
        <pt x="1206" y="1558" on="0"/>
        <pt x="1405" y="1333" on="1"/>
        <pt x="1594" y="1120" on="0"/>
        <pt x="1594" y="777" on="1"/>
        <pt x="1594" y="437" on="0"/>
        <pt x="1386" y="208" on="1"/>
        <pt x="1288" y="100" on="0"/>
        <pt x="1014" y="-25" on="0"/>
        <pt x="733" y="-25" on="0"/>
        <pt x="535" y="34" on="0"/>
        <pt x="372" y="141" on="0"/>
        <pt x="246" y="289" on="0"/>
      </contour>
      <contour>
        <pt x="386" y="784" on="1"/>
        <pt x="386" y="669" on="0"/>
        <pt x="441" y="463" on="0"/>
        <pt x="498" y="382" on="1"/>
        <pt x="624" y="205" on="0"/>
        <pt x="853" y="205" on="1"/>
        <pt x="1083" y="205" on="0"/>
        <pt x="1208" y="374" on="1"/>
        <pt x="1323" y="530" on="0"/>
        <pt x="1323" y="778" on="1"/>
        <pt x="1323" y="1012" on="0"/>
        <pt x="1206" y="1164" on="1"/>
        <pt x="1077" y="1329" on="0"/>
        <pt x="854" y="1329" on="1"/>
        <pt x="639" y="1329" on="0"/>
        <pt x="512" y="1175" on="1"/>
        <pt x="386" y="1024" on="0"/>
      </contour>
      <contour>
        <pt x="771" y="1631" on="1"/>
        <pt x="731" y="1617" on="0"/>
        <pt x="714" y="1651" on="1"/>
        <pt x="683" y="1718" on="1"/>
        <pt x="668" y="1748" on="0"/>
        <pt x="698" y="1765" on="1"/>
        <pt x="1065" y="1976" on="1"/>
        <pt x="1089" y="1992" on="0"/>
        <pt x="1110" y="1992" on="1"/>
        <pt x="1150" y="1992" on="0"/>
        <pt x="1161" y="1966" on="1"/>
        <pt x="1215" y="1851" on="1"/>
        <pt x="1223" y="1835" on="0"/>
        <pt x="1223" y="1821" on="1"/>
        <pt x="1223" y="1784" on="0"/>
        <pt x="1180" y="1769" on="1"/>
      </contour>
    </TTGlyph>
    <TTGlyph name="Obreve" xMin="115" yMin="-25" xMax="1594" yMax="1994">
      <contour>
        <pt x="160" y="468" on="0"/>
        <pt x="115" y="671" on="0"/>
        <pt x="115" y="948" on="0"/>
        <pt x="222" y="1234" on="0"/>
        <pt x="320" y="1338" on="1"/>
        <pt x="527" y="1558" on="0"/>
        <pt x="856" y="1558" on="1"/>
        <pt x="1206" y="1558" on="0"/>
        <pt x="1405" y="1333" on="1"/>
        <pt x="1594" y="1120" on="0"/>
        <pt x="1594" y="777" on="1"/>
        <pt x="1594" y="437" on="0"/>
        <pt x="1386" y="208" on="1"/>
        <pt x="1288" y="100" on="0"/>
        <pt x="1014" y="-25" on="0"/>
        <pt x="733" y="-25" on="0"/>
        <pt x="535" y="34" on="0"/>
        <pt x="372" y="141" on="0"/>
        <pt x="246" y="289" on="0"/>
      </contour>
      <contour>
        <pt x="386" y="784" on="1"/>
        <pt x="386" y="669" on="0"/>
        <pt x="441" y="463" on="0"/>
        <pt x="498" y="382" on="1"/>
        <pt x="624" y="205" on="0"/>
        <pt x="853" y="205" on="1"/>
        <pt x="1083" y="205" on="0"/>
        <pt x="1208" y="374" on="1"/>
        <pt x="1323" y="530" on="0"/>
        <pt x="1323" y="778" on="1"/>
        <pt x="1323" y="1012" on="0"/>
        <pt x="1206" y="1164" on="1"/>
        <pt x="1077" y="1329" on="0"/>
        <pt x="854" y="1329" on="1"/>
        <pt x="639" y="1329" on="0"/>
        <pt x="512" y="1175" on="1"/>
        <pt x="386" y="1024" on="0"/>
      </contour>
      <contour>
        <pt x="852" y="1662" on="1"/>
        <pt x="779" y="1662" on="0"/>
        <pt x="654" y="1705" on="0"/>
        <pt x="607" y="1743" on="1"/>
        <pt x="505" y="1825" on="0"/>
        <pt x="505" y="1949" on="1"/>
        <pt x="505" y="1983" on="0"/>
        <pt x="558" y="1986" on="1"/>
        <pt x="666" y="1991" on="1"/>
        <pt x="703" y="1994" on="0"/>
        <pt x="706" y="1960" on="1"/>
        <pt x="711" y="1886" on="0"/>
        <pt x="763" y="1854" on="1"/>
        <pt x="798" y="1832" on="0"/>
        <pt x="849" y="1832" on="1"/>
        <pt x="938" y="1832" on="0"/>
        <pt x="975" y="1886" on="1"/>
        <pt x="991" y="1910" on="0"/>
        <pt x="995" y="1943" on="1"/>
        <pt x="1000" y="1994" on="0"/>
        <pt x="1049" y="1991" on="1"/>
        <pt x="1143" y="1986" on="1"/>
        <pt x="1192" y="1982" on="0"/>
        <pt x="1192" y="1944" on="1"/>
        <pt x="1192" y="1827" on="0"/>
        <pt x="1097" y="1746" on="1"/>
        <pt x="999" y="1662" on="0"/>
      </contour>
    </TTGlyph>
    <TTGlyph name="Ocircumflex" xMin="115" yMin="-25" xMax="1594" yMax="1982">
      <contour>
        <pt x="160" y="468" on="0"/>
        <pt x="115" y="671" on="0"/>
        <pt x="115" y="948" on="0"/>
        <pt x="222" y="1234" on="0"/>
        <pt x="320" y="1338" on="1"/>
        <pt x="527" y="1558" on="0"/>
        <pt x="856" y="1558" on="1"/>
        <pt x="1206" y="1558" on="0"/>
        <pt x="1405" y="1333" on="1"/>
        <pt x="1594" y="1120" on="0"/>
        <pt x="1594" y="777" on="1"/>
        <pt x="1594" y="437" on="0"/>
        <pt x="1386" y="208" on="1"/>
        <pt x="1288" y="100" on="0"/>
        <pt x="1014" y="-25" on="0"/>
        <pt x="733" y="-25" on="0"/>
        <pt x="535" y="34" on="0"/>
        <pt x="372" y="141" on="0"/>
        <pt x="246" y="289" on="0"/>
      </contour>
      <contour>
        <pt x="386" y="784" on="1"/>
        <pt x="386" y="669" on="0"/>
        <pt x="441" y="463" on="0"/>
        <pt x="498" y="382" on="1"/>
        <pt x="624" y="205" on="0"/>
        <pt x="853" y="205" on="1"/>
        <pt x="1083" y="205" on="0"/>
        <pt x="1208" y="374" on="1"/>
        <pt x="1323" y="530" on="0"/>
        <pt x="1323" y="778" on="1"/>
        <pt x="1323" y="1012" on="0"/>
        <pt x="1206" y="1164" on="1"/>
        <pt x="1077" y="1329" on="0"/>
        <pt x="854" y="1329" on="1"/>
        <pt x="639" y="1329" on="0"/>
        <pt x="512" y="1175" on="1"/>
        <pt x="386" y="1024" on="0"/>
      </contour>
      <contour>
        <pt x="608" y="1663" on="1"/>
        <pt x="597" y="1655" on="0"/>
        <pt x="567" y="1655" on="0"/>
        <pt x="555" y="1668" on="1"/>
        <pt x="502" y="1725" on="1"/>
        <pt x="493" y="1735" on="0"/>
        <pt x="493" y="1768" on="0"/>
        <pt x="506" y="1779" on="1"/>
        <pt x="706" y="1959" on="1"/>
        <pt x="731" y="1982" on="0"/>
        <pt x="759" y="1982" on="1"/>
        <pt x="942" y="1982" on="1"/>
        <pt x="972" y="1982" on="0"/>
        <pt x="997" y="1959" on="1"/>
        <pt x="1195" y="1781" on="1"/>
        <pt x="1212" y="1768" on="0"/>
        <pt x="1212" y="1731" on="0"/>
        <pt x="1198" y="1716" on="1"/>
        <pt x="1158" y="1672" on="1"/>
        <pt x="1143" y="1656" on="0"/>
        <pt x="1112" y="1656" on="0"/>
        <pt x="1102" y="1663" on="1"/>
        <pt x="849" y="1829" on="1"/>
      </contour>
    </TTGlyph>
    <TTGlyph name="Odieresis" xMin="115" yMin="-25" xMax="1594" yMax="1972">
      <contour>
        <pt x="160" y="468" on="0"/>
        <pt x="115" y="671" on="0"/>
        <pt x="115" y="948" on="0"/>
        <pt x="222" y="1234" on="0"/>
        <pt x="320" y="1338" on="1"/>
        <pt x="527" y="1558" on="0"/>
        <pt x="856" y="1558" on="1"/>
        <pt x="1206" y="1558" on="0"/>
        <pt x="1405" y="1333" on="1"/>
        <pt x="1594" y="1120" on="0"/>
        <pt x="1594" y="777" on="1"/>
        <pt x="1594" y="437" on="0"/>
        <pt x="1386" y="208" on="1"/>
        <pt x="1288" y="100" on="0"/>
        <pt x="1014" y="-25" on="0"/>
        <pt x="733" y="-25" on="0"/>
        <pt x="535" y="34" on="0"/>
        <pt x="372" y="141" on="0"/>
        <pt x="246" y="289" on="0"/>
      </contour>
      <contour>
        <pt x="386" y="784" on="1"/>
        <pt x="386" y="669" on="0"/>
        <pt x="441" y="463" on="0"/>
        <pt x="498" y="382" on="1"/>
        <pt x="624" y="205" on="0"/>
        <pt x="853" y="205" on="1"/>
        <pt x="1083" y="205" on="0"/>
        <pt x="1208" y="374" on="1"/>
        <pt x="1323" y="530" on="0"/>
        <pt x="1323" y="778" on="1"/>
        <pt x="1323" y="1012" on="0"/>
        <pt x="1206" y="1164" on="1"/>
        <pt x="1077" y="1329" on="0"/>
        <pt x="854" y="1329" on="1"/>
        <pt x="639" y="1329" on="0"/>
        <pt x="512" y="1175" on="1"/>
        <pt x="386" y="1024" on="0"/>
      </contour>
      <contour>
        <pt x="1104" y="1668" on="1"/>
        <pt x="1043" y="1668" on="0"/>
        <pt x="998" y="1712" on="1"/>
        <pt x="955" y="1756" on="0"/>
        <pt x="955" y="1821" on="1"/>
        <pt x="955" y="1920" on="0"/>
        <pt x="1046" y="1960" on="1"/>
        <pt x="1073" y="1972" on="0"/>
        <pt x="1104" y="1972" on="1"/>
        <pt x="1165" y="1972" on="0"/>
        <pt x="1253" y="1884" on="0"/>
        <pt x="1253" y="1789" on="0"/>
        <pt x="1229" y="1733" on="0"/>
        <pt x="1209" y="1712" on="1"/>
        <pt x="1166" y="1668" on="0"/>
      </contour>
      <contour>
        <pt x="683" y="1692" on="0"/>
        <pt x="630" y="1668" on="0"/>
        <pt x="568" y="1668" on="0"/>
        <pt x="513" y="1692" on="0"/>
        <pt x="493" y="1712" on="1"/>
        <pt x="449" y="1758" on="0"/>
        <pt x="449" y="1852" on="0"/>
        <pt x="473" y="1908" on="0"/>
        <pt x="493" y="1928" on="1"/>
        <pt x="537" y="1972" on="0"/>
        <pt x="600" y="1972" on="1"/>
        <pt x="658" y="1972" on="0"/>
        <pt x="704" y="1928" on="1"/>
        <pt x="747" y="1886" on="0"/>
        <pt x="747" y="1789" on="0"/>
        <pt x="724" y="1733" on="0"/>
      </contour>
    </TTGlyph>
    <TTGlyph name="Ograve" xMin="115" yMin="-25" xMax="1594" yMax="1992">
      <contour>
        <pt x="160" y="468" on="0"/>
        <pt x="115" y="671" on="0"/>
        <pt x="115" y="948" on="0"/>
        <pt x="222" y="1234" on="0"/>
        <pt x="320" y="1338" on="1"/>
        <pt x="527" y="1558" on="0"/>
        <pt x="856" y="1558" on="1"/>
        <pt x="1206" y="1558" on="0"/>
        <pt x="1405" y="1333" on="1"/>
        <pt x="1594" y="1120" on="0"/>
        <pt x="1594" y="777" on="1"/>
        <pt x="1594" y="437" on="0"/>
        <pt x="1386" y="208" on="1"/>
        <pt x="1288" y="100" on="0"/>
        <pt x="1014" y="-25" on="0"/>
        <pt x="733" y="-25" on="0"/>
        <pt x="535" y="34" on="0"/>
        <pt x="372" y="141" on="0"/>
        <pt x="246" y="289" on="0"/>
      </contour>
      <contour>
        <pt x="386" y="784" on="1"/>
        <pt x="386" y="669" on="0"/>
        <pt x="441" y="463" on="0"/>
        <pt x="498" y="382" on="1"/>
        <pt x="624" y="205" on="0"/>
        <pt x="853" y="205" on="1"/>
        <pt x="1083" y="205" on="0"/>
        <pt x="1208" y="374" on="1"/>
        <pt x="1323" y="530" on="0"/>
        <pt x="1323" y="778" on="1"/>
        <pt x="1323" y="1012" on="0"/>
        <pt x="1206" y="1164" on="1"/>
        <pt x="1077" y="1329" on="0"/>
        <pt x="854" y="1329" on="1"/>
        <pt x="639" y="1329" on="0"/>
        <pt x="512" y="1175" on="1"/>
        <pt x="386" y="1024" on="0"/>
      </contour>
      <contour>
        <pt x="546" y="1769" on="1"/>
        <pt x="503" y="1784" on="0"/>
        <pt x="503" y="1821" on="1"/>
        <pt x="503" y="1835" on="0"/>
        <pt x="511" y="1851" on="1"/>
        <pt x="565" y="1966" on="1"/>
        <pt x="576" y="1992" on="0"/>
        <pt x="637" y="1992" on="0"/>
        <pt x="661" y="1976" on="1"/>
        <pt x="1028" y="1765" on="1"/>
        <pt x="1058" y="1748" on="0"/>
        <pt x="1043" y="1718" on="1"/>
        <pt x="1012" y="1651" on="1"/>
        <pt x="995" y="1617" on="0"/>
        <pt x="955" y="1631" on="1"/>
      </contour>
    </TTGlyph>
    <TTGlyph name="Ohungarumlaut" xMin="115" yMin="-25" xMax="1594" yMax="1991">
      <contour>
        <pt x="160" y="468" on="0"/>
        <pt x="115" y="671" on="0"/>
        <pt x="115" y="948" on="0"/>
        <pt x="222" y="1234" on="0"/>
        <pt x="320" y="1338" on="1"/>
        <pt x="527" y="1558" on="0"/>
        <pt x="856" y="1558" on="1"/>
        <pt x="1206" y="1558" on="0"/>
        <pt x="1405" y="1333" on="1"/>
        <pt x="1594" y="1120" on="0"/>
        <pt x="1594" y="777" on="1"/>
        <pt x="1594" y="437" on="0"/>
        <pt x="1386" y="208" on="1"/>
        <pt x="1288" y="100" on="0"/>
        <pt x="1014" y="-25" on="0"/>
        <pt x="733" y="-25" on="0"/>
        <pt x="535" y="34" on="0"/>
        <pt x="372" y="141" on="0"/>
        <pt x="246" y="289" on="0"/>
      </contour>
      <contour>
        <pt x="386" y="784" on="1"/>
        <pt x="386" y="669" on="0"/>
        <pt x="441" y="463" on="0"/>
        <pt x="498" y="382" on="1"/>
        <pt x="624" y="205" on="0"/>
        <pt x="853" y="205" on="1"/>
        <pt x="1083" y="205" on="0"/>
        <pt x="1208" y="374" on="1"/>
        <pt x="1323" y="530" on="0"/>
        <pt x="1323" y="778" on="1"/>
        <pt x="1323" y="1012" on="0"/>
        <pt x="1206" y="1164" on="1"/>
        <pt x="1077" y="1329" on="0"/>
        <pt x="854" y="1329" on="1"/>
        <pt x="639" y="1329" on="0"/>
        <pt x="512" y="1175" on="1"/>
        <pt x="386" y="1024" on="0"/>
      </contour>
      <contour>
        <pt x="1009" y="1704" on="1"/>
        <pt x="998" y="1719" on="0"/>
        <pt x="998" y="1753" on="0"/>
        <pt x="1014" y="1764" on="1"/>
        <pt x="1307" y="1978" on="1"/>
        <pt x="1323" y="1991" on="0"/>
        <pt x="1342" y="1991" on="1"/>
        <pt x="1377" y="1991" on="0"/>
        <pt x="1396" y="1965" on="1"/>
        <pt x="1449" y="1887" on="1"/>
        <pt x="1460" y="1870" on="0"/>
        <pt x="1460" y="1852" on="1"/>
        <pt x="1460" y="1814" on="0"/>
        <pt x="1429" y="1799" on="1"/>
        <pt x="1107" y="1639" on="1"/>
        <pt x="1091" y="1631" on="0"/>
        <pt x="1057" y="1631" on="0"/>
        <pt x="1046" y="1648" on="1"/>
      </contour>
      <contour>
        <pt x="650" y="1640" on="1"/>
        <pt x="633" y="1629" on="0"/>
        <pt x="599" y="1629" on="0"/>
        <pt x="582" y="1648" on="1"/>
        <pt x="548" y="1687" on="1"/>
        <pt x="535" y="1701" on="0"/>
        <pt x="535" y="1712" on="1"/>
        <pt x="535" y="1728" on="0"/>
        <pt x="549" y="1744" on="1"/>
        <pt x="788" y="1969" on="1"/>
        <pt x="810" y="1991" on="0"/>
        <pt x="861" y="1991" on="0"/>
        <pt x="876" y="1976" on="1"/>
        <pt x="943" y="1908" on="1"/>
        <pt x="964" y="1887" on="0"/>
        <pt x="964" y="1834" on="0"/>
        <pt x="931" y="1811" on="1"/>
      </contour>
    </TTGlyph>
    <TTGlyph name="Omacron" xMin="115" yMin="-25" xMax="1594" yMax="1931">
      <contour>
        <pt x="160" y="468" on="0"/>
        <pt x="115" y="671" on="0"/>
        <pt x="115" y="948" on="0"/>
        <pt x="222" y="1234" on="0"/>
        <pt x="320" y="1338" on="1"/>
        <pt x="527" y="1558" on="0"/>
        <pt x="856" y="1558" on="1"/>
        <pt x="1206" y="1558" on="0"/>
        <pt x="1405" y="1333" on="1"/>
        <pt x="1594" y="1120" on="0"/>
        <pt x="1594" y="777" on="1"/>
        <pt x="1594" y="437" on="0"/>
        <pt x="1386" y="208" on="1"/>
        <pt x="1288" y="100" on="0"/>
        <pt x="1014" y="-25" on="0"/>
        <pt x="733" y="-25" on="0"/>
        <pt x="535" y="34" on="0"/>
        <pt x="372" y="141" on="0"/>
        <pt x="246" y="289" on="0"/>
      </contour>
      <contour>
        <pt x="386" y="784" on="1"/>
        <pt x="386" y="669" on="0"/>
        <pt x="441" y="463" on="0"/>
        <pt x="498" y="382" on="1"/>
        <pt x="624" y="205" on="0"/>
        <pt x="853" y="205" on="1"/>
        <pt x="1083" y="205" on="0"/>
        <pt x="1208" y="374" on="1"/>
        <pt x="1323" y="530" on="0"/>
        <pt x="1323" y="778" on="1"/>
        <pt x="1323" y="1012" on="0"/>
        <pt x="1206" y="1164" on="1"/>
        <pt x="1077" y="1329" on="0"/>
        <pt x="854" y="1329" on="1"/>
        <pt x="639" y="1329" on="0"/>
        <pt x="512" y="1175" on="1"/>
        <pt x="386" y="1024" on="0"/>
      </contour>
      <contour>
        <pt x="576" y="1714" on="0"/>
        <pt x="550" y="1735" on="0"/>
        <pt x="550" y="1752" on="1"/>
        <pt x="550" y="1894" on="1"/>
        <pt x="550" y="1910" on="0"/>
        <pt x="576" y="1931" on="0"/>
        <pt x="593" y="1931" on="1"/>
        <pt x="1111" y="1931" on="1"/>
        <pt x="1129" y="1931" on="0"/>
        <pt x="1155" y="1910" on="0"/>
        <pt x="1155" y="1893" on="1"/>
        <pt x="1155" y="1751" on="1"/>
        <pt x="1155" y="1735" on="0"/>
        <pt x="1129" y="1714" on="0"/>
        <pt x="1111" y="1714" on="1"/>
        <pt x="593" y="1714" on="1"/>
      </contour>
    </TTGlyph>
    <TTGlyph name="Omega" xMin="155" yMin="0" xMax="1734" yMax="1560">
      <contour>
        <pt x="155" y="162" on="1"/>
        <pt x="155" y="185" on="0"/>
        <pt x="192" y="218" on="0"/>
        <pt x="218" y="218" on="1"/>
        <pt x="385" y="218" on="1"/>
        <pt x="402" y="218" on="0"/>
        <pt x="428" y="215" on="1"/>
        <pt x="479" y="209" on="1"/>
        <pt x="479" y="209" on="0"/>
        <pt x="539" y="201" on="1"/>
        <pt x="544" y="201" on="0"/>
        <pt x="544" y="208" on="0"/>
        <pt x="541" y="210" on="1"/>
        <pt x="377" y="294" on="0"/>
        <pt x="284" y="461" on="1"/>
        <pt x="190" y="627" on="0"/>
        <pt x="190" y="1003" on="0"/>
        <pt x="297" y="1268" on="0"/>
        <pt x="394" y="1362" on="1"/>
        <pt x="598" y="1560" on="0"/>
        <pt x="931" y="1560" on="1"/>
        <pt x="1265" y="1560" on="0"/>
        <pt x="1470" y="1361" on="1"/>
        <pt x="1675" y="1162" on="0"/>
        <pt x="1675" y="838" on="1"/>
        <pt x="1675" y="534" on="0"/>
        <pt x="1460" y="322" on="1"/>
        <pt x="1394" y="257" on="0"/>
        <pt x="1317" y="210" on="1"/>
        <pt x="1314" y="208" on="0"/>
        <pt x="1314" y="200" on="0"/>
        <pt x="1323" y="200" on="0"/>
        <pt x="1358" y="206" on="0"/>
        <pt x="1380" y="209" on="1"/>
        <pt x="1421" y="215" on="1"/>
        <pt x="1441" y="218" on="0"/>
        <pt x="1448" y="218" on="1"/>
        <pt x="1681" y="218" on="1"/>
        <pt x="1707" y="218" on="0"/>
        <pt x="1734" y="185" on="0"/>
        <pt x="1734" y="161" on="1"/>
        <pt x="1734" y="56" on="1"/>
        <pt x="1734" y="33" on="0"/>
        <pt x="1706" y="0" on="0"/>
        <pt x="1680" y="0" on="1"/>
        <pt x="1138" y="0" on="1"/>
        <pt x="1112" y="0" on="0"/>
        <pt x="1075" y="33" on="0"/>
        <pt x="1075" y="57" on="1"/>
        <pt x="1075" y="145" on="1"/>
        <pt x="1075" y="176" on="0"/>
        <pt x="1116" y="207" on="0"/>
        <pt x="1148" y="227" on="0"/>
        <pt x="1168" y="244" on="1"/>
        <pt x="1205" y="275" on="0"/>
        <pt x="1285" y="362" on="0"/>
        <pt x="1344" y="467" on="0"/>
        <pt x="1363" y="526" on="1"/>
        <pt x="1400" y="642" on="0"/>
        <pt x="1404" y="778" on="1"/>
        <pt x="1404" y="807" on="1"/>
        <pt x="1404" y="1050" on="0"/>
        <pt x="1285" y="1189" on="1"/>
        <pt x="1162" y="1333" on="0"/>
        <pt x="929" y="1333" on="1"/>
        <pt x="701" y="1333" on="0"/>
        <pt x="578" y="1182" on="1"/>
        <pt x="461" y="1037" on="0"/>
        <pt x="461" y="781" on="1"/>
        <pt x="461" y="531" on="0"/>
        <pt x="598" y="345" on="1"/>
        <pt x="663" y="257" on="0"/>
        <pt x="731" y="223" on="1"/>
        <pt x="795" y="191" on="0"/>
        <pt x="795" y="146" on="1"/>
        <pt x="795" y="56" on="1"/>
        <pt x="795" y="33" on="0"/>
        <pt x="767" y="0" on="0"/>
        <pt x="741" y="0" on="1"/>
        <pt x="218" y="0" on="1"/>
        <pt x="192" y="0" on="0"/>
        <pt x="155" y="33" on="0"/>
        <pt x="155" y="57" on="1"/>
      </contour>
    </TTGlyph>
    <TTGlyph name="Oslash" xMin="115" yMin="-76" xMax="1594" yMax="1635">
      <contour>
        <pt x="837" y="-25" on="1"/>
        <pt x="660" y="-25" on="0"/>
        <pt x="506" y="56" on="1"/>
        <pt x="443" y="-46" on="1"/>
        <pt x="426" y="-76" on="0"/>
        <pt x="387" y="-76" on="0"/>
        <pt x="377" y="-69" on="1"/>
        <pt x="293" y="-15" on="1"/>
        <pt x="273" y="-1" on="0"/>
        <pt x="273" y="35" on="0"/>
        <pt x="281" y="49" on="1"/>
        <pt x="354" y="166" on="1"/>
        <pt x="179" y="335" on="0"/>
        <pt x="130" y="603" on="1"/>
        <pt x="115" y="689" on="0"/>
        <pt x="115" y="779" on="1"/>
        <pt x="115" y="1119" on="0"/>
        <pt x="320" y="1338" on="1"/>
        <pt x="526" y="1560" on="0"/>
        <pt x="856" y="1560" on="1"/>
        <pt x="1040" y="1560" on="0"/>
        <pt x="1184" y="1495" on="1"/>
        <pt x="1254" y="1606" on="1"/>
        <pt x="1272" y="1635" on="0"/>
        <pt x="1313" y="1635" on="0"/>
        <pt x="1324" y="1628" on="1"/>
        <pt x="1395" y="1589" on="1"/>
        <pt x="1427" y="1570" on="0"/>
        <pt x="1427" y="1532" on="0"/>
        <pt x="1419" y="1518" on="1"/>
        <pt x="1342" y="1395" on="1"/>
        <pt x="1594" y="1180" on="0"/>
        <pt x="1594" y="777" on="1"/>
        <pt x="1594" y="437" on="0"/>
        <pt x="1386" y="208" on="1"/>
        <pt x="1175" y="-25" on="0"/>
      </contour>
      <contour>
        <pt x="1064" y="1302" on="1"/>
        <pt x="970" y="1348" on="0"/>
        <pt x="742" y="1348" on="0"/>
        <pt x="563" y="1264" on="0"/>
        <pt x="501" y="1188" on="1"/>
        <pt x="372" y="1031" on="0"/>
        <pt x="372" y="778" on="1"/>
        <pt x="372" y="535" on="0"/>
        <pt x="485" y="375" on="1"/>
      </contour>
      <contour>
        <pt x="625" y="245" on="1"/>
        <pt x="725" y="189" on="0"/>
        <pt x="976" y="189" on="0"/>
        <pt x="1158" y="283" on="0"/>
        <pt x="1218" y="363" on="1"/>
        <pt x="1337" y="522" on="0"/>
        <pt x="1337" y="778" on="1"/>
        <pt x="1337" y="1025" on="0"/>
        <pt x="1210" y="1184" on="1"/>
      </contour>
    </TTGlyph>
    <TTGlyph name="Otilde" xMin="115" yMin="-25" xMax="1594" yMax="1991">
      <contour>
        <pt x="160" y="468" on="0"/>
        <pt x="115" y="671" on="0"/>
        <pt x="115" y="948" on="0"/>
        <pt x="222" y="1234" on="0"/>
        <pt x="320" y="1338" on="1"/>
        <pt x="527" y="1558" on="0"/>
        <pt x="856" y="1558" on="1"/>
        <pt x="1206" y="1558" on="0"/>
        <pt x="1405" y="1333" on="1"/>
        <pt x="1594" y="1120" on="0"/>
        <pt x="1594" y="777" on="1"/>
        <pt x="1594" y="437" on="0"/>
        <pt x="1386" y="208" on="1"/>
        <pt x="1288" y="100" on="0"/>
        <pt x="1014" y="-25" on="0"/>
        <pt x="733" y="-25" on="0"/>
        <pt x="535" y="34" on="0"/>
        <pt x="372" y="141" on="0"/>
        <pt x="246" y="289" on="0"/>
      </contour>
      <contour>
        <pt x="386" y="784" on="1"/>
        <pt x="386" y="669" on="0"/>
        <pt x="441" y="463" on="0"/>
        <pt x="498" y="382" on="1"/>
        <pt x="624" y="205" on="0"/>
        <pt x="853" y="205" on="1"/>
        <pt x="1083" y="205" on="0"/>
        <pt x="1208" y="374" on="1"/>
        <pt x="1323" y="530" on="0"/>
        <pt x="1323" y="778" on="1"/>
        <pt x="1323" y="1012" on="0"/>
        <pt x="1206" y="1164" on="1"/>
        <pt x="1077" y="1329" on="0"/>
        <pt x="854" y="1329" on="1"/>
        <pt x="639" y="1329" on="0"/>
        <pt x="512" y="1175" on="1"/>
        <pt x="386" y="1024" on="0"/>
      </contour>
      <contour>
        <pt x="505" y="1691" on="1"/>
        <pt x="462" y="1702" on="0"/>
        <pt x="483" y="1787" on="0"/>
        <pt x="523" y="1864" on="0"/>
        <pt x="553" y="1896" on="1"/>
        <pt x="619" y="1970" on="0"/>
        <pt x="702" y="1970" on="1"/>
        <pt x="771" y="1970" on="0"/>
        <pt x="855" y="1910" on="1"/>
        <pt x="915" y="1868" on="1"/>
        <pt x="942" y="1849" on="0"/>
        <pt x="982" y="1849" on="0"/>
        <pt x="1006" y="1864" on="0"/>
        <pt x="1015" y="1875" on="1"/>
        <pt x="1035" y="1897" on="0"/>
        <pt x="1049" y="1948" on="0"/>
        <pt x="1071" y="1991" on="0"/>
        <pt x="1105" y="1991" on="0"/>
        <pt x="1116" y="1988" on="1"/>
        <pt x="1191" y="1969" on="1"/>
        <pt x="1225" y="1958" on="0"/>
        <pt x="1234" y="1930" on="0"/>
        <pt x="1223" y="1850" on="0"/>
        <pt x="1180" y="1761" on="0"/>
        <pt x="1149" y="1728" on="1"/>
        <pt x="1080" y="1655" on="0"/>
        <pt x="995" y="1655" on="1"/>
        <pt x="918" y="1655" on="0"/>
        <pt x="833" y="1712" on="1"/>
        <pt x="775" y="1753" on="1"/>
        <pt x="706" y="1800" on="0"/>
        <pt x="659" y="1730" on="1"/>
        <pt x="650" y="1717" on="0"/>
        <pt x="639" y="1682" on="0"/>
        <pt x="602" y="1659" on="0"/>
        <pt x="573" y="1666" on="1"/>
      </contour>
    </TTGlyph>
    <TTGlyph name="P" xMin="229" yMin="0" xMax="1299" yMax="1533">
      <contour>
        <pt x="480" y="62" on="1"/>
        <pt x="480" y="0" on="0"/>
        <pt x="412" y="0" on="1"/>
        <pt x="294" y="0" on="1"/>
        <pt x="259" y="0" on="0"/>
        <pt x="229" y="38" on="0"/>
        <pt x="229" y="62" on="1"/>
        <pt x="229" y="1445" on="1"/>
        <pt x="229" y="1480" on="0"/>
        <pt x="266" y="1533" on="0"/>
        <pt x="308" y="1533" on="1"/>
        <pt x="704" y="1533" on="1"/>
        <pt x="984" y="1533" on="0"/>
        <pt x="1138" y="1399" on="1"/>
        <pt x="1299" y="1260" on="0"/>
        <pt x="1299" y="1002" on="1"/>
        <pt x="1299" y="742" on="0"/>
        <pt x="1118" y="586" on="1"/>
        <pt x="946" y="437" on="0"/>
        <pt x="683" y="437" on="1"/>
        <pt x="600" y="437" on="0"/>
        <pt x="480" y="452" on="1"/>
      </contour>
      <contour>
        <pt x="480" y="662" on="1"/>
        <pt x="560" y="653" on="1"/>
        <pt x="596" y="649" on="0"/>
        <pt x="720" y="649" on="0"/>
        <pt x="864" y="687" on="0"/>
        <pt x="918" y="729" on="1"/>
        <pt x="1037" y="820" on="0"/>
        <pt x="1037" y="1001" on="1"/>
        <pt x="1037" y="1230" on="0"/>
        <pt x="834" y="1296" on="1"/>
        <pt x="771" y="1316" on="0"/>
        <pt x="693" y="1316" on="1"/>
        <pt x="480" y="1316" on="1"/>
      </contour>
    </TTGlyph>
    <TTGlyph name="Q" xMin="115" yMin="-313" xMax="1672" yMax="1558">
      <contour>
        <pt x="1450" y="-87" on="0"/>
        <pt x="1555" y="-69" on="0"/>
        <pt x="1672" y="-69" on="0"/>
        <pt x="1672" y="-136" on="1"/>
        <pt x="1672" y="-154" on="0"/>
        <pt x="1654" y="-242" on="0"/>
        <pt x="1632" y="-281" on="0"/>
        <pt x="1614" y="-292" on="1"/>
        <pt x="1583" y="-313" on="0"/>
        <pt x="1465" y="-313" on="0"/>
        <pt x="1347" y="-303" on="0"/>
        <pt x="1215" y="-277" on="0"/>
        <pt x="1077" y="-234" on="0"/>
        <pt x="1009" y="-202" on="1"/>
        <pt x="860" y="-130" on="0"/>
        <pt x="761" y="-20" on="1"/>
        <pt x="465" y="11" on="0"/>
        <pt x="285" y="244" on="1"/>
        <pt x="115" y="465" on="0"/>
        <pt x="115" y="779" on="1"/>
        <pt x="115" y="1120" on="0"/>
        <pt x="320" y="1338" on="1"/>
        <pt x="527" y="1558" on="0"/>
        <pt x="856" y="1558" on="1"/>
        <pt x="1206" y="1558" on="0"/>
        <pt x="1405" y="1333" on="1"/>
        <pt x="1594" y="1120" on="0"/>
        <pt x="1594" y="777" on="1"/>
        <pt x="1594" y="481" on="0"/>
        <pt x="1445" y="273" on="1"/>
        <pt x="1288" y="54" on="0"/>
        <pt x="1021" y="11" on="1"/>
        <pt x="1210" y="-87" on="0"/>
        <pt x="1392" y="-87" on="1"/>
      </contour>
      <contour>
        <pt x="386" y="782" on="1"/>
        <pt x="386" y="665" on="0"/>
        <pt x="441" y="455" on="0"/>
        <pt x="498" y="374" on="1"/>
        <pt x="624" y="195" on="0"/>
        <pt x="853" y="195" on="1"/>
        <pt x="1083" y="195" on="0"/>
        <pt x="1209" y="366" on="1"/>
        <pt x="1323" y="521" on="0"/>
        <pt x="1323" y="778" on="1"/>
        <pt x="1323" y="1012" on="0"/>
        <pt x="1206" y="1164" on="1"/>
        <pt x="1077" y="1329" on="0"/>
        <pt x="854" y="1329" on="1"/>
        <pt x="639" y="1329" on="0"/>
        <pt x="512" y="1175" on="1"/>
        <pt x="386" y="1024" on="0"/>
      </contour>
    </TTGlyph>
    <TTGlyph name="R" xMin="234" yMin="-17" xMax="1434" yMax="1533">
      <contour>
        <pt x="1259" y="215" on="1"/>
        <pt x="1362" y="229" on="1"/>
        <pt x="1390" y="229" on="0"/>
        <pt x="1413" y="191" on="0"/>
        <pt x="1424" y="148" on="0"/>
        <pt x="1434" y="114" on="0"/>
        <pt x="1434" y="74" on="0"/>
        <pt x="1395" y="33" on="0"/>
        <pt x="1365" y="17" on="1"/>
        <pt x="1301" y="-17" on="0"/>
        <pt x="1162" y="-17" on="0"/>
        <pt x="1050" y="15" on="0"/>
        <pt x="1000" y="43" on="1"/>
        <pt x="922" y="87" on="0"/>
        <pt x="759" y="247" on="0"/>
        <pt x="711" y="304" on="1"/>
        <pt x="546" y="508" on="1"/>
        <pt x="511" y="550" on="0"/>
        <pt x="483" y="576" on="1"/>
        <pt x="483" y="63" on="1"/>
        <pt x="483" y="23" on="0"/>
        <pt x="456" y="6" on="1"/>
        <pt x="446" y="0" on="0"/>
        <pt x="433" y="0" on="1"/>
        <pt x="290" y="0" on="1"/>
        <pt x="263" y="0" on="0"/>
        <pt x="252" y="16" on="1"/>
        <pt x="234" y="42" on="0"/>
        <pt x="234" y="63" on="1"/>
        <pt x="234" y="1445" on="1"/>
        <pt x="234" y="1480" on="0"/>
        <pt x="271" y="1533" on="0"/>
        <pt x="313" y="1533" on="1"/>
        <pt x="759" y="1533" on="1"/>
        <pt x="1354" y="1533" on="0"/>
        <pt x="1354" y="1063" on="1"/>
        <pt x="1354" y="847" on="0"/>
        <pt x="1194" y="700" on="1"/>
        <pt x="1043" y="561" on="0"/>
        <pt x="838" y="561" on="1"/>
        <pt x="802" y="561" on="0"/>
        <pt x="769" y="566" on="1"/>
        <pt x="892" y="436" on="1"/>
        <pt x="998" y="325" on="0"/>
        <pt x="1057" y="286" on="1"/>
        <pt x="1163" y="215" on="0"/>
      </contour>
      <contour>
        <pt x="483" y="767" on="1"/>
        <pt x="596" y="741" on="0"/>
        <pt x="779" y="741" on="0"/>
        <pt x="923" y="775" on="0"/>
        <pt x="979" y="812" on="1"/>
        <pt x="1103" y="892" on="0"/>
        <pt x="1103" y="1049" on="1"/>
        <pt x="1103" y="1190" on="0"/>
        <pt x="996" y="1258" on="1"/>
        <pt x="906" y="1315" on="0"/>
        <pt x="752" y="1315" on="1"/>
        <pt x="483" y="1315" on="1"/>
      </contour>
    </TTGlyph>
    <TTGlyph name="Racute" xMin="234" yMin="-17" xMax="1434" yMax="1992">
      <contour>
        <pt x="1259" y="215" on="1"/>
        <pt x="1362" y="229" on="1"/>
        <pt x="1390" y="229" on="0"/>
        <pt x="1413" y="191" on="0"/>
        <pt x="1424" y="148" on="0"/>
        <pt x="1434" y="114" on="0"/>
        <pt x="1434" y="74" on="0"/>
        <pt x="1395" y="33" on="0"/>
        <pt x="1365" y="17" on="1"/>
        <pt x="1301" y="-17" on="0"/>
        <pt x="1162" y="-17" on="0"/>
        <pt x="1050" y="15" on="0"/>
        <pt x="1000" y="43" on="1"/>
        <pt x="922" y="87" on="0"/>
        <pt x="759" y="247" on="0"/>
        <pt x="711" y="304" on="1"/>
        <pt x="546" y="508" on="1"/>
        <pt x="511" y="550" on="0"/>
        <pt x="483" y="576" on="1"/>
        <pt x="483" y="63" on="1"/>
        <pt x="483" y="23" on="0"/>
        <pt x="456" y="6" on="1"/>
        <pt x="446" y="0" on="0"/>
        <pt x="433" y="0" on="1"/>
        <pt x="290" y="0" on="1"/>
        <pt x="263" y="0" on="0"/>
        <pt x="252" y="16" on="1"/>
        <pt x="234" y="42" on="0"/>
        <pt x="234" y="63" on="1"/>
        <pt x="234" y="1445" on="1"/>
        <pt x="234" y="1480" on="0"/>
        <pt x="271" y="1533" on="0"/>
        <pt x="313" y="1533" on="1"/>
        <pt x="759" y="1533" on="1"/>
        <pt x="1354" y="1533" on="0"/>
        <pt x="1354" y="1063" on="1"/>
        <pt x="1354" y="847" on="0"/>
        <pt x="1194" y="700" on="1"/>
        <pt x="1043" y="561" on="0"/>
        <pt x="838" y="561" on="1"/>
        <pt x="802" y="561" on="0"/>
        <pt x="769" y="566" on="1"/>
        <pt x="892" y="436" on="1"/>
        <pt x="998" y="325" on="0"/>
        <pt x="1057" y="286" on="1"/>
        <pt x="1163" y="215" on="0"/>
      </contour>
      <contour>
        <pt x="483" y="767" on="1"/>
        <pt x="596" y="741" on="0"/>
        <pt x="779" y="741" on="0"/>
        <pt x="923" y="775" on="0"/>
        <pt x="979" y="812" on="1"/>
        <pt x="1103" y="892" on="0"/>
        <pt x="1103" y="1049" on="1"/>
        <pt x="1103" y="1190" on="0"/>
        <pt x="996" y="1258" on="1"/>
        <pt x="906" y="1315" on="0"/>
        <pt x="752" y="1315" on="1"/>
        <pt x="483" y="1315" on="1"/>
      </contour>
      <contour>
        <pt x="684" y="1631" on="1"/>
        <pt x="644" y="1617" on="0"/>
        <pt x="627" y="1651" on="1"/>
        <pt x="596" y="1718" on="1"/>
        <pt x="581" y="1748" on="0"/>
        <pt x="611" y="1765" on="1"/>
        <pt x="978" y="1976" on="1"/>
        <pt x="1002" y="1992" on="0"/>
        <pt x="1023" y="1992" on="1"/>
        <pt x="1063" y="1992" on="0"/>
        <pt x="1074" y="1966" on="1"/>
        <pt x="1128" y="1851" on="1"/>
        <pt x="1136" y="1835" on="0"/>
        <pt x="1136" y="1821" on="1"/>
        <pt x="1136" y="1784" on="0"/>
        <pt x="1093" y="1769" on="1"/>
      </contour>
    </TTGlyph>
</ttFont>
